<?xml version="1.0" encoding="UTF-8"?>
<svg width="385px" height="203px" viewBox="0 0 385 203" version="1.1" xmlns="http://www.w3.org/2000/svg" xmlns:xlink="http://www.w3.org/1999/xlink">
    <title>Acquisition</title>
    <defs>
        <rect id="path-1" x="10.2535211" y="36.2535211" width="178.309859" height="154" rx="2"></rect>
        <filter x="-3.9%" y="-3.2%" width="107.9%" height="109.1%" filterUnits="objectBoundingBox" id="filter-2">
            <feOffset dx="0" dy="2" in="SourceAlpha" result="shadowOffsetOuter1"></feOffset>
            <feGaussianBlur stdDeviation="2" in="shadowOffsetOuter1" result="shadowBlurOuter1"></feGaussianBlur>
            <feColorMatrix values="0 0 0 0 0   0 0 0 0 0   0 0 0 0 0  0 0 0 0.214143766 0" type="matrix" in="shadowBlurOuter1"></feColorMatrix>
        </filter>
        <rect id="path-3" x="196.169014" y="36.2535211" width="178.309859" height="154" rx="2"></rect>
        <filter x="-3.9%" y="-3.2%" width="107.9%" height="109.1%" filterUnits="objectBoundingBox" id="filter-4">
            <feOffset dx="0" dy="2" in="SourceAlpha" result="shadowOffsetOuter1"></feOffset>
            <feGaussianBlur stdDeviation="2" in="shadowOffsetOuter1" result="shadowBlurOuter1"></feGaussianBlur>
            <feColorMatrix values="0 0 0 0 0   0 0 0 0 0   0 0 0 0 0  0 0 0 0.214143766 0" type="matrix" in="shadowBlurOuter1"></feColorMatrix>
        </filter>
    </defs>
    <g id="Acquisition" stroke="none" stroke-width="1" fill="none" fill-rule="evenodd">
        <rect fill="#FFFFFF" x="0" y="0" width="385" height="203"></rect>
        <rect id="Rectangle" stroke="#E8E8E8" fill="#FFFFFF" x="0.5" y="0.5" width="384" height="202" rx="4"></rect>
        <g id="Rectangle-Copy">
            <use fill="black" fill-opacity="1" filter="url(#filter-2)" xlink:href="#path-1"></use>
            <use fill="#FFFFFF" fill-rule="evenodd" xlink:href="#path-1"></use>
        </g>
        <g id="Rectangle-Copy-2">
            <use fill="black" fill-opacity="1" filter="url(#filter-4)" xlink:href="#path-3"></use>
            <use fill="#FFFFFF" fill-rule="evenodd" xlink:href="#path-3"></use>
        </g>
        <line x1="0.535211268" y1="22.5487541" x2="384.197183" y2="22.5487541" id="Line" stroke="#0077CC" stroke-width="2"></line>
        <rect id="Rectangle" fill="#0077CC" x="17" y="163" width="35.4929577" height="11.8309859" rx="2"></rect>
        <rect id="Rectangle-Copy-6" stroke="#0077CC" fill="#0077CC" x="39.5140845" y="102.78169" width="63" height="5" rx="2"></rect>
        <rect id="Rectangle-Copy-17" stroke="#0077CC" x="21.5140845" y="73.7816901" width="9" height="9" rx="4.5"></rect>
        <rect id="Rectangle-Copy-23" stroke="#0077CC" x="215.877246" y="95.5" width="8.22155689" height="9" rx="4.11077844"></rect>
        <rect id="Rectangle-Copy-24" stroke="#0077CC" x="215.877246" y="117.5" width="8.22155689" height="9" rx="4.11077844"></rect>
        <rect id="Rectangle-Copy-18" stroke="#0077CC" x="39.5140845" y="73.7816901" width="62.7241379" height="9" rx="2"></rect>
        <rect id="Rectangle-Copy-19" stroke="#0077CC" x="110.789947" y="73.7816901" width="62.7241379" height="9" rx="2"></rect>
        <rect id="Rectangle-Copy-15" stroke="#0077CC" fill="#0077CC" x="111.502457" y="102.78169" width="62" height="5" rx="2"></rect>
        <rect id="Rectangle-Copy-13" stroke="#0077CC" fill="#0077CC" x="39.5140845" y="115.78169" width="63" height="5" rx="2"></rect>
        <rect id="Rectangle-Copy-16" stroke="#0077CC" fill="#0077CC" x="111.502457" y="115.78169" width="48.1089655" height="5" rx="2"></rect>
        <rect id="Rectangle-Copy-14" stroke="#0077CC" fill="#0077CC" x="39.5140845" y="128.78169" width="44.5503448" height="5" rx="2"></rect>
        <path d="M120.197183,8.58938245 L186.197183,8.58938245 C187.301753,8.58938245 188.197183,9.48481295 188.197183,10.5893824 L188.197183,22.5893824 L188.197183,22.5893824 L118.197183,22.5893824 L118.197183,10.5893824 C118.197183,9.48481295 119.092614,8.58938245 120.197183,8.58938245 Z" id="Rectangle-Copy-5" fill="#0077CC"></path>
        <rect id="Rectangle-Copy-7" fill-opacity="0.51436503" fill="#BFBDBF" x="199" y="11" width="26" height="6" rx="2"></rect>
        <rect id="Rectangle-Copy-20" stroke="#BFBDBF" fill="#BFBDBF" x="148.5" y="49.5" width="25" height="5" rx="2"></rect>
        <rect id="Rectangle-Copy-25" fill="#0077CC" x="246.730539" y="97" width="12.9101796" height="6" rx="2"></rect>
        <rect id="Rectangle-Copy-27" fill="#0077CC" x="279.005988" y="97" width="12.9101796" height="6" rx="2"></rect>
        <rect id="Rectangle-Copy-29" fill="#0077CC" x="310.359281" y="97" width="12.9101796" height="6" rx="2"></rect>
        <rect id="Rectangle-Copy-31" fill="#0077CC" x="341.712575" y="97" width="12.9101796" height="6" rx="2"></rect>
        <rect id="Rectangle-Copy-26" fill="#0077CC" x="246.730539" y="119" width="12.9101796" height="6" rx="2"></rect>
        <rect id="Rectangle-Copy-34" stroke="#BFBDBF" fill="#BFBDBF" x="247.230539" y="144.5" width="11.9101796" height="5" rx="2"></rect>
        <rect id="Rectangle-Copy-33" stroke="#BFBDBF" fill="#BFBDBF" x="215.877246" y="145.5" width="11.9101796" height="5" rx="2"></rect>
        <rect id="Rectangle-Copy-28" fill="#0077CC" x="279.005988" y="119" width="12.9101796" height="6" rx="2"></rect>
        <rect id="Rectangle-Copy-35" stroke="#BFBDBF" fill="#BFBDBF" x="279.505988" y="144.5" width="11.9101796" height="5" rx="2"></rect>
        <rect id="Rectangle-Copy-30" fill="#0077CC" x="310.359281" y="119" width="12.9101796" height="6" rx="2"></rect>
        <rect id="Rectangle-Copy-36" stroke="#BFBDBF" fill="#BFBDBF" x="310.859281" y="144.5" width="11.9101796" height="5" rx="2"></rect>
        <rect id="Rectangle-Copy-32" fill="#0077CC" x="341.712575" y="119" width="12.9101796" height="6" rx="2"></rect>
        <rect id="Rectangle-Copy-37" stroke="#BFBDBF" fill="#BFBDBF" x="342.212575" y="144.5" width="11.9101796" height="5" rx="2"></rect>
        <rect id="Rectangle-Copy-8" fill-opacity="0.51436503" fill="#BFBDBF" x="234" y="11" width="26" height="6" rx="2"></rect>
        <rect id="Rectangle-Copy-9" fill-opacity="0.51436503" fill="#BFBDBF" x="312" y="11" width="42" height="6" rx="2"></rect>
        <rect id="Rectangle-Copy-12" fill-opacity="0.51436503" fill="#BFBDBF" x="10" y="11" width="42" height="6" rx="2"></rect>
        <rect id="Rectangle-Copy-11" fill-opacity="0.51436503" fill="#BFBDBF" x="303" y="11" width="6" height="6" rx="2"></rect>
        <rect id="Rectangle-Copy-10" fill-opacity="0.51436503" fill="#BFBDBF" x="365" y="9" width="10" height="10" rx="5"></rect>
        <rect id="Rectangle-Copy-3" fill="#0077CC" x="208" y="163" width="32.7300329" height="11.8309859" rx="2"></rect>
        <rect id="Rectangle-Copy-4" fill="#0077CC" x="328.802395" y="163" width="32.7300329" height="11.8309859" rx="2"></rect>
        <g id="Leads" transform="translate(21.761719, 47.000000)" fill="#0077CC" fill-rule="nonzero">
            <polygon id="Path" points="1.7578125 7.58789062 5.49023438 7.58789062 5.49023438 9 0 9 0 0.46875 1.7578125 0.46875"></polygon>
            <path d="M9.8046875,9.1171875 C8.875,9.1171875 8.11816406,8.83203125 7.53417969,8.26171875 C6.95019531,7.69140625 6.65820312,6.93164062 6.65820312,5.98242188 L6.65820312,5.81835938 C6.65820312,5.18164062 6.78125,4.61230469 7.02734375,4.11035156 C7.2734375,3.60839844 7.62207031,3.22167969 8.07324219,2.95019531 C8.52441406,2.67871094 9.0390625,2.54296875 9.6171875,2.54296875 C10.484375,2.54296875 11.1669922,2.81640625 11.6650391,3.36328125 C12.1630859,3.91015625 12.4121094,4.68554688 12.4121094,5.68945312 L12.4121094,6.38085938 L8.375,6.38085938 C8.4296875,6.79492188 8.59472656,7.12695312 8.87011719,7.37695312 C9.14550781,7.62695312 9.49414062,7.75195312 9.91601562,7.75195312 C10.5683594,7.75195312 11.078125,7.515625 11.4453125,7.04296875 L12.2773438,7.97460938 C12.0234375,8.33398438 11.6796875,8.61425781 11.2460938,8.81542969 C10.8125,9.01660156 10.3320312,9.1171875 9.8046875,9.1171875 Z M9.61132812,3.9140625 C9.27539062,3.9140625 9.00292969,4.02734375 8.79394531,4.25390625 C8.58496094,4.48046875 8.45117188,4.8046875 8.39257812,5.2265625 L10.7480469,5.2265625 L10.7480469,5.09179688 C10.7402344,4.71679688 10.6386719,4.42675781 10.4433594,4.22167969 C10.2480469,4.01660156 9.97070312,3.9140625 9.61132812,3.9140625 Z" id="Shape"></path>
            <path d="M17.546875,9 C17.46875,8.84765625 17.4121094,8.65820312 17.3769531,8.43164062 C16.9667969,8.88867188 16.4335938,9.1171875 15.7773438,9.1171875 C15.15625,9.1171875 14.6416016,8.9375 14.2333984,8.578125 C13.8251953,8.21875 13.6210938,7.765625 13.6210938,7.21875 C13.6210938,6.546875 13.8701172,6.03125 14.3681641,5.671875 C14.8662109,5.3125 15.5859375,5.13085938 16.5273438,5.12695312 L17.3066406,5.12695312 L17.3066406,4.76367188 C17.3066406,4.47070312 17.2314453,4.23632812 17.0810547,4.06054688 C16.9306641,3.88476562 16.6933594,3.796875 16.3691406,3.796875 C16.0839844,3.796875 15.8603516,3.86523438 15.6982422,4.00195312 C15.5361328,4.13867188 15.4550781,4.32617188 15.4550781,4.56445312 L13.7617188,4.56445312 C13.7617188,4.19726562 13.875,3.85742188 14.1015625,3.54492188 C14.328125,3.23242188 14.6484375,2.98730469 15.0625,2.80957031 C15.4765625,2.63183594 15.9414062,2.54296875 16.4570312,2.54296875 C17.2382812,2.54296875 17.8583984,2.73925781 18.3173828,3.13183594 C18.7763672,3.52441406 19.0058594,4.07617188 19.0058594,4.78710938 L19.0058594,7.53515625 C19.0097656,8.13671875 19.09375,8.59179688 19.2578125,8.90039062 L19.2578125,9 L17.546875,9 Z M16.1464844,7.82226562 C16.3964844,7.82226562 16.6269531,7.76660156 16.8378906,7.65527344 C17.0488281,7.54394531 17.2050781,7.39453125 17.3066406,7.20703125 L17.3066406,6.1171875 L16.6738281,6.1171875 C15.8261719,6.1171875 15.375,6.41015625 15.3203125,6.99609375 L15.3144531,7.09570312 C15.3144531,7.30664062 15.3886719,7.48046875 15.5371094,7.6171875 C15.6855469,7.75390625 15.8886719,7.82226562 16.1464844,7.82226562 Z" id="Shape"></path>
            <path d="M20.5429688,5.78320312 C20.5429688,4.79492188 20.7646484,4.0078125 21.2080078,3.421875 C21.6513672,2.8359375 22.2578125,2.54296875 23.0273438,2.54296875 C23.6445312,2.54296875 24.1542969,2.7734375 24.5566406,3.234375 L24.5566406,0 L26.2558594,0 L26.2558594,9 L24.7265625,9 L24.6445312,8.32617188 C24.2226562,8.85351562 23.6796875,9.1171875 23.015625,9.1171875 C22.2695312,9.1171875 21.6708984,8.82324219 21.2197266,8.23535156 C20.7685547,7.64746094 20.5429688,6.83007812 20.5429688,5.78320312 Z M22.2363281,5.90625 C22.2363281,6.5 22.3398438,6.95507812 22.546875,7.27148438 C22.7539062,7.58789062 23.0546875,7.74609375 23.4492188,7.74609375 C23.9726562,7.74609375 24.3417969,7.52539062 24.5566406,7.08398438 L24.5566406,4.58203125 C24.3457031,4.140625 23.9804688,3.91992188 23.4609375,3.91992188 C22.6445312,3.91992188 22.2363281,4.58203125 22.2363281,5.90625 Z" id="Shape"></path>
            <path d="M31.5019531,7.24804688 C31.5019531,7.04101562 31.3994141,6.87792969 31.1943359,6.75878906 C30.9892578,6.63964844 30.6601562,6.53320312 30.2070312,6.43945312 C28.6992188,6.12304688 27.9453125,5.48242188 27.9453125,4.51757812 C27.9453125,3.95507812 28.1787109,3.48535156 28.6455078,3.10839844 C29.1123047,2.73144531 29.7226562,2.54296875 30.4765625,2.54296875 C31.28125,2.54296875 31.9248047,2.73242188 32.4072266,3.11132812 C32.8896484,3.49023438 33.1308594,3.98242188 33.1308594,4.58789062 L31.4375,4.58789062 C31.4375,4.34570312 31.359375,4.14550781 31.203125,3.98730469 C31.046875,3.82910156 30.8027344,3.75 30.4707031,3.75 C30.1855469,3.75 29.9648438,3.81445312 29.8085938,3.94335938 C29.6523438,4.07226562 29.5742188,4.23632812 29.5742188,4.43554688 C29.5742188,4.62304688 29.6630859,4.77441406 29.8408203,4.88964844 C30.0185547,5.00488281 30.3183594,5.10449219 30.7402344,5.18847656 C31.1621094,5.27246094 31.5175781,5.3671875 31.8066406,5.47265625 C32.7011719,5.80078125 33.1484375,6.36914062 33.1484375,7.17773438 C33.1484375,7.75585938 32.9003906,8.22363281 32.4042969,8.58105469 C31.9082031,8.93847656 31.2675781,9.1171875 30.4824219,9.1171875 C29.9511719,9.1171875 29.4794922,9.02246094 29.0673828,8.83300781 C28.6552734,8.64355469 28.3320312,8.38378906 28.0976562,8.05371094 C27.8632812,7.72363281 27.7460938,7.3671875 27.7460938,6.984375 L29.3515625,6.984375 C29.3671875,7.28515625 29.4785156,7.515625 29.6855469,7.67578125 C29.8925781,7.8359375 30.1699219,7.91601562 30.5175781,7.91601562 C30.8417969,7.91601562 31.0869141,7.85449219 31.2529297,7.73144531 C31.4189453,7.60839844 31.5019531,7.44726562 31.5019531,7.24804688 Z" id="Path"></path>
        </g>
        <text font-family="Roboto-Bold, Roboto" font-size="9" font-weight="bold" letter-spacing="0.6" fill="#FFFFFF">
            <tspan x="126" y="19">Acquisition</tspan>
        </text>
        <g id="Prospect-Pipeline" transform="translate(208.761719, 47.000000)" fill="#0077CC" fill-rule="nonzero">
            <path d="M1.7578125,5.99414062 L1.7578125,9 L0,9 L0,0.46875 L3.328125,0.46875 C3.96875,0.46875 4.53222656,0.5859375 5.01855469,0.8203125 C5.50488281,1.0546875 5.87890625,1.38769531 6.140625,1.81933594 C6.40234375,2.25097656 6.53320312,2.7421875 6.53320312,3.29296875 C6.53320312,4.12890625 6.24707031,4.78808594 5.67480469,5.27050781 C5.10253906,5.75292969 4.31054688,5.99414062 3.29882812,5.99414062 L1.7578125,5.99414062 Z M1.7578125,4.5703125 L3.328125,4.5703125 C3.79296875,4.5703125 4.14746094,4.4609375 4.39160156,4.2421875 C4.63574219,4.0234375 4.7578125,3.7109375 4.7578125,3.3046875 C4.7578125,2.88671875 4.63476562,2.54882812 4.38867188,2.29101562 C4.14257812,2.03320312 3.80273438,1.90039062 3.36914062,1.89257812 L1.7578125,1.89257812 L1.7578125,4.5703125 Z" id="Shape"></path>
            <path d="M11.6914062,4.24804688 C11.4609375,4.21679688 11.2578125,4.20117188 11.0820312,4.20117188 C10.4414062,4.20117188 10.0214844,4.41796875 9.82226562,4.8515625 L9.82226562,9 L8.12890625,9 L8.12890625,2.66015625 L9.72851562,2.66015625 L9.77539062,3.41601562 C10.1152344,2.83398438 10.5859375,2.54296875 11.1875,2.54296875 C11.375,2.54296875 11.5507812,2.56835938 11.7148438,2.61914062 L11.6914062,4.24804688 Z" id="Path"></path>
            <path d="M12.53125,5.77148438 C12.53125,5.14257812 12.6523438,4.58203125 12.8945312,4.08984375 C13.1367188,3.59765625 13.4853516,3.21679688 13.9404297,2.94726562 C14.3955078,2.67773438 14.9238281,2.54296875 15.5253906,2.54296875 C16.3808594,2.54296875 17.0791016,2.8046875 17.6201172,3.328125 C18.1611328,3.8515625 18.4628906,4.5625 18.5253906,5.4609375 L18.5371094,5.89453125 C18.5371094,6.8671875 18.265625,7.64746094 17.7226562,8.23535156 C17.1796875,8.82324219 16.4511719,9.1171875 15.5371094,9.1171875 C14.6230469,9.1171875 13.8935547,8.82421875 13.3486328,8.23828125 C12.8037109,7.65234375 12.53125,6.85546875 12.53125,5.84765625 L12.53125,5.77148438 Z M14.2246094,5.89453125 C14.2246094,6.49609375 14.3378906,6.95605469 14.5644531,7.27441406 C14.7910156,7.59277344 15.1152344,7.75195312 15.5371094,7.75195312 C15.9472656,7.75195312 16.2675781,7.59472656 16.4980469,7.28027344 C16.7285156,6.96582031 16.84375,6.46289062 16.84375,5.77148438 C16.84375,5.18164062 16.7285156,4.72460938 16.4980469,4.40039062 C16.2675781,4.07617188 15.9433594,3.9140625 15.5253906,3.9140625 C15.1113281,3.9140625 14.7910156,4.07519531 14.5644531,4.39746094 C14.3378906,4.71972656 14.2246094,5.21875 14.2246094,5.89453125 Z" id="Shape"></path>
            <path d="M23.5136719,7.24804688 C23.5136719,7.04101562 23.4111328,6.87792969 23.2060547,6.75878906 C23.0009766,6.63964844 22.671875,6.53320312 22.21875,6.43945312 C20.7109375,6.12304688 19.9570312,5.48242188 19.9570312,4.51757812 C19.9570312,3.95507812 20.1904297,3.48535156 20.6572266,3.10839844 C21.1240234,2.73144531 21.734375,2.54296875 22.4882812,2.54296875 C23.2929688,2.54296875 23.9365234,2.73242188 24.4189453,3.11132812 C24.9013672,3.49023438 25.1425781,3.98242188 25.1425781,4.58789062 L23.4492188,4.58789062 C23.4492188,4.34570312 23.3710938,4.14550781 23.2148438,3.98730469 C23.0585938,3.82910156 22.8144531,3.75 22.4824219,3.75 C22.1972656,3.75 21.9765625,3.81445312 21.8203125,3.94335938 C21.6640625,4.07226562 21.5859375,4.23632812 21.5859375,4.43554688 C21.5859375,4.62304688 21.6748047,4.77441406 21.8525391,4.88964844 C22.0302734,5.00488281 22.3300781,5.10449219 22.7519531,5.18847656 C23.1738281,5.27246094 23.5292969,5.3671875 23.8183594,5.47265625 C24.7128906,5.80078125 25.1601562,6.36914062 25.1601562,7.17773438 C25.1601562,7.75585938 24.9121094,8.22363281 24.4160156,8.58105469 C23.9199219,8.93847656 23.2792969,9.1171875 22.4941406,9.1171875 C21.9628906,9.1171875 21.4912109,9.02246094 21.0791016,8.83300781 C20.6669922,8.64355469 20.34375,8.38378906 20.109375,8.05371094 C19.875,7.72363281 19.7578125,7.3671875 19.7578125,6.984375 L21.3632812,6.984375 C21.3789062,7.28515625 21.4902344,7.515625 21.6972656,7.67578125 C21.9042969,7.8359375 22.1816406,7.91601562 22.5292969,7.91601562 C22.8535156,7.91601562 23.0986328,7.85449219 23.2646484,7.73144531 C23.4306641,7.60839844 23.5136719,7.44726562 23.5136719,7.24804688 Z" id="Path"></path>
            <path d="M32.4570312,5.88867188 C32.4570312,6.86523438 32.2353516,7.64746094 31.7919922,8.23535156 C31.3486328,8.82324219 30.75,9.1171875 29.9960938,9.1171875 C29.3554688,9.1171875 28.8378906,8.89453125 28.4433594,8.44921875 L28.4433594,11.4375 L26.75,11.4375 L26.75,2.66015625 L28.3203125,2.66015625 L28.3789062,3.28125 C28.7890625,2.7890625 29.3242188,2.54296875 29.984375,2.54296875 C30.765625,2.54296875 31.3730469,2.83203125 31.8066406,3.41015625 C32.2402344,3.98828125 32.4570312,4.78515625 32.4570312,5.80078125 L32.4570312,5.88867188 Z M30.7636719,5.765625 C30.7636719,5.17578125 30.6591797,4.72070312 30.4501953,4.40039062 C30.2412109,4.08007812 29.9375,3.91992188 29.5390625,3.91992188 C29.0078125,3.91992188 28.6425781,4.12304688 28.4433594,4.52929688 L28.4433594,7.125 C28.6503906,7.54296875 29.0195312,7.75195312 29.5507812,7.75195312 C30.359375,7.75195312 30.7636719,7.08984375 30.7636719,5.765625 Z" id="Shape"></path>
            <path d="M36.9238281,9.1171875 C35.9941406,9.1171875 35.2373047,8.83203125 34.6533203,8.26171875 C34.0693359,7.69140625 33.7773438,6.93164062 33.7773438,5.98242188 L33.7773438,5.81835938 C33.7773438,5.18164062 33.9003906,4.61230469 34.1464844,4.11035156 C34.3925781,3.60839844 34.7412109,3.22167969 35.1923828,2.95019531 C35.6435547,2.67871094 36.1582031,2.54296875 36.7363281,2.54296875 C37.6035156,2.54296875 38.2861328,2.81640625 38.7841797,3.36328125 C39.2822266,3.91015625 39.53125,4.68554688 39.53125,5.68945312 L39.53125,6.38085938 L35.4941406,6.38085938 C35.5488281,6.79492188 35.7138672,7.12695312 35.9892578,7.37695312 C36.2646484,7.62695312 36.6132812,7.75195312 37.0351562,7.75195312 C37.6875,7.75195312 38.1972656,7.515625 38.5644531,7.04296875 L39.3964844,7.97460938 C39.1425781,8.33398438 38.7988281,8.61425781 38.3652344,8.81542969 C37.9316406,9.01660156 37.4511719,9.1171875 36.9238281,9.1171875 Z M36.7304688,3.9140625 C36.3945312,3.9140625 36.1220703,4.02734375 35.9130859,4.25390625 C35.7041016,4.48046875 35.5703125,4.8046875 35.5117188,5.2265625 L37.8671875,5.2265625 L37.8671875,5.09179688 C37.859375,4.71679688 37.7578125,4.42675781 37.5625,4.22167969 C37.3671875,4.01660156 37.0898438,3.9140625 36.7304688,3.9140625 Z" id="Shape"></path>
            <path d="M43.6289062,7.75195312 C43.9414062,7.75195312 44.1953125,7.66601562 44.390625,7.49414062 C44.5859375,7.32226562 44.6875,7.09375 44.6953125,6.80859375 L46.2832031,6.80859375 C46.2792969,7.23828125 46.1621094,7.63183594 45.9316406,7.98925781 C45.7011719,8.34667969 45.3857422,8.62402344 44.9853516,8.82128906 C44.5849609,9.01855469 44.1425781,9.1171875 43.6582031,9.1171875 C42.7519531,9.1171875 42.0371094,8.82910156 41.5136719,8.25292969 C40.9902344,7.67675781 40.7285156,6.88085938 40.7285156,5.86523438 L40.7285156,5.75390625 C40.7285156,4.77734375 40.9882812,3.99804688 41.5078125,3.41601562 C42.0273438,2.83398438 42.7402344,2.54296875 43.6464844,2.54296875 C44.4394531,2.54296875 45.0751953,2.76855469 45.5537109,3.21972656 C46.0322266,3.67089844 46.2753906,4.27148438 46.2832031,5.02148438 L44.6953125,5.02148438 C44.6875,4.69335938 44.5859375,4.42675781 44.390625,4.22167969 C44.1953125,4.01660156 43.9375,3.9140625 43.6171875,3.9140625 C43.2226562,3.9140625 42.9248047,4.05761719 42.7236328,4.34472656 C42.5224609,4.63183594 42.421875,5.09765625 42.421875,5.7421875 L42.421875,5.91796875 C42.421875,6.5703125 42.5214844,7.0390625 42.7207031,7.32421875 C42.9199219,7.609375 43.2226562,7.75195312 43.6289062,7.75195312 Z" id="Path"></path>
            <path d="M49.7773438,1.1015625 L49.7773438,2.66015625 L50.8613281,2.66015625 L50.8613281,3.90234375 L49.7773438,3.90234375 L49.7773438,7.06640625 C49.7773438,7.30078125 49.8222656,7.46875 49.9121094,7.5703125 C50.0019531,7.671875 50.1738281,7.72265625 50.4277344,7.72265625 C50.6152344,7.72265625 50.78125,7.70898438 50.9257812,7.68164062 L50.9257812,8.96484375 C50.59375,9.06640625 50.2519531,9.1171875 49.9003906,9.1171875 C48.7128906,9.1171875 48.1074219,8.51757812 48.0839844,7.31835938 L48.0839844,3.90234375 L47.1582031,3.90234375 L47.1582031,2.66015625 L48.0839844,2.66015625 L48.0839844,1.1015625 L49.7773438,1.1015625 Z" id="Path"></path>
            <path d="M57.6621094,5.99414062 L57.6621094,9 L55.9042969,9 L55.9042969,0.46875 L59.2324219,0.46875 C59.8730469,0.46875 60.4365234,0.5859375 60.9228516,0.8203125 C61.4091797,1.0546875 61.7832031,1.38769531 62.0449219,1.81933594 C62.3066406,2.25097656 62.4375,2.7421875 62.4375,3.29296875 C62.4375,4.12890625 62.1513672,4.78808594 61.5791016,5.27050781 C61.0068359,5.75292969 60.2148438,5.99414062 59.203125,5.99414062 L57.6621094,5.99414062 Z M57.6621094,4.5703125 L59.2324219,4.5703125 C59.6972656,4.5703125 60.0517578,4.4609375 60.2958984,4.2421875 C60.5400391,4.0234375 60.6621094,3.7109375 60.6621094,3.3046875 C60.6621094,2.88671875 60.5390625,2.54882812 60.2929688,2.29101562 C60.046875,2.03320312 59.7070312,1.90039062 59.2734375,1.89257812 L57.6621094,1.89257812 L57.6621094,4.5703125 Z" id="Shape"></path>
            <path d="M65.8203125,9 L64.1210938,9 L64.1210938,2.66015625 L65.8203125,2.66015625 L65.8203125,9 Z M64.0214844,1.01953125 C64.0214844,0.765625 64.1064453,0.556640625 64.2763672,0.392578125 C64.4462891,0.228515625 64.6777344,0.146484375 64.9707031,0.146484375 C65.2597656,0.146484375 65.4902344,0.228515625 65.6621094,0.392578125 C65.8339844,0.556640625 65.9199219,0.765625 65.9199219,1.01953125 C65.9199219,1.27734375 65.8330078,1.48828125 65.6591797,1.65234375 C65.4853516,1.81640625 65.2558594,1.8984375 64.9707031,1.8984375 C64.6855469,1.8984375 64.4560547,1.81640625 64.2822266,1.65234375 C64.1083984,1.48828125 64.0214844,1.27734375 64.0214844,1.01953125 Z" id="Shape"></path>
            <path d="M73.421875,5.88867188 C73.421875,6.86523438 73.2001953,7.64746094 72.7568359,8.23535156 C72.3134766,8.82324219 71.7148438,9.1171875 70.9609375,9.1171875 C70.3203125,9.1171875 69.8027344,8.89453125 69.4082031,8.44921875 L69.4082031,11.4375 L67.7148438,11.4375 L67.7148438,2.66015625 L69.2851562,2.66015625 L69.34375,3.28125 C69.7539062,2.7890625 70.2890625,2.54296875 70.9492188,2.54296875 C71.7304688,2.54296875 72.3378906,2.83203125 72.7714844,3.41015625 C73.2050781,3.98828125 73.421875,4.78515625 73.421875,5.80078125 L73.421875,5.88867188 Z M71.7285156,5.765625 C71.7285156,5.17578125 71.6240234,4.72070312 71.4150391,4.40039062 C71.2060547,4.08007812 70.9023438,3.91992188 70.5039062,3.91992188 C69.9726562,3.91992188 69.6074219,4.12304688 69.4082031,4.52929688 L69.4082031,7.125 C69.6152344,7.54296875 69.984375,7.75195312 70.515625,7.75195312 C71.3242188,7.75195312 71.7285156,7.08984375 71.7285156,5.765625 Z" id="Shape"></path>
            <path d="M77.8886719,9.1171875 C76.9589844,9.1171875 76.2021484,8.83203125 75.6181641,8.26171875 C75.0341797,7.69140625 74.7421875,6.93164062 74.7421875,5.98242188 L74.7421875,5.81835938 C74.7421875,5.18164062 74.8652344,4.61230469 75.1113281,4.11035156 C75.3574219,3.60839844 75.7060547,3.22167969 76.1572266,2.95019531 C76.6083984,2.67871094 77.1230469,2.54296875 77.7011719,2.54296875 C78.5683594,2.54296875 79.2509766,2.81640625 79.7490234,3.36328125 C80.2470703,3.91015625 80.4960938,4.68554688 80.4960938,5.68945312 L80.4960938,6.38085938 L76.4589844,6.38085938 C76.5136719,6.79492188 76.6787109,7.12695312 76.9541016,7.37695312 C77.2294922,7.62695312 77.578125,7.75195312 78,7.75195312 C78.6523438,7.75195312 79.1621094,7.515625 79.5292969,7.04296875 L80.3613281,7.97460938 C80.1074219,8.33398438 79.7636719,8.61425781 79.3300781,8.81542969 C78.8964844,9.01660156 78.4160156,9.1171875 77.8886719,9.1171875 Z M77.6953125,3.9140625 C77.359375,3.9140625 77.0869141,4.02734375 76.8779297,4.25390625 C76.6689453,4.48046875 76.5351562,4.8046875 76.4765625,5.2265625 L78.8320312,5.2265625 L78.8320312,5.09179688 C78.8242188,4.71679688 78.7226562,4.42675781 78.5273438,4.22167969 C78.3320312,4.01660156 78.0546875,3.9140625 77.6953125,3.9140625 Z" id="Shape"></path>
            <polygon id="Path" points="83.7441406 9 82.0449219 9 82.0449219 0 83.7441406 0"></polygon>
            <path d="M87.4257812,9 L85.7265625,9 L85.7265625,2.66015625 L87.4257812,2.66015625 L87.4257812,9 Z M85.6269531,1.01953125 C85.6269531,0.765625 85.7119141,0.556640625 85.8818359,0.392578125 C86.0517578,0.228515625 86.2832031,0.146484375 86.5761719,0.146484375 C86.8652344,0.146484375 87.0957031,0.228515625 87.2675781,0.392578125 C87.4394531,0.556640625 87.5253906,0.765625 87.5253906,1.01953125 C87.5253906,1.27734375 87.4384766,1.48828125 87.2646484,1.65234375 C87.0908203,1.81640625 86.8613281,1.8984375 86.5761719,1.8984375 C86.2910156,1.8984375 86.0615234,1.81640625 85.8876953,1.65234375 C85.7138672,1.48828125 85.6269531,1.27734375 85.6269531,1.01953125 Z" id="Shape"></path>
            <path d="M90.8789062,2.66015625 L90.9316406,3.39257812 C91.3847656,2.82617188 91.9921875,2.54296875 92.7539062,2.54296875 C93.4257812,2.54296875 93.9257812,2.74023438 94.2539062,3.13476562 C94.5820312,3.52929688 94.75,4.11914062 94.7578125,4.90429688 L94.7578125,9 L93.0644531,9 L93.0644531,4.9453125 C93.0644531,4.5859375 92.9863281,4.32519531 92.8300781,4.16308594 C92.6738281,4.00097656 92.4140625,3.91992188 92.0507812,3.91992188 C91.5742188,3.91992188 91.2167969,4.12304688 90.9785156,4.52929688 L90.9785156,9 L89.2851562,9 L89.2851562,2.66015625 L90.8789062,2.66015625 Z" id="Path"></path>
            <path d="M99.4589844,9.1171875 C98.5292969,9.1171875 97.7724609,8.83203125 97.1884766,8.26171875 C96.6044922,7.69140625 96.3125,6.93164062 96.3125,5.98242188 L96.3125,5.81835938 C96.3125,5.18164062 96.4355469,4.61230469 96.6816406,4.11035156 C96.9277344,3.60839844 97.2763672,3.22167969 97.7275391,2.95019531 C98.1787109,2.67871094 98.6933594,2.54296875 99.2714844,2.54296875 C100.138672,2.54296875 100.821289,2.81640625 101.319336,3.36328125 C101.817383,3.91015625 102.066406,4.68554688 102.066406,5.68945312 L102.066406,6.38085938 L98.0292969,6.38085938 C98.0839844,6.79492188 98.2490234,7.12695312 98.5244141,7.37695312 C98.7998047,7.62695312 99.1484375,7.75195312 99.5703125,7.75195312 C100.222656,7.75195312 100.732422,7.515625 101.099609,7.04296875 L101.931641,7.97460938 C101.677734,8.33398438 101.333984,8.61425781 100.900391,8.81542969 C100.466797,9.01660156 99.9863281,9.1171875 99.4589844,9.1171875 Z M99.265625,3.9140625 C98.9296875,3.9140625 98.6572266,4.02734375 98.4482422,4.25390625 C98.2392578,4.48046875 98.1054688,4.8046875 98.046875,5.2265625 L100.402344,5.2265625 L100.402344,5.09179688 C100.394531,4.71679688 100.292969,4.42675781 100.097656,4.22167969 C99.9023438,4.01660156 99.625,3.9140625 99.265625,3.9140625 Z" id="Shape"></path>
        </g>
        <polygon id="Path-Copy-16" fill="#3B8FE8" fill-rule="nonzero" points="331.280056 68.9458333 333.338889 75.9458333 331.280214 82.9458333 299.972374 82.9017132 301.941813 75.9458333 299.972222 68.9893108"></polygon>
        <path d="M330.344444,82.9453081 L332.426935,75.945894 L330.344444,68.9458333 L361.178738,68.9458333 C361.632308,68.9458333 362,69.9905023 362,71.2791667 L362,80.6125 C362,81.9011644 361.632308,82.9458333 361.178738,82.9458333 L330.344444,82.9453081 Z" id="5" fill="#0077CC" fill-rule="nonzero"></path>
        <path d="M239.449086,68.9893108 L239.460663,68.9458333 L241.366667,75.9458333 L239.460663,82.9458333 L239.448944,82.9017132 L208.816402,82.9458333 C208.365516,82.9458333 208,81.9011644 208,80.6125 L208,71.2791667 C208,69.9905023 208.365516,68.9458333 208.816402,68.9458333 L239.449086,68.9893108 Z" id="1" fill="#A0E2FF" fill-rule="nonzero"></path>
        <polygon id="3" fill="#62ABFF" fill-rule="nonzero" points="300.984703 68.9458333 302.966667 75.9458333 300.984703 82.9458333 300.972242 82.9017132 269.172374 82.9017132 271.141872 75.9458333 269.172222 68.9893108 300.972393 68.9893108"></polygon>
        <polygon id="3-copy" fill="#82C6FF" fill-rule="nonzero" points="269.63141 68.9458333 271.613373 75.9458333 269.63141 82.9458333 269.618948 82.9017132 237.81908 82.9017132 239.788578 75.9458333 237.818929 68.9893108 269.6191 68.9893108"></polygon>
        <line x1="208.922156" y1="137" x2="362" y2="137" id="Path-2" stroke="#D9D9D9"></line>
        <g id="Group-10" transform="translate(166.000000, 24.000000)">
            <circle id="Oval" fill="#FFBB11" cx="13" cy="13" r="13"></circle>
            <text id="1" font-family="Roboto-Black, Roboto" font-size="14" font-weight="800" fill="#FFFFFF">
                <tspan x="9.44628906" y="18">1</tspan>
            </text>
        </g>
        <g id="Group-10-Copy" transform="translate(354.000000, 24.000000)">
            <circle id="Oval" fill="#FFBB11" cx="13" cy="13" r="13"></circle>
            <text id="2" font-family="Roboto-Black, Roboto" font-size="14" font-weight="800" fill="#FFFFFF">
                <tspan x="9.44628906" y="18">2</tspan>
            </text>
        </g>
    </g>
</svg>