<svg xmlns="http://www.w3.org/2000/svg" xmlns:xlink="http://www.w3.org/1999/xlink" width="1440" height="994" viewBox="0 0 1440 994"><defs><style>.a{fill:url(#a);}.b{fill:url(#b);}.c{clip-path:url(#c);}.d{opacity:0.201;}.e,.h{opacity:0.7;}.e{fill:url(#d);}.f,.i,.l{fill:none;}.f{stroke:#a3a0fb;}.f,.g,.i,.j{stroke-width:2px;}.g,.j{fill:#fff;}.g{stroke:#a4a1fb;}.h{fill:url(#f);}.i{stroke:#54d8ff;}.j{stroke:#55d8fe;}.k{stroke:none;}</style><linearGradient id="a" y1="1" x2="1" gradientUnits="objectBoundingBox"><stop offset="0" stop-color="#5c6ccd"/><stop offset="1" stop-color="#5753b5"/></linearGradient><linearGradient id="b" x1="0.264" y1="0.115" x2="0.661" y2="1.877" gradientUnits="objectBoundingBox"><stop offset="0" stop-color="#0969b0"/><stop offset="1" stop-color="#000306"/></linearGradient><clipPath id="c"><rect class="a" width="1440" height="994" transform="translate(0 305)"/></clipPath><linearGradient id="d" x1="0.5" x2="0.5" y2="1" gradientUnits="objectBoundingBox"><stop offset="0" stop-color="#a7a7ff"/><stop offset="1" stop-color="#fff" stop-opacity="0"/></linearGradient><linearGradient id="f" x1="0.5" x2="0.5" y2="1" gradientUnits="objectBoundingBox"><stop offset="0" stop-color="#54d8ff"/><stop offset="1" stop-color="#fff" stop-opacity="0"/></linearGradient></defs><g transform="translate(0 -305)"><rect class="b" width="1440" height="994" transform="translate(0 305)"/><g class="c"><g class="d" transform="translate(-986.853 384.468)"><path class="e" d="M330,928.586V633.373s555.307,193.634,999,205.795c479.771-11.786,562.848-94.654,936.554-205.795,319.348-92.637,637.823-118.062,943.5-111.516s570.623,106.617,931.7,116.872c636.983-41.317,961.973-250.207,1005.009-337.453v737.1L330,1038.705Z" transform="translate(-330 -297.834)"/><path class="f" d="M313,581.552S864.722,779.8,1300.953,784.07s603.788-102.3,937.912-202.255,651.762-117.008,944.2-113.648,576.721,108.1,936.035,113.659S5059.707,400.776,5124.346,245.24" transform="translate(-308.58 -245.24)"/><g class="g" transform="translate(1909.116 321.366)"><circle class="k" cx="11.033" cy="11.033" r="11.033"/><circle class="l" cx="11.033" cy="11.033" r="10.033"/></g><g class="g" transform="translate(1271.035 505.02)"><circle class="k" cx="11.033" cy="11.033" r="11.033"/><circle class="l" cx="11.033" cy="11.033" r="10.033"/></g></g><g class="d" transform="translate(-1215.453 699.747)"><path class="e" d="M330,928.586V633.373s555.307,193.634,999,205.795c479.771-11.786,562.848-94.654,936.554-205.795,319.348-92.637,637.823-118.062,943.5-111.516s570.623,106.617,931.7,116.872c636.983-41.317,961.973-250.207,1005.009-337.453v737.1L330,1038.705Z" transform="translate(-330 -297.834)"/><path class="f" d="M313,581.552S864.722,779.8,1300.953,784.07s603.788-102.3,937.912-202.255,651.762-117.008,944.2-113.648,576.721,108.1,936.035,113.659S5059.707,400.776,5124.346,245.24" transform="translate(-308.58 -245.24)"/><g class="g" transform="translate(1909.116 321.366)"><circle class="k" cx="11.033" cy="11.033" r="11.033"/><circle class="l" cx="11.033" cy="11.033" r="10.033"/></g></g><g class="d" transform="translate(-1267.739 414.645)"><path class="h" d="M330,805.222v-450.8s541.992,448.19,987.214,465.057c496.758-3.8,500.83-232.672,937.351-357.967,365.443-98.38,644.295,169.982,949.973,176.528s516.641-183.924,933.679-197.157c540.322,19.928,973.891,274.4,1007.536,288.086V915.014L330,915.342Z" transform="translate(-327.015 -354.422)"/><path class="i" d="M312.953,279.164s558.861,456.449,995.633,460.717,586.132-268.939,936.826-361.046,654.923,175.69,947.719,179.05,573.13-201.19,932.889-195.631S4897.1,522.545,5124.491,644.6" transform="translate(-312.953 -275.345)"/><g class="j" transform="translate(3780.541 69.699)"><circle class="k" cx="11.033" cy="11.033" r="11.033"/><circle class="l" cx="11.033" cy="11.033" r="10.033"/></g><g class="j" transform="translate(2054.053 68.581)"><circle class="k" cx="11.033" cy="11.033" r="11.033"/><circle class="l" cx="11.033" cy="11.033" r="10.033"/></g></g><g class="d" transform="translate(-1812.642 563.945)"><path class="h" d="M330,805.222v-450.8s541.992,448.19,987.214,465.057c496.758-3.8,500.83-232.672,937.351-357.967,365.443-98.38,644.295,169.982,949.973,176.528s516.641-183.924,933.679-197.157c540.322,19.928,973.891,274.4,1007.536,288.086V915.014L330,915.342Z" transform="translate(-328.815 -354.422)"/><path class="i" d="M312.953,279.164s558.861,456.449,995.633,460.717,586.132-268.939,936.826-361.046,654.923,175.69,947.719,179.05,573.13-201.19,932.889-195.631S4897.1,522.545,5124.491,644.6" transform="translate(-312.953 -275.345)"/><g class="j" transform="translate(3036.619 246.711)"><circle class="k" cx="11.033" cy="11.033" r="11.033"/><circle class="l" cx="11.033" cy="11.033" r="10.033"/></g><g class="j" transform="translate(1905.847 86.306)"><circle class="k" cx="11.033" cy="11.033" r="11.033"/><circle class="l" cx="11.033" cy="11.033" r="10.033"/></g></g></g></g></svg>