<?xml version="1.0" encoding="UTF-8"?>
<svg width="385px" height="203px" viewBox="0 0 385 203" version="1.1" xmlns="http://www.w3.org/2000/svg" xmlns:xlink="http://www.w3.org/1999/xlink">
    <title>Clients</title>
    <defs>
        <rect id="path-1" x="10" y="36" width="116.292777" height="154" rx="2"></rect>
        <filter x="-6.0%" y="-3.2%" width="112.0%" height="109.1%" filterUnits="objectBoundingBox" id="filter-2">
            <feOffset dx="0" dy="2" in="SourceAlpha" result="shadowOffsetOuter1"></feOffset>
            <feGaussianBlur stdDeviation="2" in="shadowOffsetOuter1" result="shadowBlurOuter1"></feGaussianBlur>
            <feColorMatrix values="0 0 0 0 0   0 0 0 0 0   0 0 0 0 0  0 0 0 0.214143766 0" type="matrix" in="shadowBlurOuter1"></feColorMatrix>
        </filter>
        <rect id="path-3" x="261" y="36" width="116.292777" height="154" rx="2"></rect>
        <filter x="-6.0%" y="-3.2%" width="112.0%" height="109.1%" filterUnits="objectBoundingBox" id="filter-4">
            <feOffset dx="0" dy="2" in="SourceAlpha" result="shadowOffsetOuter1"></feOffset>
            <feGaussianBlur stdDeviation="2" in="shadowOffsetOuter1" result="shadowBlurOuter1"></feGaussianBlur>
            <feColorMatrix values="0 0 0 0 0   0 0 0 0 0   0 0 0 0 0  0 0 0 0.214143766 0" type="matrix" in="shadowBlurOuter1"></feColorMatrix>
        </filter>
        <rect id="path-5" x="134" y="36" width="116.292777" height="154" rx="2"></rect>
        <filter x="-6.0%" y="-3.2%" width="112.0%" height="109.1%" filterUnits="objectBoundingBox" id="filter-6">
            <feOffset dx="0" dy="2" in="SourceAlpha" result="shadowOffsetOuter1"></feOffset>
            <feGaussianBlur stdDeviation="2" in="shadowOffsetOuter1" result="shadowBlurOuter1"></feGaussianBlur>
            <feColorMatrix values="0 0 0 0 0   0 0 0 0 0   0 0 0 0 0  0 0 0 0.214143766 0" type="matrix" in="shadowBlurOuter1"></feColorMatrix>
        </filter>
    </defs>
    <g id="Clients" stroke="none" stroke-width="1" fill="none" fill-rule="evenodd">
        <rect id="Rectangle" stroke="#E7E7E7" fill="#FFFFFF" x="0.5" y="0.5" width="384" height="202" rx="4"></rect>
        <g id="Rectangle-Copy">
            <use fill="black" fill-opacity="1" filter="url(#filter-2)" xlink:href="#path-1"></use>
            <use fill="#FFFFFF" fill-rule="evenodd" xlink:href="#path-1"></use>
        </g>
        <g id="Rectangle-Copy-2">
            <use fill="black" fill-opacity="1" filter="url(#filter-4)" xlink:href="#path-3"></use>
            <use fill="#FFFFFF" fill-rule="evenodd" xlink:href="#path-3"></use>
        </g>
        <g id="Rectangle-Copy-3">
            <use fill="black" fill-opacity="1" filter="url(#filter-6)" xlink:href="#path-5"></use>
            <use fill="#FFFFFF" fill-rule="evenodd" xlink:href="#path-5"></use>
        </g>
        <line x1="0.535211268" y1="22.5487541" x2="384.197183" y2="22.5487541" id="Line" stroke="#0077CC" stroke-width="2"></line>
        <path d="M173.197183,8.58938245 L216.197183,8.58938245 C217.301753,8.58938245 218.197183,9.48481295 218.197183,10.5893824 L218.197183,22.5893824 L218.197183,22.5893824 L171.197183,22.5893824 L171.197183,10.5893824 C171.197183,9.48481295 172.092614,8.58938245 173.197183,8.58938245 Z" id="Rectangle-Copy-5" fill="#0077CC"></path>
        <rect id="Rectangle-Copy-7" fill-opacity="0.51436503" fill="#BFBDBF" x="140" y="11" width="26" height="6" rx="2"></rect>
        <rect id="Rectangle-Copy-8" fill-opacity="0.51436503" fill="#BFBDBF" x="234" y="11" width="26" height="6" rx="2"></rect>
        <rect id="Rectangle-Copy-9" fill-opacity="0.51436503" fill="#BFBDBF" x="312" y="11" width="42" height="6" rx="2"></rect>
        <rect id="Rectangle-Copy-12" fill-opacity="0.51436503" fill="#BFBDBF" x="10" y="11" width="42" height="6" rx="2"></rect>
        <rect id="Rectangle-Copy-11" fill-opacity="0.51436503" fill="#BFBDBF" x="303" y="11" width="6" height="6" rx="2"></rect>
        <rect id="Rectangle-Copy-10" fill-opacity="0.51436503" fill="#BFBDBF" x="365" y="9" width="10" height="10" rx="5"></rect>
        <g id="Managed-assets" transform="translate(21.761719, 49.000000)" fill="#0077CC" fill-rule="nonzero">
            <polygon id="Path" points="2.296875 0.46875 4.48828125 6.65625 6.66796875 0.46875 8.9765625 0.46875 8.9765625 9 7.21289062 9 7.21289062 6.66796875 7.38867188 2.64257812 5.0859375 9 3.87890625 9 1.58203125 2.6484375 1.7578125 6.66796875 1.7578125 9 0 9 0 0.46875"></polygon>
            <path d="M14.5742188,9 C14.4960938,8.84765625 14.4394531,8.65820312 14.4042969,8.43164062 C13.9941406,8.88867188 13.4609375,9.1171875 12.8046875,9.1171875 C12.1835938,9.1171875 11.6689453,8.9375 11.2607422,8.578125 C10.8525391,8.21875 10.6484375,7.765625 10.6484375,7.21875 C10.6484375,6.546875 10.8974609,6.03125 11.3955078,5.671875 C11.8935547,5.3125 12.6132812,5.13085938 13.5546875,5.12695312 L14.3339844,5.12695312 L14.3339844,4.76367188 C14.3339844,4.47070312 14.2587891,4.23632812 14.1083984,4.06054688 C13.9580078,3.88476562 13.7207031,3.796875 13.3964844,3.796875 C13.1113281,3.796875 12.8876953,3.86523438 12.7255859,4.00195312 C12.5634766,4.13867188 12.4824219,4.32617188 12.4824219,4.56445312 L10.7890625,4.56445312 C10.7890625,4.19726562 10.9023438,3.85742188 11.1289062,3.54492188 C11.3554688,3.23242188 11.6757812,2.98730469 12.0898438,2.80957031 C12.5039062,2.63183594 12.96875,2.54296875 13.484375,2.54296875 C14.265625,2.54296875 14.8857422,2.73925781 15.3447266,3.13183594 C15.8037109,3.52441406 16.0332031,4.07617188 16.0332031,4.78710938 L16.0332031,7.53515625 C16.0371094,8.13671875 16.1210938,8.59179688 16.2851562,8.90039062 L16.2851562,9 L14.5742188,9 Z M13.1738281,7.82226562 C13.4238281,7.82226562 13.6542969,7.76660156 13.8652344,7.65527344 C14.0761719,7.54394531 14.2324219,7.39453125 14.3339844,7.20703125 L14.3339844,6.1171875 L13.7011719,6.1171875 C12.8535156,6.1171875 12.4023438,6.41015625 12.3476562,6.99609375 L12.3417969,7.09570312 C12.3417969,7.30664062 12.4160156,7.48046875 12.5644531,7.6171875 C12.7128906,7.75390625 12.9160156,7.82226562 13.1738281,7.82226562 Z" id="Shape"></path>
            <path d="M19.3925781,2.66015625 L19.4453125,3.39257812 C19.8984375,2.82617188 20.5058594,2.54296875 21.2675781,2.54296875 C21.9394531,2.54296875 22.4394531,2.74023438 22.7675781,3.13476562 C23.0957031,3.52929688 23.2636719,4.11914062 23.2714844,4.90429688 L23.2714844,9 L21.578125,9 L21.578125,4.9453125 C21.578125,4.5859375 21.5,4.32519531 21.34375,4.16308594 C21.1875,4.00097656 20.9277344,3.91992188 20.5644531,3.91992188 C20.0878906,3.91992188 19.7304688,4.12304688 19.4921875,4.52929688 L19.4921875,9 L17.7988281,9 L17.7988281,2.66015625 L19.3925781,2.66015625 Z" id="Path"></path>
            <path d="M28.7285156,9 C28.6503906,8.84765625 28.59375,8.65820312 28.5585938,8.43164062 C28.1484375,8.88867188 27.6152344,9.1171875 26.9589844,9.1171875 C26.3378906,9.1171875 25.8232422,8.9375 25.4150391,8.578125 C25.0068359,8.21875 24.8027344,7.765625 24.8027344,7.21875 C24.8027344,6.546875 25.0517578,6.03125 25.5498047,5.671875 C26.0478516,5.3125 26.7675781,5.13085938 27.7089844,5.12695312 L28.4882812,5.12695312 L28.4882812,4.76367188 C28.4882812,4.47070312 28.4130859,4.23632812 28.2626953,4.06054688 C28.1123047,3.88476562 27.875,3.796875 27.5507812,3.796875 C27.265625,3.796875 27.0419922,3.86523438 26.8798828,4.00195312 C26.7177734,4.13867188 26.6367188,4.32617188 26.6367188,4.56445312 L24.9433594,4.56445312 C24.9433594,4.19726562 25.0566406,3.85742188 25.2832031,3.54492188 C25.5097656,3.23242188 25.8300781,2.98730469 26.2441406,2.80957031 C26.6582031,2.63183594 27.1230469,2.54296875 27.6386719,2.54296875 C28.4199219,2.54296875 29.0400391,2.73925781 29.4990234,3.13183594 C29.9580078,3.52441406 30.1875,4.07617188 30.1875,4.78710938 L30.1875,7.53515625 C30.1914062,8.13671875 30.2753906,8.59179688 30.4394531,8.90039062 L30.4394531,9 L28.7285156,9 Z M27.328125,7.82226562 C27.578125,7.82226562 27.8085938,7.76660156 28.0195312,7.65527344 C28.2304688,7.54394531 28.3867188,7.39453125 28.4882812,7.20703125 L28.4882812,6.1171875 L27.8554688,6.1171875 C27.0078125,6.1171875 26.5566406,6.41015625 26.5019531,6.99609375 L26.4960938,7.09570312 C26.4960938,7.30664062 26.5703125,7.48046875 26.71875,7.6171875 C26.8671875,7.75390625 27.0703125,7.82226562 27.328125,7.82226562 Z" id="Shape"></path>
            <path d="M31.7421875,5.78320312 C31.7421875,4.81054688 31.9736328,4.02734375 32.4365234,3.43359375 C32.8994141,2.83984375 33.5234375,2.54296875 34.3085938,2.54296875 C35.0039062,2.54296875 35.5449219,2.78125 35.9316406,3.2578125 L36.0019531,2.66015625 L37.5371094,2.66015625 L37.5371094,8.7890625 C37.5371094,9.34375 37.4111328,9.82617188 37.1591797,10.2363281 C36.9072266,10.6464844 36.5527344,10.9589844 36.0957031,11.1738281 C35.6386719,11.3886719 35.1035156,11.4960938 34.4902344,11.4960938 C34.0253906,11.4960938 33.5722656,11.4033203 33.1308594,11.2177734 C32.6894531,11.0322266 32.3554688,10.7929688 32.1289062,10.5 L32.8789062,9.46875 C33.3007812,9.94140625 33.8125,10.1777344 34.4140625,10.1777344 C34.8632812,10.1777344 35.2128906,10.0576172 35.4628906,9.81738281 C35.7128906,9.57714844 35.8378906,9.23632812 35.8378906,8.79492188 L35.8378906,8.45507812 C35.4472656,8.89648438 34.9335938,9.1171875 34.296875,9.1171875 C33.5351562,9.1171875 32.9189453,8.81933594 32.4482422,8.22363281 C31.9775391,7.62792969 31.7421875,6.83789062 31.7421875,5.85351562 L31.7421875,5.78320312 Z M33.4355469,5.90625 C33.4355469,6.48046875 33.5507812,6.93066406 33.78125,7.25683594 C34.0117188,7.58300781 34.328125,7.74609375 34.7304688,7.74609375 C35.2460938,7.74609375 35.6152344,7.55273438 35.8378906,7.16601562 L35.8378906,4.5 C35.6113281,4.11328125 35.2460938,3.91992188 34.7421875,3.91992188 C34.3359375,3.91992188 34.0166016,4.0859375 33.7841797,4.41796875 C33.5517578,4.75 33.4355469,5.24609375 33.4355469,5.90625 Z" id="Shape"></path>
            <path d="M42.2558594,9.1171875 C41.3261719,9.1171875 40.5693359,8.83203125 39.9853516,8.26171875 C39.4013672,7.69140625 39.109375,6.93164062 39.109375,5.98242188 L39.109375,5.81835938 C39.109375,5.18164062 39.2324219,4.61230469 39.4785156,4.11035156 C39.7246094,3.60839844 40.0732422,3.22167969 40.5244141,2.95019531 C40.9755859,2.67871094 41.4902344,2.54296875 42.0683594,2.54296875 C42.9355469,2.54296875 43.6181641,2.81640625 44.1162109,3.36328125 C44.6142578,3.91015625 44.8632812,4.68554688 44.8632812,5.68945312 L44.8632812,6.38085938 L40.8261719,6.38085938 C40.8808594,6.79492188 41.0458984,7.12695312 41.3212891,7.37695312 C41.5966797,7.62695312 41.9453125,7.75195312 42.3671875,7.75195312 C43.0195312,7.75195312 43.5292969,7.515625 43.8964844,7.04296875 L44.7285156,7.97460938 C44.4746094,8.33398438 44.1308594,8.61425781 43.6972656,8.81542969 C43.2636719,9.01660156 42.7832031,9.1171875 42.2558594,9.1171875 Z M42.0625,3.9140625 C41.7265625,3.9140625 41.4541016,4.02734375 41.2451172,4.25390625 C41.0361328,4.48046875 40.9023438,4.8046875 40.84375,5.2265625 L43.1992188,5.2265625 L43.1992188,5.09179688 C43.1914062,4.71679688 43.0898438,4.42675781 42.8945312,4.22167969 C42.6992188,4.01660156 42.421875,3.9140625 42.0625,3.9140625 Z" id="Shape"></path>
            <path d="M46.0605469,5.78320312 C46.0605469,4.79492188 46.2822266,4.0078125 46.7255859,3.421875 C47.1689453,2.8359375 47.7753906,2.54296875 48.5449219,2.54296875 C49.1621094,2.54296875 49.671875,2.7734375 50.0742188,3.234375 L50.0742188,0 L51.7734375,0 L51.7734375,9 L50.2441406,9 L50.1621094,8.32617188 C49.7402344,8.85351562 49.1972656,9.1171875 48.5332031,9.1171875 C47.7871094,9.1171875 47.1884766,8.82324219 46.7373047,8.23535156 C46.2861328,7.64746094 46.0605469,6.83007812 46.0605469,5.78320312 Z M47.7539062,5.90625 C47.7539062,6.5 47.8574219,6.95507812 48.0644531,7.27148438 C48.2714844,7.58789062 48.5722656,7.74609375 48.9667969,7.74609375 C49.4902344,7.74609375 49.859375,7.52539062 50.0742188,7.08398438 L50.0742188,4.58203125 C49.8632812,4.140625 49.4980469,3.91992188 48.9785156,3.91992188 C48.1621094,3.91992188 47.7539062,4.58203125 47.7539062,5.90625 Z" id="Shape"></path>
            <path d="M60.7480469,9 C60.6699219,8.84765625 60.6132812,8.65820312 60.578125,8.43164062 C60.1679688,8.88867188 59.6347656,9.1171875 58.9785156,9.1171875 C58.3574219,9.1171875 57.8427734,8.9375 57.4345703,8.578125 C57.0263672,8.21875 56.8222656,7.765625 56.8222656,7.21875 C56.8222656,6.546875 57.0712891,6.03125 57.5693359,5.671875 C58.0673828,5.3125 58.7871094,5.13085938 59.7285156,5.12695312 L60.5078125,5.12695312 L60.5078125,4.76367188 C60.5078125,4.47070312 60.4326172,4.23632812 60.2822266,4.06054688 C60.1318359,3.88476562 59.8945312,3.796875 59.5703125,3.796875 C59.2851562,3.796875 59.0615234,3.86523438 58.8994141,4.00195312 C58.7373047,4.13867188 58.65625,4.32617188 58.65625,4.56445312 L56.9628906,4.56445312 C56.9628906,4.19726562 57.0761719,3.85742188 57.3027344,3.54492188 C57.5292969,3.23242188 57.8496094,2.98730469 58.2636719,2.80957031 C58.6777344,2.63183594 59.1425781,2.54296875 59.6582031,2.54296875 C60.4394531,2.54296875 61.0595703,2.73925781 61.5185547,3.13183594 C61.9775391,3.52441406 62.2070312,4.07617188 62.2070312,4.78710938 L62.2070312,7.53515625 C62.2109375,8.13671875 62.2949219,8.59179688 62.4589844,8.90039062 L62.4589844,9 L60.7480469,9 Z M59.3476562,7.82226562 C59.5976562,7.82226562 59.828125,7.76660156 60.0390625,7.65527344 C60.25,7.54394531 60.40625,7.39453125 60.5078125,7.20703125 L60.5078125,6.1171875 L59.875,6.1171875 C59.0273438,6.1171875 58.5761719,6.41015625 58.5214844,6.99609375 L58.515625,7.09570312 C58.515625,7.30664062 58.5898438,7.48046875 58.7382812,7.6171875 C58.8867188,7.75390625 59.0898438,7.82226562 59.3476562,7.82226562 Z" id="Shape"></path>
            <path d="M67.4414062,7.24804688 C67.4414062,7.04101562 67.3388672,6.87792969 67.1337891,6.75878906 C66.9287109,6.63964844 66.5996094,6.53320312 66.1464844,6.43945312 C64.6386719,6.12304688 63.8847656,5.48242188 63.8847656,4.51757812 C63.8847656,3.95507812 64.1181641,3.48535156 64.5849609,3.10839844 C65.0517578,2.73144531 65.6621094,2.54296875 66.4160156,2.54296875 C67.2207031,2.54296875 67.8642578,2.73242188 68.3466797,3.11132812 C68.8291016,3.49023438 69.0703125,3.98242188 69.0703125,4.58789062 L67.3769531,4.58789062 C67.3769531,4.34570312 67.2988281,4.14550781 67.1425781,3.98730469 C66.9863281,3.82910156 66.7421875,3.75 66.4101562,3.75 C66.125,3.75 65.9042969,3.81445312 65.7480469,3.94335938 C65.5917969,4.07226562 65.5136719,4.23632812 65.5136719,4.43554688 C65.5136719,4.62304688 65.6025391,4.77441406 65.7802734,4.88964844 C65.9580078,5.00488281 66.2578125,5.10449219 66.6796875,5.18847656 C67.1015625,5.27246094 67.4570312,5.3671875 67.7460938,5.47265625 C68.640625,5.80078125 69.0878906,6.36914062 69.0878906,7.17773438 C69.0878906,7.75585938 68.8398438,8.22363281 68.34375,8.58105469 C67.8476562,8.93847656 67.2070312,9.1171875 66.421875,9.1171875 C65.890625,9.1171875 65.4189453,9.02246094 65.0068359,8.83300781 C64.5947266,8.64355469 64.2714844,8.38378906 64.0371094,8.05371094 C63.8027344,7.72363281 63.6855469,7.3671875 63.6855469,6.984375 L65.2910156,6.984375 C65.3066406,7.28515625 65.4179688,7.515625 65.625,7.67578125 C65.8320312,7.8359375 66.109375,7.91601562 66.4570312,7.91601562 C66.78125,7.91601562 67.0263672,7.85449219 67.1923828,7.73144531 C67.3583984,7.60839844 67.4414062,7.44726562 67.4414062,7.24804688 Z" id="Path"></path>
            <path d="M74.1113281,7.24804688 C74.1113281,7.04101562 74.0087891,6.87792969 73.8037109,6.75878906 C73.5986328,6.63964844 73.2695312,6.53320312 72.8164062,6.43945312 C71.3085938,6.12304688 70.5546875,5.48242188 70.5546875,4.51757812 C70.5546875,3.95507812 70.7880859,3.48535156 71.2548828,3.10839844 C71.7216797,2.73144531 72.3320312,2.54296875 73.0859375,2.54296875 C73.890625,2.54296875 74.5341797,2.73242188 75.0166016,3.11132812 C75.4990234,3.49023438 75.7402344,3.98242188 75.7402344,4.58789062 L74.046875,4.58789062 C74.046875,4.34570312 73.96875,4.14550781 73.8125,3.98730469 C73.65625,3.82910156 73.4121094,3.75 73.0800781,3.75 C72.7949219,3.75 72.5742188,3.81445312 72.4179688,3.94335938 C72.2617188,4.07226562 72.1835938,4.23632812 72.1835938,4.43554688 C72.1835938,4.62304688 72.2724609,4.77441406 72.4501953,4.88964844 C72.6279297,5.00488281 72.9277344,5.10449219 73.3496094,5.18847656 C73.7714844,5.27246094 74.1269531,5.3671875 74.4160156,5.47265625 C75.3105469,5.80078125 75.7578125,6.36914062 75.7578125,7.17773438 C75.7578125,7.75585938 75.5097656,8.22363281 75.0136719,8.58105469 C74.5175781,8.93847656 73.8769531,9.1171875 73.0917969,9.1171875 C72.5605469,9.1171875 72.0888672,9.02246094 71.6767578,8.83300781 C71.2646484,8.64355469 70.9414062,8.38378906 70.7070312,8.05371094 C70.4726562,7.72363281 70.3554688,7.3671875 70.3554688,6.984375 L71.9609375,6.984375 C71.9765625,7.28515625 72.0878906,7.515625 72.2949219,7.67578125 C72.5019531,7.8359375 72.7792969,7.91601562 73.1269531,7.91601562 C73.4511719,7.91601562 73.6962891,7.85449219 73.8623047,7.73144531 C74.0283203,7.60839844 74.1113281,7.44726562 74.1113281,7.24804688 Z" id="Path"></path>
            <path d="M80.265625,9.1171875 C79.3359375,9.1171875 78.5791016,8.83203125 77.9951172,8.26171875 C77.4111328,7.69140625 77.1191406,6.93164062 77.1191406,5.98242188 L77.1191406,5.81835938 C77.1191406,5.18164062 77.2421875,4.61230469 77.4882812,4.11035156 C77.734375,3.60839844 78.0830078,3.22167969 78.5341797,2.95019531 C78.9853516,2.67871094 79.5,2.54296875 80.078125,2.54296875 C80.9453125,2.54296875 81.6279297,2.81640625 82.1259766,3.36328125 C82.6240234,3.91015625 82.8730469,4.68554688 82.8730469,5.68945312 L82.8730469,6.38085938 L78.8359375,6.38085938 C78.890625,6.79492188 79.0556641,7.12695312 79.3310547,7.37695312 C79.6064453,7.62695312 79.9550781,7.75195312 80.3769531,7.75195312 C81.0292969,7.75195312 81.5390625,7.515625 81.90625,7.04296875 L82.7382812,7.97460938 C82.484375,8.33398438 82.140625,8.61425781 81.7070312,8.81542969 C81.2734375,9.01660156 80.7929688,9.1171875 80.265625,9.1171875 Z M80.0722656,3.9140625 C79.7363281,3.9140625 79.4638672,4.02734375 79.2548828,4.25390625 C79.0458984,4.48046875 78.9121094,4.8046875 78.8535156,5.2265625 L81.2089844,5.2265625 L81.2089844,5.09179688 C81.2011719,4.71679688 81.0996094,4.42675781 80.9042969,4.22167969 C80.7089844,4.01660156 80.4316406,3.9140625 80.0722656,3.9140625 Z" id="Shape"></path>
            <path d="M86.3613281,1.1015625 L86.3613281,2.66015625 L87.4453125,2.66015625 L87.4453125,3.90234375 L86.3613281,3.90234375 L86.3613281,7.06640625 C86.3613281,7.30078125 86.40625,7.46875 86.4960938,7.5703125 C86.5859375,7.671875 86.7578125,7.72265625 87.0117188,7.72265625 C87.1992188,7.72265625 87.3652344,7.70898438 87.5097656,7.68164062 L87.5097656,8.96484375 C87.1777344,9.06640625 86.8359375,9.1171875 86.484375,9.1171875 C85.296875,9.1171875 84.6914062,8.51757812 84.6679688,7.31835938 L84.6679688,3.90234375 L83.7421875,3.90234375 L83.7421875,2.66015625 L84.6679688,2.66015625 L84.6679688,1.1015625 L86.3613281,1.1015625 Z" id="Path"></path>
            <path d="M92.3222656,7.24804688 C92.3222656,7.04101562 92.2197266,6.87792969 92.0146484,6.75878906 C91.8095703,6.63964844 91.4804688,6.53320312 91.0273438,6.43945312 C89.5195312,6.12304688 88.765625,5.48242188 88.765625,4.51757812 C88.765625,3.95507812 88.9990234,3.48535156 89.4658203,3.10839844 C89.9326172,2.73144531 90.5429688,2.54296875 91.296875,2.54296875 C92.1015625,2.54296875 92.7451172,2.73242188 93.2275391,3.11132812 C93.7099609,3.49023438 93.9511719,3.98242188 93.9511719,4.58789062 L92.2578125,4.58789062 C92.2578125,4.34570312 92.1796875,4.14550781 92.0234375,3.98730469 C91.8671875,3.82910156 91.6230469,3.75 91.2910156,3.75 C91.0058594,3.75 90.7851562,3.81445312 90.6289062,3.94335938 C90.4726562,4.07226562 90.3945312,4.23632812 90.3945312,4.43554688 C90.3945312,4.62304688 90.4833984,4.77441406 90.6611328,4.88964844 C90.8388672,5.00488281 91.1386719,5.10449219 91.5605469,5.18847656 C91.9824219,5.27246094 92.3378906,5.3671875 92.6269531,5.47265625 C93.5214844,5.80078125 93.96875,6.36914062 93.96875,7.17773438 C93.96875,7.75585938 93.7207031,8.22363281 93.2246094,8.58105469 C92.7285156,8.93847656 92.0878906,9.1171875 91.3027344,9.1171875 C90.7714844,9.1171875 90.2998047,9.02246094 89.8876953,8.83300781 C89.4755859,8.64355469 89.1523438,8.38378906 88.9179688,8.05371094 C88.6835938,7.72363281 88.5664062,7.3671875 88.5664062,6.984375 L90.171875,6.984375 C90.1875,7.28515625 90.2988281,7.515625 90.5058594,7.67578125 C90.7128906,7.8359375 90.9902344,7.91601562 91.3378906,7.91601562 C91.6621094,7.91601562 91.9072266,7.85449219 92.0732422,7.73144531 C92.2392578,7.60839844 92.3222656,7.44726562 92.3222656,7.24804688 Z" id="Path"></path>
        </g>
        <text font-family="Roboto-Bold, Roboto" font-size="9" font-weight="bold" letter-spacing="0.8" fill="#FFFFFF">
            <tspan x="179" y="19">Clients</tspan>
        </text>
        <g id="Company-information" transform="translate(141.503906, 49.351562)" fill="#0077CC" fill-rule="nonzero">
            <path d="M6.95507812,5.80664062 C6.88867188,6.72460938 6.54980469,7.44726562 5.93847656,7.97460938 C5.32714844,8.50195312 4.52148438,8.765625 3.52148438,8.765625 C2.42773438,8.765625 1.56738281,8.39746094 0.940429688,7.66113281 C0.313476562,6.92480469 0,5.9140625 0,4.62890625 L0,4.10742188 C0,3.28710938 0.14453125,2.56445312 0.43359375,1.93945312 C0.72265625,1.31445312 1.13574219,0.834960938 1.67285156,0.500976562 C2.20996094,0.166992188 2.83398438,0 3.54492187,0 C4.52929688,0 5.32226562,0.263671875 5.92382812,0.791015625 C6.52539062,1.31835938 6.87304688,2.05859375 6.96679688,3.01171875 L5.20898438,3.01171875 C5.16601562,2.4609375 5.01269531,2.06152344 4.74902344,1.81347656 C4.48535156,1.56542969 4.08398438,1.44140625 3.54492187,1.44140625 C2.95898438,1.44140625 2.52050781,1.65136719 2.22949219,2.07128906 C1.93847656,2.49121094 1.7890625,3.14257812 1.78125,4.02539062 L1.78125,4.66992188 C1.78125,5.59179688 1.92089844,6.265625 2.20019531,6.69140625 C2.47949219,7.1171875 2.91992188,7.33007812 3.52148438,7.33007812 C4.06445312,7.33007812 4.46972656,7.20605469 4.73730469,6.95800781 C5.00488281,6.70996094 5.15820312,6.32617188 5.19726562,5.80664062 L6.95507812,5.80664062 Z" id="Path"></path>
            <path d="M8.234375,5.41992188 C8.234375,4.79101562 8.35546875,4.23046875 8.59765625,3.73828125 C8.83984375,3.24609375 9.18847656,2.86523438 9.64355469,2.59570312 C10.0986328,2.32617188 10.6269531,2.19140625 11.2285156,2.19140625 C12.0839844,2.19140625 12.7822266,2.453125 13.3232422,2.9765625 C13.8642578,3.5 14.1660156,4.2109375 14.2285156,5.109375 L14.2402344,5.54296875 C14.2402344,6.515625 13.96875,7.29589844 13.4257812,7.88378906 C12.8828125,8.47167969 12.1542969,8.765625 11.2402344,8.765625 C10.3261719,8.765625 9.59667969,8.47265625 9.05175781,7.88671875 C8.50683594,7.30078125 8.234375,6.50390625 8.234375,5.49609375 L8.234375,5.41992188 Z M9.92773438,5.54296875 C9.92773438,6.14453125 10.0410156,6.60449219 10.2675781,6.92285156 C10.4941406,7.24121094 10.8183594,7.40039062 11.2402344,7.40039062 C11.6503906,7.40039062 11.9707031,7.24316406 12.2011719,6.92871094 C12.4316406,6.61425781 12.546875,6.11132812 12.546875,5.41992188 C12.546875,4.83007812 12.4316406,4.37304688 12.2011719,4.04882812 C11.9707031,3.72460938 11.6464844,3.5625 11.2285156,3.5625 C10.8144531,3.5625 10.4941406,3.72363281 10.2675781,4.04589844 C10.0410156,4.36816406 9.92773438,4.8671875 9.92773438,5.54296875 Z" id="Shape"></path>
            <path d="M17.3710938,2.30859375 L17.4238281,3.01757812 C17.8730469,2.46679688 18.4804688,2.19140625 19.2460938,2.19140625 C20.0625,2.19140625 20.6230469,2.51367188 20.9277344,3.15820312 C21.3730469,2.51367188 22.0078125,2.19140625 22.8320312,2.19140625 C23.5195312,2.19140625 24.03125,2.39160156 24.3671875,2.79199219 C24.703125,3.19238281 24.8710938,3.79492188 24.8710938,4.59960938 L24.8710938,8.6484375 L23.171875,8.6484375 L23.171875,4.60546875 C23.171875,4.24609375 23.1015625,3.98339844 22.9609375,3.81738281 C22.8203125,3.65136719 22.5722656,3.56835938 22.2167969,3.56835938 C21.7089844,3.56835938 21.3574219,3.81054688 21.1621094,4.29492188 L21.1679688,8.6484375 L19.4746094,8.6484375 L19.4746094,4.61132812 C19.4746094,4.24414062 19.4023438,3.97851562 19.2578125,3.81445312 C19.1132812,3.65039062 18.8671875,3.56835938 18.5195312,3.56835938 C18.0390625,3.56835938 17.6914062,3.76757812 17.4765625,4.16601562 L17.4765625,8.6484375 L15.7832031,8.6484375 L15.7832031,2.30859375 L17.3710938,2.30859375 Z" id="Path"></path>
            <path d="M32.3789062,5.53710938 C32.3789062,6.51367188 32.1572266,7.29589844 31.7138672,7.88378906 C31.2705078,8.47167969 30.671875,8.765625 29.9179688,8.765625 C29.2773438,8.765625 28.7597656,8.54296875 28.3652344,8.09765625 L28.3652344,11.0859375 L26.671875,11.0859375 L26.671875,2.30859375 L28.2421875,2.30859375 L28.3007812,2.9296875 C28.7109375,2.4375 29.2460938,2.19140625 29.90625,2.19140625 C30.6875,2.19140625 31.2949219,2.48046875 31.7285156,3.05859375 C32.1621094,3.63671875 32.3789062,4.43359375 32.3789062,5.44921875 L32.3789062,5.53710938 Z M30.6855469,5.4140625 C30.6855469,4.82421875 30.5810547,4.36914062 30.3720703,4.04882812 C30.1630859,3.72851562 29.859375,3.56835938 29.4609375,3.56835938 C28.9296875,3.56835938 28.5644531,3.77148438 28.3652344,4.17773438 L28.3652344,6.7734375 C28.5722656,7.19140625 28.9414062,7.40039062 29.4726562,7.40039062 C30.28125,7.40039062 30.6855469,6.73828125 30.6855469,5.4140625 Z" id="Shape"></path>
            <path d="M37.6015625,8.6484375 C37.5234375,8.49609375 37.4667969,8.30664062 37.4316406,8.08007812 C37.0214844,8.53710938 36.4882812,8.765625 35.8320312,8.765625 C35.2109375,8.765625 34.6962891,8.5859375 34.2880859,8.2265625 C33.8798828,7.8671875 33.6757812,7.4140625 33.6757812,6.8671875 C33.6757812,6.1953125 33.9248047,5.6796875 34.4228516,5.3203125 C34.9208984,4.9609375 35.640625,4.77929688 36.5820312,4.77539062 L37.3613281,4.77539062 L37.3613281,4.41210938 C37.3613281,4.11914062 37.2861328,3.88476562 37.1357422,3.70898438 C36.9853516,3.53320312 36.7480469,3.4453125 36.4238281,3.4453125 C36.1386719,3.4453125 35.9150391,3.51367188 35.7529297,3.65039062 C35.5908203,3.78710938 35.5097656,3.97460938 35.5097656,4.21289062 L33.8164062,4.21289062 C33.8164062,3.84570312 33.9296875,3.50585938 34.15625,3.19335938 C34.3828125,2.88085938 34.703125,2.63574219 35.1171875,2.45800781 C35.53125,2.28027344 35.9960938,2.19140625 36.5117188,2.19140625 C37.2929688,2.19140625 37.9130859,2.38769531 38.3720703,2.78027344 C38.8310547,3.17285156 39.0605469,3.72460938 39.0605469,4.43554688 L39.0605469,7.18359375 C39.0644531,7.78515625 39.1484375,8.24023438 39.3125,8.54882812 L39.3125,8.6484375 L37.6015625,8.6484375 Z M36.2011719,7.47070312 C36.4511719,7.47070312 36.6816406,7.41503906 36.8925781,7.30371094 C37.1035156,7.19238281 37.2597656,7.04296875 37.3613281,6.85546875 L37.3613281,5.765625 L36.7285156,5.765625 C35.8808594,5.765625 35.4296875,6.05859375 35.375,6.64453125 L35.3691406,6.74414062 C35.3691406,6.95507812 35.4433594,7.12890625 35.5917969,7.265625 C35.7402344,7.40234375 35.9433594,7.47070312 36.2011719,7.47070312 Z" id="Shape"></path>
            <path d="M42.4199219,2.30859375 L42.4726562,3.04101562 C42.9257812,2.47460938 43.5332031,2.19140625 44.2949219,2.19140625 C44.9667969,2.19140625 45.4667969,2.38867188 45.7949219,2.78320312 C46.1230469,3.17773438 46.2910156,3.76757812 46.2988281,4.55273438 L46.2988281,8.6484375 L44.6054688,8.6484375 L44.6054688,4.59375 C44.6054688,4.234375 44.5273438,3.97363281 44.3710938,3.81152344 C44.2148438,3.64941406 43.9550781,3.56835938 43.5917969,3.56835938 C43.1152344,3.56835938 42.7578125,3.77148438 42.5195312,4.17773438 L42.5195312,8.6484375 L40.8261719,8.6484375 L40.8261719,2.30859375 L42.4199219,2.30859375 Z" id="Path"></path>
            <path d="M50.4492188,6.25195312 L51.6210938,2.30859375 L53.4375,2.30859375 L50.8886719,9.6328125 L50.7480469,9.96679688 C50.3691406,10.7949219 49.7441406,11.2089844 48.8730469,11.2089844 C48.6269531,11.2089844 48.3769531,11.171875 48.1230469,11.0976562 L48.1230469,9.81445312 L48.3808594,9.8203125 C48.7011719,9.8203125 48.9404297,9.77148438 49.0986328,9.67382812 C49.2568359,9.57617188 49.3808594,9.4140625 49.4707031,9.1875 L49.6699219,8.66601562 L47.4492188,2.30859375 L49.2714844,2.30859375 L50.4492188,6.25195312 Z" id="Path"></path>
            <path d="M1.93359375,22.6484375 L0.234375,22.6484375 L0.234375,16.3085938 L1.93359375,16.3085938 L1.93359375,22.6484375 Z M0.134765625,14.6679688 C0.134765625,14.4140625 0.219726562,14.2050781 0.389648438,14.0410156 C0.559570312,13.8769531 0.791015625,13.7949219 1.08398438,13.7949219 C1.37304688,13.7949219 1.60351562,13.8769531 1.77539062,14.0410156 C1.94726562,14.2050781 2.03320312,14.4140625 2.03320312,14.6679688 C2.03320312,14.9257812 1.94628906,15.1367188 1.77246094,15.3007812 C1.59863281,15.4648438 1.36914062,15.546875 1.08398438,15.546875 C0.798828125,15.546875 0.569335938,15.4648438 0.395507812,15.3007812 C0.221679688,15.1367188 0.134765625,14.9257812 0.134765625,14.6679688 Z" id="Shape"></path>
            <path d="M5.38671875,16.3085938 L5.43945312,17.0410156 C5.89257812,16.4746094 6.5,16.1914062 7.26171875,16.1914062 C7.93359375,16.1914062 8.43359375,16.3886719 8.76171875,16.7832031 C9.08984375,17.1777344 9.2578125,17.7675781 9.265625,18.5527344 L9.265625,22.6484375 L7.57226562,22.6484375 L7.57226562,18.59375 C7.57226562,18.234375 7.49414062,17.9736328 7.33789062,17.8115234 C7.18164062,17.6494141 6.921875,17.5683594 6.55859375,17.5683594 C6.08203125,17.5683594 5.72460938,17.7714844 5.48632812,18.1777344 L5.48632812,22.6484375 L3.79296875,22.6484375 L3.79296875,16.3085938 L5.38671875,16.3085938 Z" id="Path"></path>
            <path d="M11.5117188,22.6484375 L11.5117188,17.5507812 L10.5683594,17.5507812 L10.5683594,16.3085938 L11.5117188,16.3085938 L11.5117188,15.7695312 C11.5117188,15.0585938 11.7158203,14.5068359 12.1240234,14.1142578 C12.5322266,13.7216797 13.1035156,13.5253906 13.8378906,13.5253906 C14.0722656,13.5253906 14.359375,13.5644531 14.6992188,13.6425781 L14.6816406,14.9550781 C14.5410156,14.9199219 14.3691406,14.9023438 14.1660156,14.9023438 C13.5292969,14.9023438 13.2109375,15.2011719 13.2109375,15.7988281 L13.2109375,16.3085938 L14.4707031,16.3085938 L14.4707031,17.5507812 L13.2109375,17.5507812 L13.2109375,22.6484375 L11.5117188,22.6484375 Z" id="Path"></path>
            <path d="M15.5859375,19.4199219 C15.5859375,18.7910156 15.7070312,18.2304688 15.9492188,17.7382812 C16.1914062,17.2460938 16.5400391,16.8652344 16.9951172,16.5957031 C17.4501953,16.3261719 17.9785156,16.1914062 18.5800781,16.1914062 C19.4355469,16.1914062 20.1337891,16.453125 20.6748047,16.9765625 C21.2158203,17.5 21.5175781,18.2109375 21.5800781,19.109375 L21.5917969,19.5429688 C21.5917969,20.515625 21.3203125,21.2958984 20.7773438,21.8837891 C20.234375,22.4716797 19.5058594,22.765625 18.5917969,22.765625 C17.6777344,22.765625 16.9482422,22.4726562 16.4033203,21.8867188 C15.8583984,21.3007812 15.5859375,20.5039062 15.5859375,19.4960938 L15.5859375,19.4199219 Z M17.2792969,19.5429688 C17.2792969,20.1445312 17.3925781,20.6044922 17.6191406,20.9228516 C17.8457031,21.2412109 18.1699219,21.4003906 18.5917969,21.4003906 C19.0019531,21.4003906 19.3222656,21.2431641 19.5527344,20.9287109 C19.7832031,20.6142578 19.8984375,20.1113281 19.8984375,19.4199219 C19.8984375,18.8300781 19.7832031,18.3730469 19.5527344,18.0488281 C19.3222656,17.7246094 18.9980469,17.5625 18.5800781,17.5625 C18.1660156,17.5625 17.8457031,17.7236328 17.6191406,18.0458984 C17.3925781,18.3681641 17.2792969,18.8671875 17.2792969,19.5429688 Z" id="Shape"></path>
            <path d="M26.6972656,17.8964844 C26.4667969,17.8652344 26.2636719,17.8496094 26.0878906,17.8496094 C25.4472656,17.8496094 25.0273438,18.0664062 24.828125,18.5 L24.828125,22.6484375 L23.1347656,22.6484375 L23.1347656,16.3085938 L24.734375,16.3085938 L24.78125,17.0644531 C25.1210938,16.4824219 25.5917969,16.1914062 26.1933594,16.1914062 C26.3808594,16.1914062 26.5566406,16.2167969 26.7207031,16.2675781 L26.6972656,17.8964844 Z" id="Path"></path>
            <path d="M29.5996094,16.3085938 L29.6523438,17.0175781 C30.1015625,16.4667969 30.7089844,16.1914062 31.4746094,16.1914062 C32.2910156,16.1914062 32.8515625,16.5136719 33.15625,17.1582031 C33.6015625,16.5136719 34.2363281,16.1914062 35.0605469,16.1914062 C35.7480469,16.1914062 36.2597656,16.3916016 36.5957031,16.7919922 C36.9316406,17.1923828 37.0996094,17.7949219 37.0996094,18.5996094 L37.0996094,22.6484375 L35.4003906,22.6484375 L35.4003906,18.6054688 C35.4003906,18.2460938 35.3300781,17.9833984 35.1894531,17.8173828 C35.0488281,17.6513672 34.8007812,17.5683594 34.4453125,17.5683594 C33.9375,17.5683594 33.5859375,17.8105469 33.390625,18.2949219 L33.3964844,22.6484375 L31.703125,22.6484375 L31.703125,18.6113281 C31.703125,18.2441406 31.6308594,17.9785156 31.4863281,17.8144531 C31.3417969,17.6503906 31.0957031,17.5683594 30.7480469,17.5683594 C30.2675781,17.5683594 29.9199219,17.7675781 29.7050781,18.1660156 L29.7050781,22.6484375 L28.0117188,22.6484375 L28.0117188,16.3085938 L29.5996094,16.3085938 Z" id="Path"></path>
            <path d="M42.5742188,22.6484375 C42.4960938,22.4960938 42.4394531,22.3066406 42.4042969,22.0800781 C41.9941406,22.5371094 41.4609375,22.765625 40.8046875,22.765625 C40.1835938,22.765625 39.6689453,22.5859375 39.2607422,22.2265625 C38.8525391,21.8671875 38.6484375,21.4140625 38.6484375,20.8671875 C38.6484375,20.1953125 38.8974609,19.6796875 39.3955078,19.3203125 C39.8935547,18.9609375 40.6132812,18.7792969 41.5546875,18.7753906 L42.3339844,18.7753906 L42.3339844,18.4121094 C42.3339844,18.1191406 42.2587891,17.8847656 42.1083984,17.7089844 C41.9580078,17.5332031 41.7207031,17.4453125 41.3964844,17.4453125 C41.1113281,17.4453125 40.8876953,17.5136719 40.7255859,17.6503906 C40.5634766,17.7871094 40.4824219,17.9746094 40.4824219,18.2128906 L38.7890625,18.2128906 C38.7890625,17.8457031 38.9023438,17.5058594 39.1289062,17.1933594 C39.3554688,16.8808594 39.6757812,16.6357422 40.0898438,16.4580078 C40.5039062,16.2802734 40.96875,16.1914062 41.484375,16.1914062 C42.265625,16.1914062 42.8857422,16.3876953 43.3447266,16.7802734 C43.8037109,17.1728516 44.0332031,17.7246094 44.0332031,18.4355469 L44.0332031,21.1835938 C44.0371094,21.7851562 44.1210938,22.2402344 44.2851562,22.5488281 L44.2851562,22.6484375 L42.5742188,22.6484375 Z M41.1738281,21.4707031 C41.4238281,21.4707031 41.6542969,21.4150391 41.8652344,21.3037109 C42.0761719,21.1923828 42.2324219,21.0429688 42.3339844,20.8554688 L42.3339844,19.765625 L41.7011719,19.765625 C40.8535156,19.765625 40.4023438,20.0585938 40.3476562,20.6445312 L40.3417969,20.7441406 C40.3417969,20.9550781 40.4160156,21.1289062 40.5644531,21.265625 C40.7128906,21.4023438 40.9160156,21.4707031 41.1738281,21.4707031 Z" id="Shape"></path>
            <path d="M47.8613281,14.75 L47.8613281,16.3085938 L48.9453125,16.3085938 L48.9453125,17.5507812 L47.8613281,17.5507812 L47.8613281,20.7148438 C47.8613281,20.9492188 47.90625,21.1171875 47.9960938,21.21875 C48.0859375,21.3203125 48.2578125,21.3710938 48.5117188,21.3710938 C48.6992188,21.3710938 48.8652344,21.3574219 49.0097656,21.3300781 L49.0097656,22.6132812 C48.6777344,22.7148438 48.3359375,22.765625 47.984375,22.765625 C46.796875,22.765625 46.1914062,22.1660156 46.1679688,20.9667969 L46.1679688,17.5507812 L45.2421875,17.5507812 L45.2421875,16.3085938 L46.1679688,16.3085938 L46.1679688,14.75 L47.8613281,14.75 Z" id="Path"></path>
            <path d="M52.1757812,22.6484375 L50.4765625,22.6484375 L50.4765625,16.3085938 L52.1757812,16.3085938 L52.1757812,22.6484375 Z M50.3769531,14.6679688 C50.3769531,14.4140625 50.4619141,14.2050781 50.6318359,14.0410156 C50.8017578,13.8769531 51.0332031,13.7949219 51.3261719,13.7949219 C51.6152344,13.7949219 51.8457031,13.8769531 52.0175781,14.0410156 C52.1894531,14.2050781 52.2753906,14.4140625 52.2753906,14.6679688 C52.2753906,14.9257812 52.1884766,15.1367188 52.0146484,15.3007812 C51.8408203,15.4648438 51.6113281,15.546875 51.3261719,15.546875 C51.0410156,15.546875 50.8115234,15.4648438 50.6376953,15.3007812 C50.4638672,15.1367188 50.3769531,14.9257812 50.3769531,14.6679688 Z" id="Shape"></path>
            <path d="M53.8066406,19.4199219 C53.8066406,18.7910156 53.9277344,18.2304688 54.1699219,17.7382812 C54.4121094,17.2460938 54.7607422,16.8652344 55.2158203,16.5957031 C55.6708984,16.3261719 56.1992188,16.1914062 56.8007812,16.1914062 C57.65625,16.1914062 58.3544922,16.453125 58.8955078,16.9765625 C59.4365234,17.5 59.7382812,18.2109375 59.8007812,19.109375 L59.8125,19.5429688 C59.8125,20.515625 59.5410156,21.2958984 58.9980469,21.8837891 C58.4550781,22.4716797 57.7265625,22.765625 56.8125,22.765625 C55.8984375,22.765625 55.1689453,22.4726562 54.6240234,21.8867188 C54.0791016,21.3007812 53.8066406,20.5039062 53.8066406,19.4960938 L53.8066406,19.4199219 Z M55.5,19.5429688 C55.5,20.1445312 55.6132812,20.6044922 55.8398438,20.9228516 C56.0664062,21.2412109 56.390625,21.4003906 56.8125,21.4003906 C57.2226562,21.4003906 57.5429688,21.2431641 57.7734375,20.9287109 C58.0039062,20.6142578 58.1191406,20.1113281 58.1191406,19.4199219 C58.1191406,18.8300781 58.0039062,18.3730469 57.7734375,18.0488281 C57.5429688,17.7246094 57.21875,17.5625 56.8007812,17.5625 C56.3867188,17.5625 56.0664062,17.7236328 55.8398438,18.0458984 C55.6132812,18.3681641 55.5,18.8671875 55.5,19.5429688 Z" id="Shape"></path>
            <path d="M62.9140625,16.3085938 L62.9667969,17.0410156 C63.4199219,16.4746094 64.0273438,16.1914062 64.7890625,16.1914062 C65.4609375,16.1914062 65.9609375,16.3886719 66.2890625,16.7832031 C66.6171875,17.1777344 66.7851562,17.7675781 66.7929688,18.5527344 L66.7929688,22.6484375 L65.0996094,22.6484375 L65.0996094,18.59375 C65.0996094,18.234375 65.0214844,17.9736328 64.8652344,17.8115234 C64.7089844,17.6494141 64.4492188,17.5683594 64.0859375,17.5683594 C63.609375,17.5683594 63.2519531,17.7714844 63.0136719,18.1777344 L63.0136719,22.6484375 L61.3203125,22.6484375 L61.3203125,16.3085938 L62.9140625,16.3085938 Z" id="Path"></path>
        </g>
        <g id="Participant-informat" transform="translate(268.638672, 49.146484)" fill="#0077CC" fill-rule="nonzero">
            <path d="M1.88085938,5.84765625 L1.88085938,8.85351562 L0.123046875,8.85351562 L0.123046875,0.322265625 L3.45117187,0.322265625 C4.09179688,0.322265625 4.65527344,0.439453125 5.14160156,0.673828125 C5.62792969,0.908203125 6.00195312,1.24121094 6.26367188,1.67285156 C6.52539062,2.10449219 6.65625,2.59570312 6.65625,3.14648438 C6.65625,3.98242188 6.37011719,4.64160156 5.79785156,5.12402344 C5.22558594,5.60644531 4.43359375,5.84765625 3.421875,5.84765625 L1.88085938,5.84765625 Z M1.88085938,4.42382812 L3.45117188,4.42382812 C3.91601562,4.42382812 4.27050781,4.31445312 4.51464844,4.09570312 C4.75878906,3.87695312 4.88085938,3.56445312 4.88085938,3.15820312 C4.88085938,2.74023438 4.7578125,2.40234375 4.51171875,2.14453125 C4.265625,1.88671875 3.92578125,1.75390625 3.4921875,1.74609375 L1.88085938,1.74609375 L1.88085938,4.42382812 Z" id="Shape"></path>
            <path d="M11.8613281,8.85351562 C11.7832031,8.70117188 11.7265625,8.51171875 11.6914062,8.28515625 C11.28125,8.7421875 10.7480469,8.97070312 10.0917969,8.97070312 C9.47070312,8.97070312 8.95605469,8.79101562 8.54785156,8.43164062 C8.13964844,8.07226562 7.93554688,7.61914062 7.93554688,7.07226562 C7.93554688,6.40039062 8.18457031,5.88476562 8.68261719,5.52539062 C9.18066406,5.16601562 9.90039062,4.984375 10.8417969,4.98046875 L11.6210938,4.98046875 L11.6210938,4.6171875 C11.6210938,4.32421875 11.5458984,4.08984375 11.3955078,3.9140625 C11.2451172,3.73828125 11.0078125,3.65039062 10.6835938,3.65039062 C10.3984375,3.65039062 10.1748047,3.71875 10.0126953,3.85546875 C9.85058594,3.9921875 9.76953125,4.1796875 9.76953125,4.41796875 L8.07617188,4.41796875 C8.07617188,4.05078125 8.18945312,3.7109375 8.41601562,3.3984375 C8.64257812,3.0859375 8.96289062,2.84082031 9.37695312,2.66308594 C9.79101562,2.48535156 10.2558594,2.39648438 10.7714844,2.39648438 C11.5527344,2.39648438 12.1728516,2.59277344 12.6318359,2.98535156 C13.0908203,3.37792969 13.3203125,3.9296875 13.3203125,4.640625 L13.3203125,7.38867188 C13.3242188,7.99023438 13.4082031,8.4453125 13.5722656,8.75390625 L13.5722656,8.85351562 L11.8613281,8.85351562 Z M10.4609375,7.67578125 C10.7109375,7.67578125 10.9414062,7.62011719 11.1523438,7.50878906 C11.3632812,7.39746094 11.5195312,7.24804688 11.6210938,7.06054688 L11.6210938,5.97070312 L10.9882812,5.97070312 C10.140625,5.97070312 9.68945312,6.26367188 9.63476562,6.84960938 L9.62890625,6.94921875 C9.62890625,7.16015625 9.703125,7.33398438 9.8515625,7.47070312 C10,7.60742188 10.203125,7.67578125 10.4609375,7.67578125 Z" id="Shape"></path>
            <path d="M18.6835938,4.1015625 C18.453125,4.0703125 18.25,4.0546875 18.0742188,4.0546875 C17.4335938,4.0546875 17.0136719,4.27148438 16.8144531,4.70507812 L16.8144531,8.85351562 L15.1210938,8.85351562 L15.1210938,2.51367188 L16.7207031,2.51367188 L16.7675781,3.26953125 C17.1074219,2.6875 17.578125,2.39648438 18.1796875,2.39648438 C18.3671875,2.39648438 18.5429688,2.421875 18.7070312,2.47265625 L18.6835938,4.1015625 Z" id="Path"></path>
            <path d="M22.3183594,0.955078125 L22.3183594,2.51367188 L23.4023438,2.51367188 L23.4023438,3.75585938 L22.3183594,3.75585938 L22.3183594,6.91992188 C22.3183594,7.15429688 22.3632812,7.32226562 22.453125,7.42382812 C22.5429688,7.52539062 22.7148438,7.57617188 22.96875,7.57617188 C23.15625,7.57617188 23.3222656,7.5625 23.4667969,7.53515625 L23.4667969,8.81835938 C23.1347656,8.91992188 22.7929688,8.97070312 22.4414062,8.97070312 C21.2539062,8.97070312 20.6484375,8.37109375 20.625,7.171875 L20.625,3.75585938 L19.6992188,3.75585938 L19.6992188,2.51367188 L20.625,2.51367188 L20.625,0.955078125 L22.3183594,0.955078125 Z" id="Path"></path>
            <path d="M26.6328125,8.85351562 L24.9335938,8.85351562 L24.9335938,2.51367188 L26.6328125,2.51367188 L26.6328125,8.85351562 Z M24.8339844,0.873046875 C24.8339844,0.619140625 24.9189453,0.41015625 25.0888672,0.24609375 C25.2587891,0.08203125 25.4902344,0 25.7832031,0 C26.0722656,0 26.3027344,0.08203125 26.4746094,0.24609375 C26.6464844,0.41015625 26.7324219,0.619140625 26.7324219,0.873046875 C26.7324219,1.13085938 26.6455078,1.34179688 26.4716797,1.50585938 C26.2978516,1.66992188 26.0683594,1.75195312 25.7832031,1.75195312 C25.4980469,1.75195312 25.2685547,1.66992188 25.0947266,1.50585938 C24.9208984,1.34179688 24.8339844,1.13085938 24.8339844,0.873046875 Z" id="Shape"></path>
            <path d="M31.1640625,7.60546875 C31.4765625,7.60546875 31.7304688,7.51953125 31.9257812,7.34765625 C32.1210938,7.17578125 32.2226562,6.94726562 32.2304688,6.66210938 L33.8183594,6.66210938 C33.8144531,7.09179688 33.6972656,7.48535156 33.4667969,7.84277344 C33.2363281,8.20019531 32.9208984,8.47753906 32.5205078,8.67480469 C32.1201172,8.87207031 31.6777344,8.97070312 31.1933594,8.97070312 C30.2871094,8.97070312 29.5722656,8.68261719 29.0488281,8.10644531 C28.5253906,7.53027344 28.2636719,6.734375 28.2636719,5.71875 L28.2636719,5.60742188 C28.2636719,4.63085938 28.5234375,3.8515625 29.0429688,3.26953125 C29.5625,2.6875 30.2753906,2.39648438 31.1816406,2.39648438 C31.9746094,2.39648438 32.6103516,2.62207031 33.0888672,3.07324219 C33.5673828,3.52441406 33.8105469,4.125 33.8183594,4.875 L32.2304688,4.875 C32.2226562,4.546875 32.1210938,4.28027344 31.9257812,4.07519531 C31.7304688,3.87011719 31.4726562,3.76757812 31.1523438,3.76757812 C30.7578125,3.76757812 30.4599609,3.91113281 30.2587891,4.19824219 C30.0576172,4.48535156 29.9570312,4.95117188 29.9570312,5.59570312 L29.9570312,5.77148438 C29.9570312,6.42382812 30.0566406,6.89257812 30.2558594,7.17773438 C30.4550781,7.46289062 30.7578125,7.60546875 31.1640625,7.60546875 Z" id="Path"></path>
            <path d="M37.0722656,8.85351562 L35.3730469,8.85351562 L35.3730469,2.51367188 L37.0722656,2.51367188 L37.0722656,8.85351562 Z M35.2734375,0.873046875 C35.2734375,0.619140625 35.3583984,0.41015625 35.5283203,0.24609375 C35.6982422,0.08203125 35.9296875,0 36.2226562,0 C36.5117188,0 36.7421875,0.08203125 36.9140625,0.24609375 C37.0859375,0.41015625 37.171875,0.619140625 37.171875,0.873046875 C37.171875,1.13085938 37.0849609,1.34179688 36.9111328,1.50585938 C36.7373047,1.66992188 36.5078125,1.75195312 36.2226562,1.75195312 C35.9375,1.75195312 35.7080078,1.66992188 35.5341797,1.50585938 C35.3603516,1.34179688 35.2734375,1.13085938 35.2734375,0.873046875 Z" id="Shape"></path>
            <path d="M44.6738281,5.7421875 C44.6738281,6.71875 44.4521484,7.50097656 44.0087891,8.08886719 C43.5654297,8.67675781 42.9667969,8.97070312 42.2128906,8.97070312 C41.5722656,8.97070312 41.0546875,8.74804688 40.6601562,8.30273438 L40.6601562,11.2910156 L38.9667969,11.2910156 L38.9667969,2.51367188 L40.5371094,2.51367188 L40.5957031,3.13476562 C41.0058594,2.64257812 41.5410156,2.39648438 42.2011719,2.39648438 C42.9824219,2.39648438 43.5898438,2.68554688 44.0234375,3.26367188 C44.4570312,3.84179688 44.6738281,4.63867188 44.6738281,5.65429688 L44.6738281,5.7421875 Z M42.9804688,5.61914062 C42.9804688,5.02929688 42.8759766,4.57421875 42.6669922,4.25390625 C42.4580078,3.93359375 42.1542969,3.7734375 41.7558594,3.7734375 C41.2246094,3.7734375 40.859375,3.9765625 40.6601562,4.3828125 L40.6601562,6.97851562 C40.8671875,7.39648438 41.2363281,7.60546875 41.7675781,7.60546875 C42.5761719,7.60546875 42.9804688,6.94335938 42.9804688,5.61914062 Z" id="Shape"></path>
            <path d="M49.8964844,8.85351562 C49.8183594,8.70117188 49.7617188,8.51171875 49.7265625,8.28515625 C49.3164062,8.7421875 48.7832031,8.97070312 48.1269531,8.97070312 C47.5058594,8.97070312 46.9912109,8.79101562 46.5830078,8.43164062 C46.1748047,8.07226562 45.9707031,7.61914062 45.9707031,7.07226562 C45.9707031,6.40039062 46.2197266,5.88476562 46.7177734,5.52539062 C47.2158203,5.16601562 47.9355469,4.984375 48.8769531,4.98046875 L49.65625,4.98046875 L49.65625,4.6171875 C49.65625,4.32421875 49.5810547,4.08984375 49.4306641,3.9140625 C49.2802734,3.73828125 49.0429688,3.65039062 48.71875,3.65039062 C48.4335938,3.65039062 48.2099609,3.71875 48.0478516,3.85546875 C47.8857422,3.9921875 47.8046875,4.1796875 47.8046875,4.41796875 L46.1113281,4.41796875 C46.1113281,4.05078125 46.2246094,3.7109375 46.4511719,3.3984375 C46.6777344,3.0859375 46.9980469,2.84082031 47.4121094,2.66308594 C47.8261719,2.48535156 48.2910156,2.39648438 48.8066406,2.39648438 C49.5878906,2.39648438 50.2080078,2.59277344 50.6669922,2.98535156 C51.1259766,3.37792969 51.3554688,3.9296875 51.3554688,4.640625 L51.3554688,7.38867188 C51.359375,7.99023438 51.4433594,8.4453125 51.6074219,8.75390625 L51.6074219,8.85351562 L49.8964844,8.85351562 Z M48.4960938,7.67578125 C48.7460938,7.67578125 48.9765625,7.62011719 49.1875,7.50878906 C49.3984375,7.39746094 49.5546875,7.24804688 49.65625,7.06054688 L49.65625,5.97070312 L49.0234375,5.97070312 C48.1757812,5.97070312 47.7246094,6.26367188 47.6699219,6.84960938 L47.6640625,6.94921875 C47.6640625,7.16015625 47.7382812,7.33398438 47.8867188,7.47070312 C48.0351562,7.60742188 48.2382812,7.67578125 48.4960938,7.67578125 Z" id="Shape"></path>
            <path d="M54.7148438,2.51367188 L54.7675781,3.24609375 C55.2207031,2.6796875 55.828125,2.39648438 56.5898438,2.39648438 C57.2617188,2.39648438 57.7617188,2.59375 58.0898438,2.98828125 C58.4179688,3.3828125 58.5859375,3.97265625 58.59375,4.7578125 L58.59375,8.85351562 L56.9003906,8.85351562 L56.9003906,4.79882812 C56.9003906,4.43945312 56.8222656,4.17871094 56.6660156,4.01660156 C56.5097656,3.85449219 56.25,3.7734375 55.8867188,3.7734375 C55.4101562,3.7734375 55.0527344,3.9765625 54.8144531,4.3828125 L54.8144531,8.85351562 L53.1210938,8.85351562 L53.1210938,2.51367188 L54.7148438,2.51367188 Z" id="Path"></path>
            <path d="M62.4042969,0.955078125 L62.4042969,2.51367188 L63.4882812,2.51367188 L63.4882812,3.75585938 L62.4042969,3.75585938 L62.4042969,6.91992188 C62.4042969,7.15429688 62.4492188,7.32226562 62.5390625,7.42382812 C62.6289062,7.52539062 62.8007812,7.57617188 63.0546875,7.57617188 C63.2421875,7.57617188 63.4082031,7.5625 63.5527344,7.53515625 L63.5527344,8.81835938 C63.2207031,8.91992188 62.8789062,8.97070312 62.5273438,8.97070312 C61.3398438,8.97070312 60.734375,8.37109375 60.7109375,7.171875 L60.7109375,3.75585938 L59.7851562,3.75585938 L59.7851562,2.51367188 L60.7109375,2.51367188 L60.7109375,0.955078125 L62.4042969,0.955078125 Z" id="Path"></path>
            <path d="M1.79882812,22.8535156 L0.099609375,22.8535156 L0.099609375,16.5136719 L1.79882812,16.5136719 L1.79882812,22.8535156 Z M0,14.8730469 C0,14.6191406 0.0849609375,14.4101562 0.254882812,14.2460938 C0.424804688,14.0820312 0.65625,14 0.94921875,14 C1.23828125,14 1.46875,14.0820312 1.640625,14.2460938 C1.8125,14.4101562 1.8984375,14.6191406 1.8984375,14.8730469 C1.8984375,15.1308594 1.81152344,15.3417969 1.63769531,15.5058594 C1.46386719,15.6699219 1.234375,15.7519531 0.94921875,15.7519531 C0.6640625,15.7519531 0.434570312,15.6699219 0.260742188,15.5058594 C0.0869140625,15.3417969 0,15.1308594 0,14.8730469 Z" id="Shape"></path>
            <path d="M5.25195312,16.5136719 L5.3046875,17.2460938 C5.7578125,16.6796875 6.36523438,16.3964844 7.12695312,16.3964844 C7.79882812,16.3964844 8.29882812,16.59375 8.62695312,16.9882812 C8.95507812,17.3828125 9.12304688,17.9726562 9.13085938,18.7578125 L9.13085938,22.8535156 L7.4375,22.8535156 L7.4375,18.7988281 C7.4375,18.4394531 7.359375,18.1787109 7.203125,18.0166016 C7.046875,17.8544922 6.78710938,17.7734375 6.42382812,17.7734375 C5.94726562,17.7734375 5.58984375,17.9765625 5.3515625,18.3828125 L5.3515625,22.8535156 L3.65820312,22.8535156 L3.65820312,16.5136719 L5.25195312,16.5136719 Z" id="Path"></path>
            <path d="M11.3769531,22.8535156 L11.3769531,17.7558594 L10.4335938,17.7558594 L10.4335938,16.5136719 L11.3769531,16.5136719 L11.3769531,15.9746094 C11.3769531,15.2636719 11.5810547,14.7119141 11.9892578,14.3193359 C12.3974609,13.9267578 12.96875,13.7304688 13.703125,13.7304688 C13.9375,13.7304688 14.2246094,13.7695312 14.5644531,13.8476562 L14.546875,15.1601562 C14.40625,15.125 14.234375,15.1074219 14.03125,15.1074219 C13.3945312,15.1074219 13.0761719,15.40625 13.0761719,16.0039062 L13.0761719,16.5136719 L14.3359375,16.5136719 L14.3359375,17.7558594 L13.0761719,17.7558594 L13.0761719,22.8535156 L11.3769531,22.8535156 Z" id="Path"></path>
            <path d="M15.4511719,19.625 C15.4511719,18.9960938 15.5722656,18.4355469 15.8144531,17.9433594 C16.0566406,17.4511719 16.4052734,17.0703125 16.8603516,16.8007812 C17.3154297,16.53125 17.84375,16.3964844 18.4453125,16.3964844 C19.3007812,16.3964844 19.9990234,16.6582031 20.5400391,17.1816406 C21.0810547,17.7050781 21.3828125,18.4160156 21.4453125,19.3144531 L21.4570312,19.7480469 C21.4570312,20.7207031 21.1855469,21.5009766 20.6425781,22.0888672 C20.0996094,22.6767578 19.3710938,22.9707031 18.4570312,22.9707031 C17.5429688,22.9707031 16.8134766,22.6777344 16.2685547,22.0917969 C15.7236328,21.5058594 15.4511719,20.7089844 15.4511719,19.7011719 L15.4511719,19.625 Z M17.1445312,19.7480469 C17.1445312,20.3496094 17.2578125,20.8095703 17.484375,21.1279297 C17.7109375,21.4462891 18.0351562,21.6054688 18.4570312,21.6054688 C18.8671875,21.6054688 19.1875,21.4482422 19.4179688,21.1337891 C19.6484375,20.8193359 19.7636719,20.3164062 19.7636719,19.625 C19.7636719,19.0351562 19.6484375,18.578125 19.4179688,18.2539062 C19.1875,17.9296875 18.8632812,17.7675781 18.4453125,17.7675781 C18.03125,17.7675781 17.7109375,17.9287109 17.484375,18.2509766 C17.2578125,18.5732422 17.1445312,19.0722656 17.1445312,19.7480469 Z" id="Shape"></path>
            <path d="M26.5625,18.1015625 C26.3320312,18.0703125 26.1289062,18.0546875 25.953125,18.0546875 C25.3125,18.0546875 24.8925781,18.2714844 24.6933594,18.7050781 L24.6933594,22.8535156 L23,22.8535156 L23,16.5136719 L24.5996094,16.5136719 L24.6464844,17.2695312 C24.9863281,16.6875 25.4570312,16.3964844 26.0585938,16.3964844 C26.2460938,16.3964844 26.421875,16.421875 26.5859375,16.4726562 L26.5625,18.1015625 Z" id="Path"></path>
            <path d="M29.4648438,16.5136719 L29.5175781,17.2226562 C29.9667969,16.671875 30.5742188,16.3964844 31.3398438,16.3964844 C32.15625,16.3964844 32.7167969,16.71875 33.0214844,17.3632812 C33.4667969,16.71875 34.1015625,16.3964844 34.9257812,16.3964844 C35.6132812,16.3964844 36.125,16.5966797 36.4609375,16.9970703 C36.796875,17.3974609 36.9648438,18 36.9648438,18.8046875 L36.9648438,22.8535156 L35.265625,22.8535156 L35.265625,18.8105469 C35.265625,18.4511719 35.1953125,18.1884766 35.0546875,18.0224609 C34.9140625,17.8564453 34.6660156,17.7734375 34.3105469,17.7734375 C33.8027344,17.7734375 33.4511719,18.015625 33.2558594,18.5 L33.2617188,22.8535156 L31.5683594,22.8535156 L31.5683594,18.8164062 C31.5683594,18.4492188 31.4960938,18.1835938 31.3515625,18.0195312 C31.2070312,17.8554688 30.9609375,17.7734375 30.6132812,17.7734375 C30.1328125,17.7734375 29.7851562,17.9726562 29.5703125,18.3710938 L29.5703125,22.8535156 L27.8769531,22.8535156 L27.8769531,16.5136719 L29.4648438,16.5136719 Z" id="Path"></path>
            <path d="M42.4394531,22.8535156 C42.3613281,22.7011719 42.3046875,22.5117188 42.2695312,22.2851562 C41.859375,22.7421875 41.3261719,22.9707031 40.6699219,22.9707031 C40.0488281,22.9707031 39.5341797,22.7910156 39.1259766,22.4316406 C38.7177734,22.0722656 38.5136719,21.6191406 38.5136719,21.0722656 C38.5136719,20.4003906 38.7626953,19.8847656 39.2607422,19.5253906 C39.7587891,19.1660156 40.4785156,18.984375 41.4199219,18.9804688 L42.1992188,18.9804688 L42.1992188,18.6171875 C42.1992188,18.3242188 42.1240234,18.0898438 41.9736328,17.9140625 C41.8232422,17.7382812 41.5859375,17.6503906 41.2617188,17.6503906 C40.9765625,17.6503906 40.7529297,17.71875 40.5908203,17.8554688 C40.4287109,17.9921875 40.3476562,18.1796875 40.3476562,18.4179688 L38.6542969,18.4179688 C38.6542969,18.0507812 38.7675781,17.7109375 38.9941406,17.3984375 C39.2207031,17.0859375 39.5410156,16.8408203 39.9550781,16.6630859 C40.3691406,16.4853516 40.8339844,16.3964844 41.3496094,16.3964844 C42.1308594,16.3964844 42.7509766,16.5927734 43.2099609,16.9853516 C43.6689453,17.3779297 43.8984375,17.9296875 43.8984375,18.640625 L43.8984375,21.3886719 C43.9023438,21.9902344 43.9863281,22.4453125 44.1503906,22.7539062 L44.1503906,22.8535156 L42.4394531,22.8535156 Z M41.0390625,21.6757812 C41.2890625,21.6757812 41.5195312,21.6201172 41.7304688,21.5087891 C41.9414062,21.3974609 42.0976562,21.2480469 42.1992188,21.0605469 L42.1992188,19.9707031 L41.5664062,19.9707031 C40.71875,19.9707031 40.2675781,20.2636719 40.2128906,20.8496094 L40.2070312,20.9492188 C40.2070312,21.1601562 40.28125,21.3339844 40.4296875,21.4707031 C40.578125,21.6074219 40.78125,21.6757812 41.0390625,21.6757812 Z" id="Shape"></path>
            <path d="M47.7265625,14.9550781 L47.7265625,16.5136719 L48.8105469,16.5136719 L48.8105469,17.7558594 L47.7265625,17.7558594 L47.7265625,20.9199219 C47.7265625,21.1542969 47.7714844,21.3222656 47.8613281,21.4238281 C47.9511719,21.5253906 48.1230469,21.5761719 48.3769531,21.5761719 C48.5644531,21.5761719 48.7304688,21.5625 48.875,21.5351562 L48.875,22.8183594 C48.5429688,22.9199219 48.2011719,22.9707031 47.8496094,22.9707031 C46.6621094,22.9707031 46.0566406,22.3710938 46.0332031,21.171875 L46.0332031,17.7558594 L45.1074219,17.7558594 L45.1074219,16.5136719 L46.0332031,16.5136719 L46.0332031,14.9550781 L47.7265625,14.9550781 Z" id="Path"></path>
            <path d="M52.0410156,22.8535156 L50.3417969,22.8535156 L50.3417969,16.5136719 L52.0410156,16.5136719 L52.0410156,22.8535156 Z M50.2421875,14.8730469 C50.2421875,14.6191406 50.3271484,14.4101562 50.4970703,14.2460938 C50.6669922,14.0820312 50.8984375,14 51.1914062,14 C51.4804688,14 51.7109375,14.0820312 51.8828125,14.2460938 C52.0546875,14.4101562 52.140625,14.6191406 52.140625,14.8730469 C52.140625,15.1308594 52.0537109,15.3417969 51.8798828,15.5058594 C51.7060547,15.6699219 51.4765625,15.7519531 51.1914062,15.7519531 C50.90625,15.7519531 50.6767578,15.6699219 50.5029297,15.5058594 C50.3291016,15.3417969 50.2421875,15.1308594 50.2421875,14.8730469 Z" id="Shape"></path>
            <path d="M53.671875,19.625 C53.671875,18.9960938 53.7929688,18.4355469 54.0351562,17.9433594 C54.2773438,17.4511719 54.6259766,17.0703125 55.0810547,16.8007812 C55.5361328,16.53125 56.0644531,16.3964844 56.6660156,16.3964844 C57.5214844,16.3964844 58.2197266,16.6582031 58.7607422,17.1816406 C59.3017578,17.7050781 59.6035156,18.4160156 59.6660156,19.3144531 L59.6777344,19.7480469 C59.6777344,20.7207031 59.40625,21.5009766 58.8632812,22.0888672 C58.3203125,22.6767578 57.5917969,22.9707031 56.6777344,22.9707031 C55.7636719,22.9707031 55.0341797,22.6777344 54.4892578,22.0917969 C53.9443359,21.5058594 53.671875,20.7089844 53.671875,19.7011719 L53.671875,19.625 Z M55.3652344,19.7480469 C55.3652344,20.3496094 55.4785156,20.8095703 55.7050781,21.1279297 C55.9316406,21.4462891 56.2558594,21.6054688 56.6777344,21.6054688 C57.0878906,21.6054688 57.4082031,21.4482422 57.6386719,21.1337891 C57.8691406,20.8193359 57.984375,20.3164062 57.984375,19.625 C57.984375,19.0351562 57.8691406,18.578125 57.6386719,18.2539062 C57.4082031,17.9296875 57.0839844,17.7675781 56.6660156,17.7675781 C56.2519531,17.7675781 55.9316406,17.9287109 55.7050781,18.2509766 C55.4785156,18.5732422 55.3652344,19.0722656 55.3652344,19.7480469 Z" id="Shape"></path>
            <path d="M62.7792969,16.5136719 L62.8320312,17.2460938 C63.2851562,16.6796875 63.8925781,16.3964844 64.6542969,16.3964844 C65.3261719,16.3964844 65.8261719,16.59375 66.1542969,16.9882812 C66.4824219,17.3828125 66.6503906,17.9726562 66.6582031,18.7578125 L66.6582031,22.8535156 L64.9648438,22.8535156 L64.9648438,18.7988281 C64.9648438,18.4394531 64.8867188,18.1787109 64.7304688,18.0166016 C64.5742188,17.8544922 64.3144531,17.7734375 63.9511719,17.7734375 C63.4746094,17.7734375 63.1171875,17.9765625 62.8789062,18.3828125 L62.8789062,22.8535156 L61.1855469,22.8535156 L61.1855469,16.5136719 L62.7792969,16.5136719 Z" id="Path"></path>
        </g>
        <g id="Group-10" transform="translate(106.000000, 24.000000)">
            <circle id="Oval" fill="#FFBB11" cx="13" cy="13" r="13"></circle>
            <text id="1" font-family="Roboto-Black, Roboto" font-size="14" font-weight="800" fill="#FFFFFF">
                <tspan x="8.94628906" y="17.7777778">1</tspan>
            </text>
        </g>
        <g id="Group-10-Copy" transform="translate(228.000000, 24.000000)">
            <circle id="Oval" fill="#FFBB11" cx="13" cy="13" r="13"></circle>
            <text id="2" font-family="Roboto-Black, Roboto" font-size="14" font-weight="800" fill="#FFFFFF">
                <tspan x="8.94628906" y="17.7777778">2</tspan>
            </text>
        </g>
        <g id="Group-10-Copy-2" transform="translate(356.000000, 24.000000)">
            <circle id="Oval" fill="#FFBB11" cx="13" cy="13" r="13"></circle>
            <text id="3" font-family="Roboto-Black, Roboto" font-size="14" font-weight="800" fill="#FFFFFF">
                <tspan x="8.94628906" y="17.7777778">3</tspan>
            </text>
        </g>
        <g id="Group-17" transform="translate(27.000000, 83.000000)">
            <rect id="Rectangle_1996" fill="#147AC2" fill-rule="nonzero" x="46.085889" y="56.3854015" width="32.9184921" height="4.42238443" rx="2.2"></rect>
            <rect id="Rectangle_1997" fill="#147AC2" fill-rule="nonzero" x="46.085889" y="46.4350365" width="25.2375106" height="4.42238443" rx="2.2"></rect>
            <rect id="Rectangle_1998" fill="#BFBDBF" fill-rule="nonzero" x="3.29184921" y="56.3854015" width="32.9184921" height="4.42238443" rx="2.2"></rect>
            <rect id="Rectangle_1999" fill="#BFBDBF" fill-rule="nonzero" x="3.29184921" y="46.4350365" width="32.9184921" height="4.42238443" rx="2.2"></rect>
            <g id="Group-16">
                <line x1="0" y1="39.2486618" x2="75.7125319" y2="39.2486618" id="Line_421" stroke="#E9E9E9" stroke-width="1.1" stroke-linecap="round"></line>
                <g id="Group-15" transform="translate(14.264680, 0.000000)" fill-rule="nonzero">
                    <path d="M2.19456614,0 L13.1673969,0 C14.3794223,0 15.361963,0.989984475 15.361963,2.21119221 L15.361963,38.6958637 L0,38.6958637 L0,2.21119221 C0,0.989984475 0.982540729,0 2.19456614,0 Z" id="Rectangle_2003" fill="#1A7AC2"></path>
                    <path d="M18.6538122,16.5839416 L29.6266429,16.5839416 C30.8386683,16.5839416 31.8212091,17.5739261 31.8212091,18.7951338 L31.8212091,38.6958637 L16.4592461,38.6958637 L16.4592461,18.7951338 C16.4592461,17.5739261 17.4417868,16.5839416 18.6538122,16.5839416 Z" id="Rectangle_2004" fill="#5BA2D4"></path>
                    <path d="M35.1130583,9.95036496 L46.085889,9.95036496 C47.2979144,9.95036496 48.2804551,10.9403494 48.2804551,12.1615572 L48.2804551,38.6958637 L32.9184921,38.6958637 L32.9184921,12.1615572 C32.9184921,10.9403494 33.9010329,9.95036496 35.1130583,9.95036496 Z" id="Rectangle_2005" fill="#85BADF"></path>
                </g>
            </g>
            <rect id="Rectangle-Copy-21" fill="#0077CC" x="2.08588899" y="82.919708" width="35.914111" height="13.080292" rx="2.2"></rect>
        </g>
        <g id="Group-18" transform="translate(151.952720, 83.000000)">
            <rect id="Rectangle_2006" fill="#147AC2" fill-rule="nonzero" x="44" y="53.7185788" width="33.0405536" height="4.3851901" rx="2.19259505"></rect>
            <rect id="Rectangle_2007" fill="#147AC2" fill-rule="nonzero" x="44" y="43.851901" width="25.3310911" height="4.3851901" rx="2.19259505"></rect>
            <rect id="Rectangle_2008" fill="#BFBDBF" fill-rule="nonzero" x="1.04728026" y="53.7185788" width="33.0405536" height="4.3851901" rx="2.19259505"></rect>
            <rect id="Rectangle_2009" fill="#BFBDBF" fill-rule="nonzero" x="1.04728026" y="43.851901" width="33.0405536" height="4.3851901" rx="2.19259505"></rect>
            <rect id="Rectangle_2010" fill="#147AC2" fill-rule="nonzero" x="44" y="63.5852565" width="28.6351465" height="4.3851901" rx="2.19259505"></rect>
            <rect id="Rectangle_2011" fill="#BFBDBF" fill-rule="nonzero" x="1.04728026" y="63.5852565" width="33.0405536" height="4.3851901" rx="2.19259505"></rect>
            <g id="Group-14" transform="translate(17.567557, 0.000000)" fill-rule="nonzero">
                <path d="M17.6216286,0 C25.1470462,0.000333448728 31.8164545,4.87017852 34.1419054,12.0627176 L30.7933744,13.1555703 C28.9394384,7.42083024 23.6217208,3.5380937 17.6216286,3.53820769 L17.6216286,0 Z" id="Path_2777" fill="#0969B0"></path>
                <path d="M34.3599541,12.0592728 C36.7733342,19.3060277 34.1281318,27.2442649 27.807658,31.7226755 C21.4870976,36.2011359 12.9286712,36.2011359 6.60811073,31.7226755 L8.75662332,28.8385015 C13.7959349,32.4095279 20.6198338,32.4095279 25.6591454,28.8385015 C30.6985746,25.2677144 32.8072645,18.9381411 30.8822996,13.1603609 L34.3599541,12.0592728 Z" id="Path_2778" fill="#69B7E7"></path>
                <path d="M7.68854706,31.7926283 C3.41279833,28.8283265 0.655294469,24.2706035 0.101757551,19.2528506 C-0.449314912,14.2351576 1.25530673,9.22985133 4.79177288,5.48148763 L7.60026442,7.89592171 C4.7832183,10.88524 3.42658618,14.8754656 3.86756398,18.8748132 C4.30783442,22.8746746 6.504756,26.5083113 9.91216609,28.872388 L7.68854706,31.7926283 Z" id="Path_2779" fill="#2A99E0"></path>
                <path d="M4.40540715,6.2241857 C7.77803718,2.26201481 12.5815178,-0.00018664448 17.6216286,0 L17.6216286,3.81302721 C13.6040142,3.81154066 9.77442966,5.61326287 7.08470885,8.77038021 L4.40540715,6.2241857 Z" id="Path_2780" fill="#004C91"></path>
            </g>
            <rect id="Rectangle-Copy-22" fill="#0077CC" x="0" y="83" width="36.0472803" height="12.9702806" rx="2.2"></rect>
        </g>
        <g id="Group-19" transform="translate(278.853141, 83.000000)">
            <rect id="Rectangle_2017" fill="#147AC2" fill-rule="nonzero" x="44.2182336" y="53.7185788" width="33.1318265" height="4.3851901" rx="2.19259505"></rect>
            <rect id="Rectangle_2019" fill="#147AC2" fill-rule="nonzero" x="44.2182336" y="21.8557875" width="33.1318265" height="4.3851901" rx="2.19259505"></rect>
            <rect id="Rectangle_2016" fill="#147AC2" fill-rule="nonzero" x="44.2182336" y="43.851901" width="25.401067" height="4.3851901" rx="2.19259505"></rect>
            <rect id="Rectangle_2018" fill="#147AC2" fill-rule="nonzero" x="44.2182336" y="13.0854073" width="25.401067" height="4.3851901" rx="2.19259505"></rect>
            <rect id="Rectangle_2014" fill="#BFBDBF" fill-rule="nonzero" x="1.14685908" y="53.7185788" width="33.1318265" height="4.3851901" rx="2.19259505"></rect>
            <rect id="Rectangle_2015" fill="#BFBDBF" fill-rule="nonzero" x="1.14685908" y="43.851901" width="33.1318265" height="4.3851901" rx="2.19259505"></rect>
            <rect id="Rectangle_2012" fill="#147AC2" fill-rule="nonzero" x="44.2182336" y="63.5852565" width="28.7142497" height="4.3851901" rx="2.19259505"></rect>
            <rect id="Rectangle_2013" fill="#BFBDBF" fill-rule="nonzero" x="1.14685908" y="63.5852565" width="33.1318265" height="4.3851901" rx="2.19259505"></rect>
            <path d="M23.3916707,34.4820863 C15.9981356,36.4496098 8.1692191,33.4674545 3.99926547,27.0952196 L7.00262008,25.1589924 C10.3272144,30.2397384 16.5694068,32.6173677 22.4642481,31.0482725 L23.3916707,34.4820863 Z" id="Path_2777-2" fill="#0969B0" fill-rule="nonzero"></path>
            <path d="M3.99800259,27.0955557 C-0.17118254,20.7231001 0.26691963,12.4104229 5.08320315,6.50464665 C9.89955572,0.598800614 17.9988074,-1.55690392 25.1453572,1.16488464 L23.8624514,4.48419616 C18.1644836,2.31375918 11.706699,4.03256927 7.86677957,8.7416194 C4.02668658,13.4504687 3.67780843,20.0784846 7.00262008,25.1589924 L3.99800259,27.0955557 Z" id="Path_2778-2" fill="#69B7E7" fill-rule="nonzero"></path>
            <path d="M25.1450186,1.16363097 C29.8215507,2.94306766 33.5177032,6.60903344 35.3143354,11.2498945 C37.1086961,15.8912991 36.8347403,21.070572 34.5605867,25.499901 L31.3687057,23.8862768 C33.1793356,20.3546893 33.3956357,16.2263359 31.9638437,12.5273341 C30.5325672,8.82767084 27.5871835,5.90462214 23.8599256,4.48486842 L25.1450186,1.16363097 Z" id="Path_2779-2" fill="#2A99E0" fill-rule="nonzero"></path>
            <path d="M34.5596624,25.5014908 C32.2867692,29.9310698 28.2272656,33.1952199 23.3904078,34.4824224 L22.4629852,31.0486087 C26.3189063,30.023748 29.5557969,27.4230389 31.3691358,23.8928813 L34.5596624,25.5014908 Z" id="Path_2780-2" fill="#004C91" fill-rule="nonzero"></path>
            <rect id="Rectangle-Copy-38" fill="#0077CC" x="0" y="83" width="36.1468591" height="12.9702806" rx="2.2"></rect>
        </g>
    </g>
</svg>