<svg xmlns="http://www.w3.org/2000/svg" width="95.477" height="60.666" viewBox="0 0 95.477 139.666">
  <g id="Group_1599" data-name="Group 1599" transform="translate(-921.183 -235.859)">
    <g id="Group_1578" data-name="Group 1578" transform="translate(954.549 235.859)">
      <path id="Path_2638" data-name="Path 2638" d="M1063.319,278.378a50.967,50.967,0,0,0-3.9-3.465c-1.873-1.573-4.009-3.367-6.424-5.187-6.288-4.728-14.481-9.615-24.887-11.17a46.781,46.781,0,0,0-11.586-.264c3.734-8.336,5.095-17.761,2.885-19.871-1.719-1.642-8.755,1.517-8.755,1.517,4.118-2.3,4.154-3.474,10.425-2.953,6.408.533,21.384,6.677,28.062,10.08a68.186,68.186,0,0,1,12.143,8.054,15.632,15.632,0,0,1,3.945,4.436,10.994,10.994,0,0,1,.988,5.882A36.229,36.229,0,0,1,1063.319,278.378Z" transform="translate(-1010.471 -236.486)" fill="#147ac2"/>
      <path id="Path_2639" data-name="Path 2639" d="M1063.124,278.425l-.386-.421c-.008-.008-.785-.846-3.864-3.431l-.03-.025c-1.867-1.568-3.984-3.345-6.379-5.15-5.277-3.967-13.58-9.434-24.716-11.1a46.732,46.732,0,0,0-11.493-.262l-.644.064.264-.591c3.937-8.789,4.828-17.67,2.968-19.446-1.119-1.069-5.711.406-8.342,1.587l-.336-.669c.831-.465,1.5-.884,2.081-1.254,2.363-1.491,3.44-2.171,8.558-1.745,6.545.544,21.838,6.877,28.2,10.12a68.608,68.608,0,0,1,12.212,8.1,16.194,16.194,0,0,1,4.036,4.548,11.425,11.425,0,0,1,1.032,6.075,36.366,36.366,0,0,1-2.93,13.078Zm-42.141-21.372a46.622,46.622,0,0,1,6.877.505c11.3,1.69,19.714,7.225,25.056,11.241,2.41,1.816,4.535,3.6,6.41,5.175l.03.025c2,1.678,3.035,2.625,3.532,3.1a35.92,35.92,0,0,0,2.648-12.305,10.758,10.758,0,0,0-.945-5.688,15.508,15.508,0,0,0-3.853-4.324,67.846,67.846,0,0,0-12.074-8.009c-6.316-3.219-21.473-9.5-27.922-10.04-3.859-.321-5.252-.012-6.8.847,2.081-.615,4.431-1,5.423-.057,2.294,2.19,1.1,11.3-2.544,19.71Q1018.907,257.053,1020.983,257.053Z" transform="translate(-1010.166 -235.859)" fill="#5479bb"/>
    </g>
    <g id="Group_1579" data-name="Group 1579" transform="translate(928.653 236.516)">
      <path id="Path_2640" data-name="Path 2640" d="M1015.17,338.944a69.345,69.345,0,0,1-20.741,3.8,51.656,51.656,0,0,1-10.277-.829c-3.77-.7-8.963-2.11-16.026-2.885a90.721,90.721,0,0,0-10.113-.544c-3.513.005-6.658.206-9.314.467a106.271,106.271,0,0,1-6.011-47.4c.907-8.545,3.723-23.818,10.725-34.657,3.263-5.378,16.5-22.366,23.562-17.387,3.545,3.175.849,11.535-2.885,19.871a46.787,46.787,0,0,1,11.586.264c10.405,1.555,18.6,6.442,24.886,11.17a111.927,111.927,0,0,0-3.434,23.436C1006.7,304.287,1007.545,319.966,1015.17,338.944Z" transform="translate(-941.74 -238.235)" fill="#fafbfc"/>
      <path id="Path_2641" data-name="Path 2641" d="M992.869,342.507a52.128,52.128,0,0,1-9.42-.843c-1.074-.2-2.287-.459-3.57-.736a116.334,116.334,0,0,0-12.429-2.145,91.651,91.651,0,0,0-10.071-.542c-3.07,0-6.191.161-9.278.465l-.29.028-.1-.274a105.673,105.673,0,0,1-6.031-47.568c.693-6.523,3.13-22.974,10.783-34.821,2.636-4.346,12.165-16.774,19.494-18.3a5.675,5.675,0,0,1,4.6.813l.034.027c3.92,3.511.535,12.785-2.532,19.718a47.373,47.373,0,0,1,11.038.326c11.3,1.69,19.714,7.225,25.056,11.241l.206.155-.07.248a111.542,111.542,0,0,0-3.42,23.349,106.632,106.632,0,0,0,8.014,44.534l.149.37-.378.126A70.3,70.3,0,0,1,993.8,342.5Q993.334,342.507,992.869,342.507Zm-35.358-5.016a90.318,90.318,0,0,1,10.02.546,117.039,117.039,0,0,1,12.505,2.158c1.277.275,2.484.535,3.548.732a51.546,51.546,0,0,0,10.2.823,69.274,69.274,0,0,0,20.251-3.66,107.252,107.252,0,0,1-7.92-44.475,113.086,113.086,0,0,1,3.378-23.274c-5.286-3.953-13.518-9.3-24.511-10.945a46.726,46.726,0,0,0-11.493-.262l-.644.064.264-.591c4.746-10.595,5.725-16.949,2.993-19.424a4.957,4.957,0,0,0-4-.679c-7.086,1.477-16.415,13.686-19.011,17.966-7.572,11.721-9.986,28.033-10.673,34.5a104.886,104.886,0,0,0,5.892,46.96c3.016-.288,6.063-.436,9.06-.441Z" transform="translate(-941.103 -237.611)" fill="#5479bb"/>
    </g>
    <path id="Path_2642" data-name="Path 2642" d="M1099.034,543.745a.374.374,0,0,1-.324-.186c-2.586-4.436-5.814-10.854-6.5-16.232a31.524,31.524,0,0,1,1.015-12.8.375.375,0,0,1,.721.208,30.774,30.774,0,0,0-.992,12.5c.673,5.252,3.856,11.572,6.407,15.949a.375.375,0,0,1-.323.564Z" transform="translate(-106.737 -174.002)" fill="#5479bb"/>
    <path id="Path_2643" data-name="Path 2643" d="M990.774,538.229a.375.375,0,0,1-.323-.564c2.551-4.377,5.734-10.7,6.407-15.949a31.264,31.264,0,0,0-2.12-15.775.375.375,0,0,1,.7-.279,32,32,0,0,1,2.167,16.149c-.689,5.377-3.917,11.794-6.5,16.232A.374.374,0,0,1,990.774,538.229Z" transform="translate(-43.262 -168.486)" fill="#5479bb"/>
    <path id="Path_2644" data-name="Path 2644" d="M979.259,586.124l4.8-1.116V589l9.872,4.38H974.722s1.584-2.295,3.745-5.91Z" transform="translate(-33.463 -218.227)" fill="#0969b0"/>
    <path id="Path_2645" data-name="Path 2645" d="M1110.989,592.571a.187.187,0,0,1-.161-.091q-.227-.38-.468-.792a.188.188,0,0,1,.324-.189q.238.409.465.789a.188.188,0,0,1-.065.257A.185.185,0,0,1,1110.989,592.571Z" transform="translate(-118.224 -222.225)" fill="#5479bb"/>
    <path id="Path_2646" data-name="Path 2646" d="M1090.949,586.124l-4.8-1.116V589l-9.872,4.38h19.213s-1.585-2.295-3.745-5.91Z" transform="translate(-96.936 -218.227)" fill="#0969b0"/>
    <path id="Path_2647" data-name="Path 2647" d="M953.276,377.945a21.333,21.333,0,0,1-13.341-4.228c-4.664-3.731-6.342-9.338-4.855-16.216a32.312,32.312,0,0,1,4.574-10.773.375.375,0,0,1,.6.45,32.058,32.058,0,0,0-4.44,10.481c-1.444,6.675.1,11.88,4.59,15.472,5.473,4.379,14.267,5.307,22.4,2.367,7.768-2.808,13.059-8.492,14.516-15.594a.375.375,0,0,1,.734.151c-1.511,7.365-6.977,13.25-15,16.149A28.926,28.926,0,0,1,953.276,377.945Z" transform="translate(-8.357 -69.202)" fill="#5479bb"/>
    <g id="Group_1580" data-name="Group 1580" transform="translate(956.407 314.159)">
      <path id="Path_2648" data-name="Path 2648" d="M1015.235,449.748a1.1,1.1,0,0,0,.264,1.322l4.452,3.874-1.293,1.213a1.1,1.1,0,0,0,.547,1.886l4.373.835-6.269,4.73a1.1,1.1,0,0,0,.334,1.932l1.727.542-2.267,5.331a1.1,1.1,0,0,0,.173,1.144l.034.041a1.1,1.1,0,0,0,1.1.359l5.631-1.361.25,1.792a1.1,1.1,0,0,0,1.851.647l5.7-5.406.1,4.45a1.1,1.1,0,0,0,1.771.85l1.409-1.076,3.09,5.028a1.1,1.1,0,0,0,1.963-.169l2.126-5.34,1.474.807a1.1,1.1,0,0,0,1.616-1.149l-1.687-10.049,3.146-.887a1.1,1.1,0,0,0,.542-1.774l-9.26-4.4-2.819-9.857h0a1.1,1.1,0,0,0-1.838.243l-1.392,2.958-9.636-3.316a1.1,1.1,0,0,0-1.4,1.406l.555,1.587-5.616,1.22A1.1,1.1,0,0,0,1015.235,449.748Z" transform="translate(-1015.12 -444.673)" fill="#e98c00"/>
      <path id="Path_2649" data-name="Path 2649" d="M1060.588,472.633a.187.187,0,0,1-.159-.285,22.911,22.911,0,0,1,7.569-7.6,22.313,22.313,0,0,1,5.27-2.328.188.188,0,0,1,.107.36,21.924,21.924,0,0,0-5.182,2.288,22.529,22.529,0,0,0-7.444,7.476A.189.189,0,0,1,1060.588,472.633Z" transform="translate(-1043.421 -455.761)" fill="#2151a0"/>
      <path id="Path_2650" data-name="Path 2650" d="M1063.8,477.765a.194.194,0,0,1-.046-.006.188.188,0,0,1-.136-.228,5.953,5.953,0,0,0-.858-4.749,5.843,5.843,0,0,0-5.725-2.212.187.187,0,0,1-.064-.369,5.985,5.985,0,0,1,7.012,7.422A.188.188,0,0,1,1063.8,477.765Z" transform="translate(-1041.182 -460.569)" fill="#2151a0"/>
    </g>
    <path id="Path_2651" data-name="Path 2651" d="M1080.893,409.414h-.023a.652.652,0,0,1-.474-.259,3.13,3.13,0,0,1-.475-2.1c.153-1.222,1.344-2.1,2.132-2.688A16.467,16.467,0,0,1,1086.44,402a13.627,13.627,0,0,1,6.344-1.223,19.082,19.082,0,0,0,6.9-1.118,8.263,8.263,0,0,0,2.563-1.625c3.732-3.3,2.962-6.713,1.717-9.613-1.735-4.042-4.76-7.812-7.429-11.138-1.195-1.489-2.323-2.895-3.267-4.233a.375.375,0,1,1,.613-.432c.931,1.319,2.052,2.716,3.24,4.2,2.7,3.363,5.758,7.175,7.533,11.311,1.272,2.963,2.205,6.83-1.908,10.471a9.114,9.114,0,0,1-2.794,1.765,19.97,19.97,0,0,1-7.152,1.167,12.825,12.825,0,0,0-6.048,1.155l-.06.024a15.843,15.843,0,0,0-4.2,2.26c-.686.508-1.721,1.275-1.834,2.179a2.685,2.685,0,0,0,.227,1.408c.013-.022.027-.049.041-.079a.375.375,0,1,1,.674.33C1081.531,408.957,1081.307,409.414,1080.893,409.414Zm5.691-7.065h0Z" transform="translate(-99.201 -85.379)" fill="#5479bb"/>
    <path id="Path_2652" data-name="Path 2652" d="M1016.284,607.076H921.558a.375.375,0,0,1,0-.75h94.727a.375.375,0,1,1,0,.75Z" transform="translate(0 -231.551)" fill="#5479bb"/>
    <path id="Path_2653" data-name="Path 2653" d="M1048.08,372.26a.188.188,0,0,1-.108-.341,4.244,4.244,0,0,0,2.033-4.29,3.216,3.216,0,0,0-1.007-1.6.188.188,0,0,1,.251-.279,3.636,3.636,0,0,1,1.119,1.784,4.615,4.615,0,0,1-2.181,4.69A.184.184,0,0,1,1048.08,372.26Z" transform="translate(-79.196 -81.156)" fill="#5479bb"/>
    <path id="Path_2654" data-name="Path 2654" d="M1048.079,373.143a.187.187,0,0,1-.142-.309,6.174,6.174,0,0,0,.945-1.488,3.476,3.476,0,0,0,.463-2.177,2.841,2.841,0,0,0-1.235-1.709.187.187,0,1,1,.209-.311,3.212,3.212,0,0,1,1.393,1.945,3.816,3.816,0,0,1-.489,2.406,6.544,6.544,0,0,1-1,1.578A.186.186,0,0,1,1048.079,373.143Z" transform="translate(-79.196 -82.039)" fill="#5479bb"/>
    <path id="Path_2655" data-name="Path 2655" d="M1043.053,378.552h-.01a3.514,3.514,0,0,1-1.819-.621,3.558,3.558,0,0,1-1.367-1.92.188.188,0,0,1,.36-.1,3.18,3.18,0,0,0,1.221,1.717,3.14,3.14,0,0,0,1.625.555.187.187,0,0,1-.01.375Z" transform="translate(-74.17 -87.448)" fill="#5479bb"/>
    <path id="Path_2656" data-name="Path 2656" d="M1048.079,373.3a.187.187,0,0,1-.072-.36,4.05,4.05,0,0,0,2.754-3.534,3.178,3.178,0,0,0-.564-1.747.188.188,0,0,1,.313-.207,3.6,3.6,0,0,1,.627,1.952,4.418,4.418,0,0,1-2.985,3.883A.187.187,0,0,1,1048.079,373.3Z" transform="translate(-79.196 -82.195)" fill="#5479bb"/>
    <path id="Path_2657" data-name="Path 2657" d="M1048.079,376.8a.187.187,0,0,1-.031-.372,4.37,4.37,0,0,0,3.067-2,3.562,3.562,0,0,0,.409-1.3.187.187,0,0,1,.372.045,3.938,3.938,0,0,1-.453,1.432,4.749,4.749,0,0,1-3.334,2.191A.176.176,0,0,1,1048.079,376.8Z" transform="translate(-79.196 -85.692)" fill="#5479bb"/>
    <path id="Path_2658" data-name="Path 2658" d="M1083.253,462.3a.547.547,0,0,1-.1-.01c-.555-.107-.678-1.055-.705-1.457a3.915,3.915,0,0,1,1.262-2.875.187.187,0,1,1,.269.261,3.559,3.559,0,0,0-1.157,2.59c.034.509.187,1.072.4,1.114.121.024.317-.115.5-.351a.188.188,0,1,1,.294.233A1.108,1.108,0,0,1,1083.253,462.3Z" transform="translate(-100.79 -138.78)" fill="#5479bb"/>
    <path id="Path_2659" data-name="Path 2659" d="M1084.8,461.873a.508.508,0,0,1-.053,0c-.5-.049-.7-.736-.783-1.029a3.63,3.63,0,0,1,.613-2.857.187.187,0,1,1,.317.2,3.274,3.274,0,0,0-.569,2.554c.139.487.293.742.459.759s.374-.178.526-.472a.188.188,0,1,1,.333.174A1.072,1.072,0,0,1,1084.8,461.873Z" transform="translate(-101.679 -138.779)" fill="#5479bb"/>
    <path id="Path_2660" data-name="Path 2660" d="M1078.858,462.941a.388.388,0,0,1-.069-.006c-.615-.108-.613-1.6-.613-1.611.032-1.632,1.84-2.834,2.914-3.405a.187.187,0,0,1,.176.331c-.806.429-2.686,1.588-2.715,3.082-.011.568.167,1.21.3,1.234.021,0,.133-.04.31-.291a.187.187,0,1,1,.306.216C1079.256,462.793,1079.055,462.941,1078.858,462.941Z" transform="translate(-98.125 -138.779)" fill="#5479bb"/>
    <path id="Path_2661" data-name="Path 2661" d="M1077.63,460.738a.188.188,0,0,1-.1-.348l2.815-1.72a.188.188,0,0,1,.2.32l-2.815,1.72A.189.189,0,0,1,1077.63,460.738Z" transform="translate(-97.666 -139.246)" fill="#5479bb"/>
    <g id="Group_1591" data-name="Group 1591" transform="translate(951.186 265.756)">
      <ellipse id="Ellipse_145" data-name="Ellipse 145" cx="3.522" cy="1.386" rx="3.522" ry="1.386" transform="translate(5.655 11.299) rotate(-82.231)" fill="#2151a0"/>
      <ellipse id="Ellipse_146" data-name="Ellipse 146" cx="3.522" cy="1.386" rx="3.522" ry="1.386" transform="translate(24.532 13.105) rotate(-82.231)" fill="#2151a0"/>
      <path id="Path_2662" data-name="Path 2662" d="M1010.073,320.319a.375.375,0,0,1-.354-.5,6.265,6.265,0,0,1,8.111-3.845.375.375,0,0,1-.257.7,5.677,5.677,0,0,0-3.9.019,5.833,5.833,0,0,0-3.243,3.372A.375.375,0,0,1,1010.073,320.319Z" transform="translate(-1006.51 -315.59)" fill="#5479bb"/>
      <path id="Path_2663" data-name="Path 2663" d="M1071.691,324.411a.375.375,0,0,1-.374-.352,5.837,5.837,0,0,0-2.186-4.138,5.684,5.684,0,0,0-3.746-1.1.375.375,0,0,1-.052-.748,6.265,6.265,0,0,1,6.732,5.937.375.375,0,0,1-.351.4Z" transform="translate(-1041.065 -317.136)" fill="#5479bb"/>
      <path id="Path_2664" data-name="Path 2664" d="M1042.564,355.111c-.053.454-.207.8-.439.907a5.085,5.085,0,0,1-2.895.034c-1.654-.259-2.527-.367-3.094-.829a.567.567,0,0,1-.127-.154,2.855,2.855,0,0,1,.776-2.8,3.672,3.672,0,0,1,5.175.457A3.535,3.535,0,0,1,1042.564,355.111Z" transform="translate(-1022.872 -337.977)" fill="#2151a0"/>
      <g id="Group_1585" data-name="Group 1585" transform="translate(0 13.137)">
        <g id="Group_1581" data-name="Group 1581" transform="translate(1.507)">
          <line id="Line_223" data-name="Line 223" x1="2.584" y2="2.584" transform="translate(0.375 0.375)" fill="#fafbfc"/>
          <path id="Path_2665" data-name="Path 2665" d="M1005.592,353.959a.375.375,0,0,1-.265-.64l2.584-2.585a.375.375,0,1,1,.53.53l-2.584,2.585A.375.375,0,0,1,1005.592,353.959Z" transform="translate(-1005.217 -350.625)" fill="#5479bb"/>
        </g>
        <g id="Group_1582" data-name="Group 1582" transform="translate(3.548 0.822)">
          <line id="Line_224" data-name="Line 224" x1="1.508" y2="1.508" transform="translate(0.375 0.375)" fill="#fafbfc"/>
          <path id="Path_2666" data-name="Path 2666" d="M1011.034,355.074a.375.375,0,0,1-.265-.64l1.508-1.508a.375.375,0,0,1,.53.53l-1.508,1.508A.375.375,0,0,1,1011.034,355.074Z" transform="translate(-1010.659 -352.816)" fill="#5479bb"/>
        </g>
        <g id="Group_1583" data-name="Group 1583" transform="translate(0 1.077)">
          <line id="Line_225" data-name="Line 225" x1="1.508" y2="1.508" transform="translate(0.375 0.375)" fill="#fafbfc"/>
          <path id="Path_2667" data-name="Path 2667" d="M1001.571,355.754a.375.375,0,0,1-.265-.64l1.508-1.508a.375.375,0,1,1,.53.53l-1.508,1.508A.374.374,0,0,1,1001.571,355.754Z" transform="translate(-1001.197 -353.497)" fill="#5479bb"/>
        </g>
        <g id="Group_1584" data-name="Group 1584" transform="translate(4.302 1.292)">
          <line id="Line_226" data-name="Line 226" x1="2.074" y2="2.074" transform="translate(0.375 0.375)" fill="#fafbfc"/>
          <path id="Path_2668" data-name="Path 2668" d="M1013.044,356.9a.375.375,0,0,1-.265-.64l2.074-2.074a.375.375,0,1,1,.53.53l-2.074,2.074A.374.374,0,0,1,1013.044,356.9Z" transform="translate(-1012.669 -354.071)" fill="#5479bb"/>
        </g>
      </g>
      <g id="Group_1590" data-name="Group 1590" transform="translate(25.253 14.82)">
        <g id="Group_1586" data-name="Group 1586" transform="translate(2.284)">
          <line id="Line_227" data-name="Line 227" x2="2.584" y2="2.584" transform="translate(0.375 0.375)" fill="#fafbfc"/>
          <path id="Path_2669" data-name="Path 2669" d="M1077.593,358.448a.373.373,0,0,1-.265-.11l-2.585-2.584a.375.375,0,0,1,.53-.53l2.585,2.584a.375.375,0,0,1-.265.64Z" transform="translate(-1074.634 -355.114)" fill="#5479bb"/>
        </g>
        <g id="Group_1587" data-name="Group 1587" transform="translate(1.32 0.822)">
          <line id="Line_228" data-name="Line 228" x2="1.508" y2="1.508" transform="translate(0.375 0.375)" fill="#fafbfc"/>
          <path id="Path_2670" data-name="Path 2670" d="M1073.945,359.563a.375.375,0,0,1-.265-.11l-1.508-1.507a.375.375,0,1,1,.53-.531l1.508,1.508a.375.375,0,0,1-.265.64Z" transform="translate(-1072.063 -357.305)" fill="#5479bb"/>
        </g>
        <g id="Group_1588" data-name="Group 1588" transform="translate(4.869 1.077)">
          <line id="Line_229" data-name="Line 229" x2="1.508" y2="1.508" transform="translate(0.375 0.375)" fill="#fafbfc"/>
          <path id="Path_2671" data-name="Path 2671" d="M1083.408,360.243a.374.374,0,0,1-.265-.11l-1.507-1.507a.375.375,0,1,1,.53-.53l1.507,1.507a.375.375,0,0,1-.265.64Z" transform="translate(-1081.526 -357.986)" fill="#5479bb"/>
        </g>
        <g id="Group_1589" data-name="Group 1589" transform="translate(0 1.292)">
          <line id="Line_230" data-name="Line 230" x2="2.074" y2="2.074" transform="translate(0.375 0.375)" fill="#fafbfc"/>
          <path id="Path_2672" data-name="Path 2672" d="M1070.991,361.384a.374.374,0,0,1-.265-.11l-2.074-2.074a.375.375,0,0,1,.531-.53l2.074,2.074a.375.375,0,0,1-.265.64Z" transform="translate(-1068.542 -358.56)" fill="#5479bb"/>
        </g>
      </g>
      <path id="Path_2673" data-name="Path 2673" d="M1042.787,358.807c-.053.454-.206.8-.439.907a5.085,5.085,0,0,1-2.895.034c-1.654-.259-2.527-.367-3.094-.829a.574.574,0,0,1-.127-.154,4.14,4.14,0,0,1,1.789-1.23,4.6,4.6,0,0,1,3.855.57A4.87,4.87,0,0,1,1042.787,358.807Z" transform="translate(-1023.094 -341.673)" fill="#5479bb"/>
    </g>
  </g>
</svg>
