<svg width="94" height="60" xmlns="http://www.w3.org/2000/svg"><path d="M33.727 48.75c0 1.316.224 2.58.636 3.753l-5.765-.003c-1.417 0-2.565-1.12-2.565-2.5s1.148-2.5 2.565-2.5l5.13-.002V42.49l-.252-.018c-1.236-.179-2.185-1.218-2.185-2.473 0-1.217.892-2.231 2.074-2.454l.362-.043v-5.005l5.258.002c1.288 0 2.354-.925 2.537-2.13l.028-.37c0-1.255-.95-2.294-2.186-2.473l-.379-.027-5.258-.001v4.999l-22.125.002c-1.417 0-2.565-1.12-2.565-2.5s1.148-2.5 2.565-2.5l22.125-.001V22.5h15.517c1.288 0 2.354-.925 2.537-2.13l.028-.37c0-1.255-.949-2.294-2.186-2.473l-.379-.027-15.517-.003V22.5h-5.001c-1.417 0-2.565-1.12-2.565-2.5s1.148-2.5 2.565-2.5l5.001-.003V12.5l2.693.001c1.288 0 2.354-.925 2.537-2.13l.028-.37c0-1.255-.949-2.294-2.186-2.473L36.42 7.5h-2.058a11.28 11.28 0 00-.608 2.968l-.027.782v1.249L12.76 12.5c-1.416 0-2.564-1.12-2.564-2.5s1.148-2.5 2.564-2.5h21.602C35.893 3.13 40.026 0 44.884 0h37.19C88.236 0 93.23 5.037 93.23 11.25v37.5c0 6.213-4.995 11.25-11.157 11.25h-37.19c-4.856 0-8.988-3.129-10.52-7.497L46.68 52.5c1.416 0 2.564-1.12 2.564-2.5 0-1.255-.949-2.294-2.185-2.473l-.38-.027-12.952-.002v1.252zm48.347-45h-17.44l.262.01.643.055c3.053.44 5.378 3.046 5.378 6.185 0 3.298-2.55 5.957-5.746 6.227l-.538.023-10.404-.01a6.588 6.588 0 011.261 3.386l.027.658-.06.653a6.201 6.201 0 01-1.185 2.815l2.667-.002.263.01.643.055c3.052.44 5.378 3.046 5.378 6.185 0 1.413-.469 2.71-1.256 3.75h.101l.263.01.643.055c3.053.44 5.378 3.046 5.378 6.185 0 3.298-2.55 5.957-5.745 6.227l-.539.023-10.368-.01A6.201 6.201 0 0152.963 50c0 3.298-2.55 5.957-5.744 6.227l-.538.023h35.393c3.725 0 6.81-2.761 7.353-6.365l.064-.575.02-.56v-37.5c0-3.954-3.033-7.193-6.882-7.48l-.555-.02zM19.954 47.5c1.233 0 2.232 1.12 2.232 2.5s-1 2.5-2.232 2.5H13.26c-1.232 0-2.231-1.12-2.231-2.5s.999-2.5 2.231-2.5h6.694zm42.114-10h-16.67c-1.417 0-2.566 1.12-2.566 2.5 0 1.255.95 2.294 2.186 2.473l.38.027h16.67c1.417 0 2.565-1.12 2.565-2.5s-1.148-2.5-2.565-2.5zm-25.648 0l-2.693.003v4.988l.128.009h2.565c1.417 0 2.565-1.12 2.565-2.5s-1.148-2.5-2.565-2.5zm-10.259 0c1.417 0 2.565 1.12 2.565 2.5s-1.148 2.5-2.565 2.5h-2.565c-1.416 0-2.565-1.12-2.565-2.5s1.149-2.5 2.565-2.5h2.565zm-10.387 0c1.416 0 2.564 1.12 2.564 2.5s-1.148 2.5-2.564 2.5c-1.417 0-2.565-1.12-2.565-2.5s1.148-2.5 2.565-2.5zm41.165-10h-10.26c-1.416 0-2.564 1.12-2.564 2.5 0 1.255.949 2.294 2.185 2.473l.38.027h10.259c1.416 0 2.565-1.12 2.565-2.5s-1.149-2.5-2.565-2.5zm-36.566-10c1.072 0 1.94 1.12 1.94 2.5s-.868 2.5-1.94 2.5h-8.731c-1.072 0-1.94-1.12-1.94-2.5s.868-2.5 1.94-2.5h8.731zm-15.522 0c1.071 0 1.94 1.12 1.94 2.5s-.869 2.5-1.94 2.5H1.94C.868 22.5 0 21.38 0 20s.869-2.5 1.94-2.5h2.91zm59.782-10H44.115c-1.417 0-2.565 1.12-2.565 2.5 0 1.255.949 2.294 2.186 2.473l.379.027h20.518c1.417 0 2.565-1.12 2.565-2.5s-1.148-2.5-2.565-2.5z" fill="#D8D8D8" fill-rule="nonzero"/></svg>