<?xml version="1.0" encoding="UTF-8"?>
<svg width="637px" height="40px" viewBox="0 0 637 40" version="1.1" xmlns="http://www.w3.org/2000/svg" xmlns:xlink="http://www.w3.org/1999/xlink">
    <title>Group 15</title>
    <g id="Page-1" stroke="none" stroke-width="1" fill="none" fill-rule="evenodd">
        <g id="Group-15">
            <path d="M516.575204,39.9984993 L533.878513,20.0001734 L516.573872,0 L629.749519,0 C633.518505,0 636.573872,2.98476833 636.573872,6.66666667 L636.573872,33.3333333 C636.573872,37.0152317 633.518505,40 629.749519,40 L516.575204,39.9984993 Z" id="completed" fill="#0077CC"></path>
            <path d="M103.510109,0.124221462 L120.130585,20 L103.510109,39.8739425 L6.86926802,40 C3.07547605,40 0,37.0152317 0,33.3333333 L0,6.66666667 C0,2.98476833 3.07547605,0 6.86926802,0 L103.510109,0.124221462 Z" id="aum" fill="#F0F0F0"></path>
            <polygon id="proposing" fill-opacity="0.6" fill="#0077CC" points="414.063764 0.124221462 430.596026 20 414.063764 39.8739425 310.5456 39.8739425 327.136441 20 310.544323 0.124221462"></polygon>
            <polygon id="evaluating" fill="#95C5E7" points="310.544323 0 327.136441 20 310.5456 39.8739425 207.030827 39.8739425 223.650025 20 207.029549 0.124221462"></polygon>
            <polygon id="prospecting" fill-opacity="0.3" fill="#0077CC" points="207.029549 0 223.650025 20 207.029549 39.8739425 103.511387 39.8739425 120.130585 20 103.510109 0.124221462"></polygon>
            <polygon id="finalizing" fill-opacity="0.8" fill="#0077CC" points="516.782422 0 534.063764 20 516.783751 40 414.065035 39.8739425 430.596026 20 414.063764 0.124221462"></polygon>
        </g>
    </g>
</svg>