<svg xmlns="http://www.w3.org/2000/svg" xmlns:xlink="http://www.w3.org/1999/xlink" width="1440" height="999" viewBox="0 0 1440 999"><defs><style>.a{fill:url(#a);}.b{clip-path:url(#b);}.c{opacity:0.201;}.d{opacity:0.7;fill:url(#c);}.e,.i{fill:none;}.e,.f{stroke:#bfbdbf;}.e,.f,.g{stroke-width:2px;}.f,.g{fill:#fff;}.g{stroke:#55d8fe;}.h{stroke:none;}</style><linearGradient id="a" y1="1" x2="1" gradientUnits="objectBoundingBox"><stop offset="0" stop-color="#5c6ccd"/><stop offset="1" stop-color="#5753b5"/></linearGradient><clipPath id="b"><rect class="a" width="1440" height="999"/></clipPath><linearGradient id="c" x1="0.5" x2="0.5" y2="1" gradientUnits="objectBoundingBox"><stop offset="0" stop-color="#bfbdbf"/><stop offset="1" stop-color="#fff" stop-opacity="0"/></linearGradient></defs><g transform="translate(0 -305)"><g class="b" transform="translate(0 305)"><g class="c" transform="translate(-986.853 79.868)"><path class="d" d="M330,931.741v-296.7s555.307,194.608,999,206.83c479.771-11.845,562.848-95.13,936.554-206.83,319.348-93.1,637.823-118.655,943.5-112.077s570.623,107.153,931.7,117.46C4777.74,598.9,5102.73,388.961,5145.766,301.277v740.809L330,1042.415Z" transform="translate(-330 -297.817)"/><path class="e" d="M313,583.244S864.722,782.491,1300.953,786.78s603.788-102.819,937.912-203.272,651.762-117.6,944.2-114.219S3759.783,577.933,4119.1,583.52s940.609-181.962,1005.249-338.28" transform="translate(-308.58 -245.24)"/><g class="f" transform="translate(1909.116 332.028)"><circle class="h" cx="10.967" cy="10.967" r="10.967"/><circle class="i" cx="10.967" cy="10.967" r="9.967"/></g><g class="f" transform="translate(1271.035 516.606)"><circle class="h" cx="10.967" cy="10.967" r="10.967"/><circle class="i" cx="10.967" cy="10.967" r="9.967"/></g></g><g class="c" transform="translate(-1215.453 396.732)"><path class="d" d="M330,931.741v-296.7s555.307,194.608,999,206.83c479.771-11.845,562.848-95.13,936.554-206.83,319.348-93.1,637.823-118.655,943.5-112.077s570.623,107.153,931.7,117.46C4777.74,598.9,5102.73,388.961,5145.766,301.277v740.809L330,1042.415Z" transform="translate(-330 -297.817)"/><path class="e" d="M313,583.244S864.722,782.491,1300.953,786.78s603.788-102.819,937.912-203.272,651.762-117.6,944.2-114.219S3759.783,577.933,4119.1,583.52s940.609-181.962,1005.249-338.28" transform="translate(-308.58 -245.24)"/><g class="f" transform="translate(1909.116 323.988)"><circle class="h" cx="10.967" cy="10.967" r="10.967"/><circle class="i" cx="10.967" cy="10.967" r="9.967"/></g></g><g class="c" transform="translate(-1267.739 110.197)"><path class="d" d="M330,807.489V354.422s541.992,450.444,987.214,467.4c496.758-3.818,500.83-233.843,937.351-359.767,365.443-98.875,644.295,170.837,949.973,177.416s516.641-184.849,933.679-198.149c540.322,20.028,973.891,275.784,1007.536,289.535V917.834L330,918.163Z" transform="translate(-327.015 -354.422)"/><path class="e" d="M312.953,279.164S871.814,737.909,1308.586,742.2s586.132-270.292,936.826-362.862,654.923,176.574,947.719,179.951,573.13-202.2,932.889-196.615,771.077,161.1,998.471,283.768" transform="translate(-312.953 -275.326)"/><g class="f" transform="translate(3780.541 70.05)"><circle class="h" cx="10.967" cy="10.967" r="10.967"/><circle class="i" cx="10.967" cy="10.967" r="9.967"/></g><g class="f" transform="translate(2054.053 73.951)"><circle class="h" cx="10.967" cy="10.967" r="10.967"/><circle class="i" cx="10.967" cy="10.967" r="9.967"/></g></g><g class="c" transform="translate(-1812.642 260.247)"><path class="d" d="M330,807.489V354.422s541.992,450.444,987.214,467.4c496.758-3.818,500.83-233.843,937.351-359.767,365.443-98.875,644.295,170.837,949.973,177.416s516.641-184.849,933.679-198.149c540.322,20.028,973.891,275.784,1007.536,289.535V917.834L330,918.163Z" transform="translate(-328.815 -354.422)"/><path class="e" d="M312.953,279.164S871.814,737.909,1308.586,742.2s586.132-270.292,936.826-362.862,654.923,176.574,947.719,179.951,573.13-202.2,932.889-196.615,771.077,161.1,998.471,283.768" transform="translate(-312.953 -275.326)"/><g class="g" transform="translate(3036.619 247.952)"><circle class="h" cx="10.967" cy="10.967" r="10.967"/><circle class="i" cx="10.967" cy="10.967" r="9.967"/></g><g class="g" transform="translate(1911.847 95.785)"><circle class="h" cx="10.967" cy="10.967" r="10.967"/><circle class="i" cx="10.967" cy="10.967" r="9.967"/></g></g></g></g></svg>