<?xml version="1.0" encoding="UTF-8"?>
<svg width="385px" height="203px" viewBox="0 0 385 203" version="1.1" xmlns="http://www.w3.org/2000/svg" xmlns:xlink="http://www.w3.org/1999/xlink">
    <title>Setup</title>
    <defs>
        <rect id="path-1" x="10" y="36" width="116.292777" height="154" rx="2"></rect>
        <filter x="-6.0%" y="-3.2%" width="112.0%" height="109.1%" filterUnits="objectBoundingBox" id="filter-2">
            <feOffset dx="0" dy="2" in="SourceAlpha" result="shadowOffsetOuter1"></feOffset>
            <feGaussianBlur stdDeviation="2" in="shadowOffsetOuter1" result="shadowBlurOuter1"></feGaussianBlur>
            <feColorMatrix values="0 0 0 0 0   0 0 0 0 0   0 0 0 0 0  0 0 0 0.214143766 0" type="matrix" in="shadowBlurOuter1"></feColorMatrix>
        </filter>
        <rect id="path-3" x="261" y="36" width="116.292777" height="154" rx="2"></rect>
        <filter x="-6.0%" y="-3.2%" width="112.0%" height="109.1%" filterUnits="objectBoundingBox" id="filter-4">
            <feOffset dx="0" dy="2" in="SourceAlpha" result="shadowOffsetOuter1"></feOffset>
            <feGaussianBlur stdDeviation="2" in="shadowOffsetOuter1" result="shadowBlurOuter1"></feGaussianBlur>
            <feColorMatrix values="0 0 0 0 0   0 0 0 0 0   0 0 0 0 0  0 0 0 0.214143766 0" type="matrix" in="shadowBlurOuter1"></feColorMatrix>
        </filter>
        <rect id="path-5" x="134" y="36" width="116.292777" height="154" rx="2"></rect>
        <filter x="-6.0%" y="-3.2%" width="112.0%" height="109.1%" filterUnits="objectBoundingBox" id="filter-6">
            <feOffset dx="0" dy="2" in="SourceAlpha" result="shadowOffsetOuter1"></feOffset>
            <feGaussianBlur stdDeviation="2" in="shadowOffsetOuter1" result="shadowBlurOuter1"></feGaussianBlur>
            <feColorMatrix values="0 0 0 0 0   0 0 0 0 0   0 0 0 0 0  0 0 0 0.214143766 0" type="matrix" in="shadowBlurOuter1"></feColorMatrix>
        </filter>
    </defs>
    <g id="Setup" stroke="none" stroke-width="1" fill="none" fill-rule="evenodd">
        <rect id="Rectangle" stroke="#E7E7E7" fill="#FFFFFF" x="0.5" y="0.5" width="384" height="202" rx="4"></rect>
        <g id="Rectangle-Copy">
            <use fill="black" fill-opacity="1" filter="url(#filter-2)" xlink:href="#path-1"></use>
            <use fill="#FFFFFF" fill-rule="evenodd" xlink:href="#path-1"></use>
        </g>
        <g id="Rectangle-Copy-2">
            <use fill="black" fill-opacity="1" filter="url(#filter-4)" xlink:href="#path-3"></use>
            <use fill="#FFFFFF" fill-rule="evenodd" xlink:href="#path-3"></use>
        </g>
        <g id="Rectangle-Copy-3">
            <use fill="black" fill-opacity="1" filter="url(#filter-6)" xlink:href="#path-5"></use>
            <use fill="#FFFFFF" fill-rule="evenodd" xlink:href="#path-5"></use>
        </g>
        <line x1="0.535211268" y1="22.5487541" x2="384.197183" y2="22.5487541" id="Line" stroke="#0077CC" stroke-width="2"></line>
        <path d="M216.197183,8.58938245 L259.197183,8.58938245 C260.301753,8.58938245 261.197183,9.48481295 261.197183,10.5893824 L261.197183,22.5893824 L261.197183,22.5893824 L214.197183,22.5893824 L214.197183,10.5893824 C214.197183,9.48481295 215.092614,8.58938245 216.197183,8.58938245 Z" id="Rectangle-Copy-5" fill="#0077CC"></path>
        <rect id="Rectangle-Copy-7" fill-opacity="0.51436503" fill="#BFBDBF" x="140" y="11" width="26" height="6" rx="2"></rect>
        <rect id="Rectangle-Copy-8" fill-opacity="0.51436503" fill="#BFBDBF" x="177" y="11" width="26" height="6" rx="2"></rect>
        <rect id="Rectangle-Copy-9" fill-opacity="0.51436503" fill="#BFBDBF" x="312" y="11" width="42" height="6" rx="2"></rect>
        <rect id="Rectangle-Copy-12" fill-opacity="0.51436503" fill="#BFBDBF" x="10" y="11" width="42" height="6" rx="2"></rect>
        <rect id="Rectangle-Copy-11" fill-opacity="0.51436503" fill="#BFBDBF" x="303" y="11" width="6" height="6" rx="2"></rect>
        <rect id="Rectangle-Copy-10" fill-opacity="0.51436503" fill="#BFBDBF" x="365" y="9" width="10" height="10" rx="5"></rect>
        <g id="Models" transform="translate(21.761719, 47.000000)" fill="#0077CC" fill-rule="nonzero">
            <polygon id="Path" points="2.296875 0.46875 4.48828125 6.65625 6.66796875 0.46875 8.9765625 0.46875 8.9765625 9 7.21289062 9 7.21289062 6.66796875 7.38867188 2.64257812 5.0859375 9 3.87890625 9 1.58203125 2.6484375 1.7578125 6.66796875 1.7578125 9 0 9 0 0.46875"></polygon>
            <path d="M10.6367188,5.77148438 C10.6367188,5.14257812 10.7578125,4.58203125 11,4.08984375 C11.2421875,3.59765625 11.5908203,3.21679688 12.0458984,2.94726562 C12.5009766,2.67773438 13.0292969,2.54296875 13.6308594,2.54296875 C14.4863281,2.54296875 15.1845703,2.8046875 15.7255859,3.328125 C16.2666016,3.8515625 16.5683594,4.5625 16.6308594,5.4609375 L16.6425781,5.89453125 C16.6425781,6.8671875 16.3710938,7.64746094 15.828125,8.23535156 C15.2851562,8.82324219 14.5566406,9.1171875 13.6425781,9.1171875 C12.7285156,9.1171875 11.9990234,8.82421875 11.4541016,8.23828125 C10.9091797,7.65234375 10.6367188,6.85546875 10.6367188,5.84765625 L10.6367188,5.77148438 Z M12.3300781,5.89453125 C12.3300781,6.49609375 12.4433594,6.95605469 12.6699219,7.27441406 C12.8964844,7.59277344 13.2207031,7.75195312 13.6425781,7.75195312 C14.0527344,7.75195312 14.3730469,7.59472656 14.6035156,7.28027344 C14.8339844,6.96582031 14.9492188,6.46289062 14.9492188,5.77148438 C14.9492188,5.18164062 14.8339844,4.72460938 14.6035156,4.40039062 C14.3730469,4.07617188 14.0488281,3.9140625 13.6308594,3.9140625 C13.2167969,3.9140625 12.8964844,4.07519531 12.6699219,4.39746094 C12.4433594,4.71972656 12.3300781,5.21875 12.3300781,5.89453125 Z" id="Shape"></path>
            <path d="M17.921875,5.78320312 C17.921875,4.79492188 18.1435547,4.0078125 18.5869141,3.421875 C19.0302734,2.8359375 19.6367188,2.54296875 20.40625,2.54296875 C21.0234375,2.54296875 21.5332031,2.7734375 21.9355469,3.234375 L21.9355469,0 L23.6347656,0 L23.6347656,9 L22.1054688,9 L22.0234375,8.32617188 C21.6015625,8.85351562 21.0585938,9.1171875 20.3945312,9.1171875 C19.6484375,9.1171875 19.0498047,8.82324219 18.5986328,8.23535156 C18.1474609,7.64746094 17.921875,6.83007812 17.921875,5.78320312 Z M19.6152344,5.90625 C19.6152344,6.5 19.71875,6.95507812 19.9257812,7.27148438 C20.1328125,7.58789062 20.4335938,7.74609375 20.828125,7.74609375 C21.3515625,7.74609375 21.7207031,7.52539062 21.9355469,7.08398438 L21.9355469,4.58203125 C21.7246094,4.140625 21.359375,3.91992188 20.8398438,3.91992188 C20.0234375,3.91992188 19.6152344,4.58203125 19.6152344,5.90625 Z" id="Shape"></path>
            <path d="M28.3652344,9.1171875 C27.4355469,9.1171875 26.6787109,8.83203125 26.0947266,8.26171875 C25.5107422,7.69140625 25.21875,6.93164062 25.21875,5.98242188 L25.21875,5.81835938 C25.21875,5.18164062 25.3417969,4.61230469 25.5878906,4.11035156 C25.8339844,3.60839844 26.1826172,3.22167969 26.6337891,2.95019531 C27.0849609,2.67871094 27.5996094,2.54296875 28.1777344,2.54296875 C29.0449219,2.54296875 29.7275391,2.81640625 30.2255859,3.36328125 C30.7236328,3.91015625 30.9726562,4.68554688 30.9726562,5.68945312 L30.9726562,6.38085938 L26.9355469,6.38085938 C26.9902344,6.79492188 27.1552734,7.12695312 27.4306641,7.37695312 C27.7060547,7.62695312 28.0546875,7.75195312 28.4765625,7.75195312 C29.1289062,7.75195312 29.6386719,7.515625 30.0058594,7.04296875 L30.8378906,7.97460938 C30.5839844,8.33398438 30.2402344,8.61425781 29.8066406,8.81542969 C29.3730469,9.01660156 28.8925781,9.1171875 28.3652344,9.1171875 Z M28.171875,3.9140625 C27.8359375,3.9140625 27.5634766,4.02734375 27.3544922,4.25390625 C27.1455078,4.48046875 27.0117188,4.8046875 26.953125,5.2265625 L29.3085938,5.2265625 L29.3085938,5.09179688 C29.3007812,4.71679688 29.1992188,4.42675781 29.0039062,4.22167969 C28.8085938,4.01660156 28.53125,3.9140625 28.171875,3.9140625 Z" id="Shape"></path>
            <polygon id="Path" points="34.2207031 9 32.5214844 9 32.5214844 0 34.2207031 0"></polygon>
            <path d="M39.5488281,7.24804688 C39.5488281,7.04101562 39.4462891,6.87792969 39.2412109,6.75878906 C39.0361328,6.63964844 38.7070312,6.53320312 38.2539062,6.43945312 C36.7460938,6.12304688 35.9921875,5.48242188 35.9921875,4.51757812 C35.9921875,3.95507812 36.2255859,3.48535156 36.6923828,3.10839844 C37.1591797,2.73144531 37.7695312,2.54296875 38.5234375,2.54296875 C39.328125,2.54296875 39.9716797,2.73242188 40.4541016,3.11132812 C40.9365234,3.49023438 41.1777344,3.98242188 41.1777344,4.58789062 L39.484375,4.58789062 C39.484375,4.34570312 39.40625,4.14550781 39.25,3.98730469 C39.09375,3.82910156 38.8496094,3.75 38.5175781,3.75 C38.2324219,3.75 38.0117188,3.81445312 37.8554688,3.94335938 C37.6992188,4.07226562 37.6210938,4.23632812 37.6210938,4.43554688 C37.6210938,4.62304688 37.7099609,4.77441406 37.8876953,4.88964844 C38.0654297,5.00488281 38.3652344,5.10449219 38.7871094,5.18847656 C39.2089844,5.27246094 39.5644531,5.3671875 39.8535156,5.47265625 C40.7480469,5.80078125 41.1953125,6.36914062 41.1953125,7.17773438 C41.1953125,7.75585938 40.9472656,8.22363281 40.4511719,8.58105469 C39.9550781,8.93847656 39.3144531,9.1171875 38.5292969,9.1171875 C37.9980469,9.1171875 37.5263672,9.02246094 37.1142578,8.83300781 C36.7021484,8.64355469 36.3789062,8.38378906 36.1445312,8.05371094 C35.9101562,7.72363281 35.7929688,7.3671875 35.7929688,6.984375 L37.3984375,6.984375 C37.4140625,7.28515625 37.5253906,7.515625 37.7324219,7.67578125 C37.9394531,7.8359375 38.2167969,7.91601562 38.5644531,7.91601562 C38.8886719,7.91601562 39.1337891,7.85449219 39.2998047,7.73144531 C39.4658203,7.60839844 39.5488281,7.44726562 39.5488281,7.24804688 Z" id="Path"></path>
        </g>
        <text font-family="Roboto-Bold, Roboto" font-size="9" font-weight="bold" letter-spacing="0.8" fill="#FFFFFF">
            <tspan x="224" y="18">Setup</tspan>
        </text>
        <g id="Investments" transform="translate(141.873047, 47.468750)" fill="#0077CC" fill-rule="nonzero">
            <polygon id="Path" points="1.7578125 8.53125 0 8.53125 0 0 1.7578125 0"></polygon>
            <path d="M5.33398438,2.19140625 L5.38671875,2.92382812 C5.83984375,2.35742188 6.44726562,2.07421875 7.20898438,2.07421875 C7.88085938,2.07421875 8.38085938,2.27148438 8.70898438,2.66601562 C9.03710938,3.06054688 9.20507812,3.65039062 9.21289062,4.43554688 L9.21289062,8.53125 L7.51953125,8.53125 L7.51953125,4.4765625 C7.51953125,4.1171875 7.44140625,3.85644531 7.28515625,3.69433594 C7.12890625,3.53222656 6.86914062,3.45117188 6.50585938,3.45117188 C6.02929688,3.45117188 5.671875,3.65429688 5.43359375,4.06054688 L5.43359375,8.53125 L3.74023438,8.53125 L3.74023438,2.19140625 L5.33398438,2.19140625 Z" id="Path"></path>
            <polygon id="Path" points="13.3691406 6.46289062 14.546875 2.19140625 16.3164062 2.19140625 14.1777344 8.53125 12.5605469 8.53125 10.421875 2.19140625 12.1914062 2.19140625"></polygon>
            <path d="M20.4023438,8.6484375 C19.4726562,8.6484375 18.7158203,8.36328125 18.1318359,7.79296875 C17.5478516,7.22265625 17.2558594,6.46289062 17.2558594,5.51367188 L17.2558594,5.34960938 C17.2558594,4.71289062 17.3789062,4.14355469 17.625,3.64160156 C17.8710938,3.13964844 18.2197266,2.75292969 18.6708984,2.48144531 C19.1220703,2.20996094 19.6367188,2.07421875 20.2148438,2.07421875 C21.0820312,2.07421875 21.7646484,2.34765625 22.2626953,2.89453125 C22.7607422,3.44140625 23.0097656,4.21679688 23.0097656,5.22070312 L23.0097656,5.91210938 L18.9726562,5.91210938 C19.0273438,6.32617188 19.1923828,6.65820312 19.4677734,6.90820312 C19.7431641,7.15820312 20.0917969,7.28320312 20.5136719,7.28320312 C21.1660156,7.28320312 21.6757812,7.046875 22.0429688,6.57421875 L22.875,7.50585938 C22.6210938,7.86523438 22.2773438,8.14550781 21.84375,8.34667969 C21.4101562,8.54785156 20.9296875,8.6484375 20.4023438,8.6484375 Z M20.2089844,3.4453125 C19.8730469,3.4453125 19.6005859,3.55859375 19.3916016,3.78515625 C19.1826172,4.01171875 19.0488281,4.3359375 18.9902344,4.7578125 L21.3457031,4.7578125 L21.3457031,4.62304688 C21.3378906,4.24804688 21.2363281,3.95800781 21.0410156,3.75292969 C20.8457031,3.54785156 20.5683594,3.4453125 20.2089844,3.4453125 Z" id="Shape"></path>
            <path d="M27.9042969,6.77929688 C27.9042969,6.57226562 27.8017578,6.40917969 27.5966797,6.29003906 C27.3916016,6.17089844 27.0625,6.06445312 26.609375,5.97070312 C25.1015625,5.65429688 24.3476562,5.01367188 24.3476562,4.04882812 C24.3476562,3.48632812 24.5810547,3.01660156 25.0478516,2.63964844 C25.5146484,2.26269531 26.125,2.07421875 26.8789062,2.07421875 C27.6835938,2.07421875 28.3271484,2.26367188 28.8095703,2.64257812 C29.2919922,3.02148438 29.5332031,3.51367188 29.5332031,4.11914062 L27.8398438,4.11914062 C27.8398438,3.87695312 27.7617188,3.67675781 27.6054688,3.51855469 C27.4492188,3.36035156 27.2050781,3.28125 26.8730469,3.28125 C26.5878906,3.28125 26.3671875,3.34570312 26.2109375,3.47460938 C26.0546875,3.60351562 25.9765625,3.76757812 25.9765625,3.96679688 C25.9765625,4.15429688 26.0654297,4.30566406 26.2431641,4.42089844 C26.4208984,4.53613281 26.7207031,4.63574219 27.1425781,4.71972656 C27.5644531,4.80371094 27.9199219,4.8984375 28.2089844,5.00390625 C29.1035156,5.33203125 29.5507812,5.90039062 29.5507812,6.70898438 C29.5507812,7.28710938 29.3027344,7.75488281 28.8066406,8.11230469 C28.3105469,8.46972656 27.6699219,8.6484375 26.8847656,8.6484375 C26.3535156,8.6484375 25.8818359,8.55371094 25.4697266,8.36425781 C25.0576172,8.17480469 24.734375,7.91503906 24.5,7.58496094 C24.265625,7.25488281 24.1484375,6.8984375 24.1484375,6.515625 L25.7539062,6.515625 C25.7695312,6.81640625 25.8808594,7.046875 26.0878906,7.20703125 C26.2949219,7.3671875 26.5722656,7.44726562 26.9199219,7.44726562 C27.2441406,7.44726562 27.4892578,7.38574219 27.6552734,7.26269531 C27.8212891,7.13964844 27.9042969,6.97851562 27.9042969,6.77929688 Z" id="Path"></path>
            <path d="M33.1679688,0.6328125 L33.1679688,2.19140625 L34.2519531,2.19140625 L34.2519531,3.43359375 L33.1679688,3.43359375 L33.1679688,6.59765625 C33.1679688,6.83203125 33.2128906,7 33.3027344,7.1015625 C33.3925781,7.203125 33.5644531,7.25390625 33.8183594,7.25390625 C34.0058594,7.25390625 34.171875,7.24023438 34.3164062,7.21289062 L34.3164062,8.49609375 C33.984375,8.59765625 33.6425781,8.6484375 33.2910156,8.6484375 C32.1035156,8.6484375 31.4980469,8.04882812 31.4746094,6.84960938 L31.4746094,3.43359375 L30.5488281,3.43359375 L30.5488281,2.19140625 L31.4746094,2.19140625 L31.4746094,0.6328125 L33.1679688,0.6328125 Z" id="Path"></path>
            <path d="M37.2832031,2.19140625 L37.3359375,2.90039062 C37.7851562,2.34960938 38.3925781,2.07421875 39.1582031,2.07421875 C39.9746094,2.07421875 40.5351562,2.39648438 40.8398438,3.04101562 C41.2851562,2.39648438 41.9199219,2.07421875 42.7441406,2.07421875 C43.4316406,2.07421875 43.9433594,2.27441406 44.2792969,2.67480469 C44.6152344,3.07519531 44.7832031,3.67773438 44.7832031,4.48242188 L44.7832031,8.53125 L43.0839844,8.53125 L43.0839844,4.48828125 C43.0839844,4.12890625 43.0136719,3.86621094 42.8730469,3.70019531 C42.7324219,3.53417969 42.484375,3.45117188 42.1289062,3.45117188 C41.6210938,3.45117188 41.2695312,3.69335938 41.0742188,4.17773438 L41.0800781,8.53125 L39.3867188,8.53125 L39.3867188,4.49414062 C39.3867188,4.12695312 39.3144531,3.86132812 39.1699219,3.69726562 C39.0253906,3.53320312 38.7792969,3.45117188 38.4316406,3.45117188 C37.9511719,3.45117188 37.6035156,3.65039062 37.3886719,4.04882812 L37.3886719,8.53125 L35.6953125,8.53125 L35.6953125,2.19140625 L37.2832031,2.19140625 Z" id="Path"></path>
            <path d="M49.5019531,8.6484375 C48.5722656,8.6484375 47.8154297,8.36328125 47.2314453,7.79296875 C46.6474609,7.22265625 46.3554688,6.46289062 46.3554688,5.51367188 L46.3554688,5.34960938 C46.3554688,4.71289062 46.4785156,4.14355469 46.7246094,3.64160156 C46.9707031,3.13964844 47.3193359,2.75292969 47.7705078,2.48144531 C48.2216797,2.20996094 48.7363281,2.07421875 49.3144531,2.07421875 C50.1816406,2.07421875 50.8642578,2.34765625 51.3623047,2.89453125 C51.8603516,3.44140625 52.109375,4.21679688 52.109375,5.22070312 L52.109375,5.91210938 L48.0722656,5.91210938 C48.1269531,6.32617188 48.2919922,6.65820312 48.5673828,6.90820312 C48.8427734,7.15820312 49.1914062,7.28320312 49.6132812,7.28320312 C50.265625,7.28320312 50.7753906,7.046875 51.1425781,6.57421875 L51.9746094,7.50585938 C51.7207031,7.86523438 51.3769531,8.14550781 50.9433594,8.34667969 C50.5097656,8.54785156 50.0292969,8.6484375 49.5019531,8.6484375 Z M49.3085938,3.4453125 C48.9726562,3.4453125 48.7001953,3.55859375 48.4912109,3.78515625 C48.2822266,4.01171875 48.1484375,4.3359375 48.0898438,4.7578125 L50.4453125,4.7578125 L50.4453125,4.62304688 C50.4375,4.24804688 50.3359375,3.95800781 50.140625,3.75292969 C49.9453125,3.54785156 49.6679688,3.4453125 49.3085938,3.4453125 Z" id="Shape"></path>
            <path d="M55.1289062,2.19140625 L55.1816406,2.92382812 C55.6347656,2.35742188 56.2421875,2.07421875 57.0039062,2.07421875 C57.6757812,2.07421875 58.1757812,2.27148438 58.5039062,2.66601562 C58.8320312,3.06054688 59,3.65039062 59.0078125,4.43554688 L59.0078125,8.53125 L57.3144531,8.53125 L57.3144531,4.4765625 C57.3144531,4.1171875 57.2363281,3.85644531 57.0800781,3.69433594 C56.9238281,3.53222656 56.6640625,3.45117188 56.3007812,3.45117188 C55.8242188,3.45117188 55.4667969,3.65429688 55.2285156,4.06054688 L55.2285156,8.53125 L53.5351562,8.53125 L53.5351562,2.19140625 L55.1289062,2.19140625 Z" id="Path"></path>
            <path d="M62.8183594,0.6328125 L62.8183594,2.19140625 L63.9023438,2.19140625 L63.9023438,3.43359375 L62.8183594,3.43359375 L62.8183594,6.59765625 C62.8183594,6.83203125 62.8632812,7 62.953125,7.1015625 C63.0429688,7.203125 63.2148438,7.25390625 63.46875,7.25390625 C63.65625,7.25390625 63.8222656,7.24023438 63.9667969,7.21289062 L63.9667969,8.49609375 C63.6347656,8.59765625 63.2929688,8.6484375 62.9414062,8.6484375 C61.7539062,8.6484375 61.1484375,8.04882812 61.125,6.84960938 L61.125,3.43359375 L60.1992188,3.43359375 L60.1992188,2.19140625 L61.125,2.19140625 L61.125,0.6328125 L62.8183594,0.6328125 Z" id="Path"></path>
            <path d="M68.7792969,6.77929688 C68.7792969,6.57226562 68.6767578,6.40917969 68.4716797,6.29003906 C68.2666016,6.17089844 67.9375,6.06445312 67.484375,5.97070312 C65.9765625,5.65429688 65.2226562,5.01367188 65.2226562,4.04882812 C65.2226562,3.48632812 65.4560547,3.01660156 65.9228516,2.63964844 C66.3896484,2.26269531 67,2.07421875 67.7539062,2.07421875 C68.5585938,2.07421875 69.2021484,2.26367188 69.6845703,2.64257812 C70.1669922,3.02148438 70.4082031,3.51367188 70.4082031,4.11914062 L68.7148438,4.11914062 C68.7148438,3.87695312 68.6367188,3.67675781 68.4804688,3.51855469 C68.3242188,3.36035156 68.0800781,3.28125 67.7480469,3.28125 C67.4628906,3.28125 67.2421875,3.34570312 67.0859375,3.47460938 C66.9296875,3.60351562 66.8515625,3.76757812 66.8515625,3.96679688 C66.8515625,4.15429688 66.9404297,4.30566406 67.1181641,4.42089844 C67.2958984,4.53613281 67.5957031,4.63574219 68.0175781,4.71972656 C68.4394531,4.80371094 68.7949219,4.8984375 69.0839844,5.00390625 C69.9785156,5.33203125 70.4257812,5.90039062 70.4257812,6.70898438 C70.4257812,7.28710938 70.1777344,7.75488281 69.6816406,8.11230469 C69.1855469,8.46972656 68.5449219,8.6484375 67.7597656,8.6484375 C67.2285156,8.6484375 66.7568359,8.55371094 66.3447266,8.36425781 C65.9326172,8.17480469 65.609375,7.91503906 65.375,7.58496094 C65.140625,7.25488281 65.0234375,6.8984375 65.0234375,6.515625 L66.6289062,6.515625 C66.6445312,6.81640625 66.7558594,7.046875 66.9628906,7.20703125 C67.1699219,7.3671875 67.4472656,7.44726562 67.7949219,7.44726562 C68.1191406,7.44726562 68.3642578,7.38574219 68.5302734,7.26269531 C68.6962891,7.13964844 68.7792969,6.97851562 68.7792969,6.77929688 Z" id="Path"></path>
        </g>
        <g id="Fee-schedules" transform="translate(268.761719, 47.000000)" fill="#0077CC" fill-rule="nonzero">
            <polygon id="Path" points="5.1328125 5.51367188 1.7578125 5.51367188 1.7578125 9 0 9 0 0.46875 5.5546875 0.46875 5.5546875 1.89257812 1.7578125 1.89257812 1.7578125 4.09570312 5.1328125 4.09570312"></polygon>
            <path d="M9.7578125,9.1171875 C8.828125,9.1171875 8.07128906,8.83203125 7.48730469,8.26171875 C6.90332031,7.69140625 6.61132812,6.93164062 6.61132812,5.98242188 L6.61132812,5.81835938 C6.61132812,5.18164062 6.734375,4.61230469 6.98046875,4.11035156 C7.2265625,3.60839844 7.57519531,3.22167969 8.02636719,2.95019531 C8.47753906,2.67871094 8.9921875,2.54296875 9.5703125,2.54296875 C10.4375,2.54296875 11.1201172,2.81640625 11.6181641,3.36328125 C12.1162109,3.91015625 12.3652344,4.68554688 12.3652344,5.68945312 L12.3652344,6.38085938 L8.328125,6.38085938 C8.3828125,6.79492188 8.54785156,7.12695312 8.82324219,7.37695312 C9.09863281,7.62695312 9.44726562,7.75195312 9.86914062,7.75195312 C10.5214844,7.75195312 11.03125,7.515625 11.3984375,7.04296875 L12.2304688,7.97460938 C11.9765625,8.33398438 11.6328125,8.61425781 11.1992188,8.81542969 C10.765625,9.01660156 10.2851562,9.1171875 9.7578125,9.1171875 Z M9.56445312,3.9140625 C9.22851562,3.9140625 8.95605469,4.02734375 8.74707031,4.25390625 C8.53808594,4.48046875 8.40429688,4.8046875 8.34570312,5.2265625 L10.7011719,5.2265625 L10.7011719,5.09179688 C10.6933594,4.71679688 10.5917969,4.42675781 10.3964844,4.22167969 C10.2011719,4.01660156 9.92382812,3.9140625 9.56445312,3.9140625 Z" id="Shape"></path>
            <path d="M16.7441406,9.1171875 C15.8144531,9.1171875 15.0576172,8.83203125 14.4736328,8.26171875 C13.8896484,7.69140625 13.5976562,6.93164062 13.5976562,5.98242188 L13.5976562,5.81835938 C13.5976562,5.18164062 13.7207031,4.61230469 13.9667969,4.11035156 C14.2128906,3.60839844 14.5615234,3.22167969 15.0126953,2.95019531 C15.4638672,2.67871094 15.9785156,2.54296875 16.5566406,2.54296875 C17.4238281,2.54296875 18.1064453,2.81640625 18.6044922,3.36328125 C19.1025391,3.91015625 19.3515625,4.68554688 19.3515625,5.68945312 L19.3515625,6.38085938 L15.3144531,6.38085938 C15.3691406,6.79492188 15.5341797,7.12695312 15.8095703,7.37695312 C16.0849609,7.62695312 16.4335938,7.75195312 16.8554688,7.75195312 C17.5078125,7.75195312 18.0175781,7.515625 18.3847656,7.04296875 L19.2167969,7.97460938 C18.9628906,8.33398438 18.6191406,8.61425781 18.1855469,8.81542969 C17.7519531,9.01660156 17.2714844,9.1171875 16.7441406,9.1171875 Z M16.5507812,3.9140625 C16.2148438,3.9140625 15.9423828,4.02734375 15.7333984,4.25390625 C15.5244141,4.48046875 15.390625,4.8046875 15.3320312,5.2265625 L17.6875,5.2265625 L17.6875,5.09179688 C17.6796875,4.71679688 17.578125,4.42675781 17.3828125,4.22167969 C17.1875,4.01660156 16.9101562,3.9140625 16.5507812,3.9140625 Z" id="Shape"></path>
            <path d="M27.734375,7.24804688 C27.734375,7.04101562 27.6318359,6.87792969 27.4267578,6.75878906 C27.2216797,6.63964844 26.8925781,6.53320312 26.4394531,6.43945312 C24.9316406,6.12304688 24.1777344,5.48242188 24.1777344,4.51757812 C24.1777344,3.95507812 24.4111328,3.48535156 24.8779297,3.10839844 C25.3447266,2.73144531 25.9550781,2.54296875 26.7089844,2.54296875 C27.5136719,2.54296875 28.1572266,2.73242188 28.6396484,3.11132812 C29.1220703,3.49023438 29.3632812,3.98242188 29.3632812,4.58789062 L27.6699219,4.58789062 C27.6699219,4.34570312 27.5917969,4.14550781 27.4355469,3.98730469 C27.2792969,3.82910156 27.0351562,3.75 26.703125,3.75 C26.4179688,3.75 26.1972656,3.81445312 26.0410156,3.94335938 C25.8847656,4.07226562 25.8066406,4.23632812 25.8066406,4.43554688 C25.8066406,4.62304688 25.8955078,4.77441406 26.0732422,4.88964844 C26.2509766,5.00488281 26.5507812,5.10449219 26.9726562,5.18847656 C27.3945312,5.27246094 27.75,5.3671875 28.0390625,5.47265625 C28.9335938,5.80078125 29.3808594,6.36914062 29.3808594,7.17773438 C29.3808594,7.75585938 29.1328125,8.22363281 28.6367188,8.58105469 C28.140625,8.93847656 27.5,9.1171875 26.7148438,9.1171875 C26.1835938,9.1171875 25.7119141,9.02246094 25.2998047,8.83300781 C24.8876953,8.64355469 24.5644531,8.38378906 24.3300781,8.05371094 C24.0957031,7.72363281 23.9785156,7.3671875 23.9785156,6.984375 L25.5839844,6.984375 C25.5996094,7.28515625 25.7109375,7.515625 25.9179688,7.67578125 C26.125,7.8359375 26.4023438,7.91601562 26.75,7.91601562 C27.0742188,7.91601562 27.3193359,7.85449219 27.4853516,7.73144531 C27.6513672,7.60839844 27.734375,7.44726562 27.734375,7.24804688 Z" id="Path"></path>
            <path d="M33.6074219,7.75195312 C33.9199219,7.75195312 34.1738281,7.66601562 34.3691406,7.49414062 C34.5644531,7.32226562 34.6660156,7.09375 34.6738281,6.80859375 L36.2617188,6.80859375 C36.2578125,7.23828125 36.140625,7.63183594 35.9101562,7.98925781 C35.6796875,8.34667969 35.3642578,8.62402344 34.9638672,8.82128906 C34.5634766,9.01855469 34.1210938,9.1171875 33.6367188,9.1171875 C32.7304688,9.1171875 32.015625,8.82910156 31.4921875,8.25292969 C30.96875,7.67675781 30.7070312,6.88085938 30.7070312,5.86523438 L30.7070312,5.75390625 C30.7070312,4.77734375 30.9667969,3.99804688 31.4863281,3.41601562 C32.0058594,2.83398438 32.71875,2.54296875 33.625,2.54296875 C34.4179688,2.54296875 35.0537109,2.76855469 35.5322266,3.21972656 C36.0107422,3.67089844 36.2539062,4.27148438 36.2617188,5.02148438 L34.6738281,5.02148438 C34.6660156,4.69335938 34.5644531,4.42675781 34.3691406,4.22167969 C34.1738281,4.01660156 33.9160156,3.9140625 33.5957031,3.9140625 C33.2011719,3.9140625 32.9033203,4.05761719 32.7021484,4.34472656 C32.5009766,4.63183594 32.4003906,5.09765625 32.4003906,5.7421875 L32.4003906,5.91796875 C32.4003906,6.5703125 32.5,7.0390625 32.6992188,7.32421875 C32.8984375,7.609375 33.2011719,7.75195312 33.6074219,7.75195312 Z" id="Path"></path>
            <path d="M39.3808594,3.3515625 C39.8300781,2.8125 40.3945312,2.54296875 41.0742188,2.54296875 C42.4492188,2.54296875 43.1464844,3.34179688 43.1660156,4.93945312 L43.1660156,9 L41.4726562,9 L41.4726562,4.98632812 C41.4726562,4.62304688 41.3945312,4.35449219 41.2382812,4.18066406 C41.0820312,4.00683594 40.8222656,3.91992188 40.4589844,3.91992188 C39.9628906,3.91992188 39.6035156,4.11132812 39.3808594,4.49414062 L39.3808594,9 L37.6875,9 L37.6875,0 L39.3808594,0 L39.3808594,3.3515625 Z" id="Path"></path>
            <path d="M47.8613281,9.1171875 C46.9316406,9.1171875 46.1748047,8.83203125 45.5908203,8.26171875 C45.0068359,7.69140625 44.7148438,6.93164062 44.7148438,5.98242188 L44.7148438,5.81835938 C44.7148438,5.18164062 44.8378906,4.61230469 45.0839844,4.11035156 C45.3300781,3.60839844 45.6787109,3.22167969 46.1298828,2.95019531 C46.5810547,2.67871094 47.0957031,2.54296875 47.6738281,2.54296875 C48.5410156,2.54296875 49.2236328,2.81640625 49.7216797,3.36328125 C50.2197266,3.91015625 50.46875,4.68554688 50.46875,5.68945312 L50.46875,6.38085938 L46.4316406,6.38085938 C46.4863281,6.79492188 46.6513672,7.12695312 46.9267578,7.37695312 C47.2021484,7.62695312 47.5507812,7.75195312 47.9726562,7.75195312 C48.625,7.75195312 49.1347656,7.515625 49.5019531,7.04296875 L50.3339844,7.97460938 C50.0800781,8.33398438 49.7363281,8.61425781 49.3027344,8.81542969 C48.8691406,9.01660156 48.3886719,9.1171875 47.8613281,9.1171875 Z M47.6679688,3.9140625 C47.3320312,3.9140625 47.0595703,4.02734375 46.8505859,4.25390625 C46.6416016,4.48046875 46.5078125,4.8046875 46.4492188,5.2265625 L48.8046875,5.2265625 L48.8046875,5.09179688 C48.796875,4.71679688 48.6953125,4.42675781 48.5,4.22167969 C48.3046875,4.01660156 48.0273438,3.9140625 47.6679688,3.9140625 Z" id="Shape"></path>
            <path d="M51.6660156,5.78320312 C51.6660156,4.79492188 51.8876953,4.0078125 52.3310547,3.421875 C52.7744141,2.8359375 53.3808594,2.54296875 54.1503906,2.54296875 C54.7675781,2.54296875 55.2773438,2.7734375 55.6796875,3.234375 L55.6796875,0 L57.3789062,0 L57.3789062,9 L55.8496094,9 L55.7675781,8.32617188 C55.3457031,8.85351562 54.8027344,9.1171875 54.1386719,9.1171875 C53.3925781,9.1171875 52.7939453,8.82324219 52.3427734,8.23535156 C51.8916016,7.64746094 51.6660156,6.83007812 51.6660156,5.78320312 Z M53.359375,5.90625 C53.359375,6.5 53.4628906,6.95507812 53.6699219,7.27148438 C53.8769531,7.58789062 54.1777344,7.74609375 54.5722656,7.74609375 C55.0957031,7.74609375 55.4648438,7.52539062 55.6796875,7.08398438 L55.6796875,4.58203125 C55.46875,4.140625 55.1035156,3.91992188 54.5839844,3.91992188 C53.7675781,3.91992188 53.359375,4.58203125 53.359375,5.90625 Z" id="Shape"></path>
            <path d="M62.9882812,8.35546875 C62.5703125,8.86328125 61.9921875,9.1171875 61.2539062,9.1171875 C60.5742188,9.1171875 60.0556641,8.921875 59.6982422,8.53125 C59.3408203,8.140625 59.1582031,7.56835938 59.1503906,6.81445312 L59.1503906,2.66015625 L60.84375,2.66015625 L60.84375,6.75585938 C60.84375,7.41601562 61.1445312,7.74609375 61.7460938,7.74609375 C62.3203125,7.74609375 62.7148438,7.546875 62.9296875,7.1484375 L62.9296875,2.66015625 L64.6289062,2.66015625 L64.6289062,9 L63.0351562,9 L62.9882812,8.35546875 Z" id="Path"></path>
            <polygon id="Path" points="68.1933594 9 66.4941406 9 66.4941406 0 68.1933594 0"></polygon>
            <path d="M73.0058594,9.1171875 C72.0761719,9.1171875 71.3193359,8.83203125 70.7353516,8.26171875 C70.1513672,7.69140625 69.859375,6.93164062 69.859375,5.98242188 L69.859375,5.81835938 C69.859375,5.18164062 69.9824219,4.61230469 70.2285156,4.11035156 C70.4746094,3.60839844 70.8232422,3.22167969 71.2744141,2.95019531 C71.7255859,2.67871094 72.2402344,2.54296875 72.8183594,2.54296875 C73.6855469,2.54296875 74.3681641,2.81640625 74.8662109,3.36328125 C75.3642578,3.91015625 75.6132812,4.68554688 75.6132812,5.68945312 L75.6132812,6.38085938 L71.5761719,6.38085938 C71.6308594,6.79492188 71.7958984,7.12695312 72.0712891,7.37695312 C72.3466797,7.62695312 72.6953125,7.75195312 73.1171875,7.75195312 C73.7695312,7.75195312 74.2792969,7.515625 74.6464844,7.04296875 L75.4785156,7.97460938 C75.2246094,8.33398438 74.8808594,8.61425781 74.4472656,8.81542969 C74.0136719,9.01660156 73.5332031,9.1171875 73.0058594,9.1171875 Z M72.8125,3.9140625 C72.4765625,3.9140625 72.2041016,4.02734375 71.9951172,4.25390625 C71.7861328,4.48046875 71.6523438,4.8046875 71.59375,5.2265625 L73.9492188,5.2265625 L73.9492188,5.09179688 C73.9414062,4.71679688 73.8398438,4.42675781 73.6445312,4.22167969 C73.4492188,4.01660156 73.171875,3.9140625 72.8125,3.9140625 Z" id="Shape"></path>
            <path d="M80.5078125,7.24804688 C80.5078125,7.04101562 80.4052734,6.87792969 80.2001953,6.75878906 C79.9951172,6.63964844 79.6660156,6.53320312 79.2128906,6.43945312 C77.7050781,6.12304688 76.9511719,5.48242188 76.9511719,4.51757812 C76.9511719,3.95507812 77.1845703,3.48535156 77.6513672,3.10839844 C78.1181641,2.73144531 78.7285156,2.54296875 79.4824219,2.54296875 C80.2871094,2.54296875 80.9306641,2.73242188 81.4130859,3.11132812 C81.8955078,3.49023438 82.1367188,3.98242188 82.1367188,4.58789062 L80.4433594,4.58789062 C80.4433594,4.34570312 80.3652344,4.14550781 80.2089844,3.98730469 C80.0527344,3.82910156 79.8085938,3.75 79.4765625,3.75 C79.1914062,3.75 78.9707031,3.81445312 78.8144531,3.94335938 C78.6582031,4.07226562 78.5800781,4.23632812 78.5800781,4.43554688 C78.5800781,4.62304688 78.6689453,4.77441406 78.8466797,4.88964844 C79.0244141,5.00488281 79.3242188,5.10449219 79.7460938,5.18847656 C80.1679688,5.27246094 80.5234375,5.3671875 80.8125,5.47265625 C81.7070312,5.80078125 82.1542969,6.36914062 82.1542969,7.17773438 C82.1542969,7.75585938 81.90625,8.22363281 81.4101562,8.58105469 C80.9140625,8.93847656 80.2734375,9.1171875 79.4882812,9.1171875 C78.9570312,9.1171875 78.4853516,9.02246094 78.0732422,8.83300781 C77.6611328,8.64355469 77.3378906,8.38378906 77.1035156,8.05371094 C76.8691406,7.72363281 76.7519531,7.3671875 76.7519531,6.984375 L78.3574219,6.984375 C78.3730469,7.28515625 78.484375,7.515625 78.6914062,7.67578125 C78.8984375,7.8359375 79.1757812,7.91601562 79.5234375,7.91601562 C79.8476562,7.91601562 80.0927734,7.85449219 80.2587891,7.73144531 C80.4248047,7.60839844 80.5078125,7.44726562 80.5078125,7.24804688 Z" id="Path"></path>
        </g>
        <g id="Group-10" transform="translate(103.000000, 23.000000)">
            <circle id="Oval" fill="#FFBB11" cx="13" cy="13" r="13"></circle>
            <text id="1" font-family="Roboto-Black, Roboto" font-size="14" font-weight="800" fill="#FFFFFF">
                <tspan x="8.94628906" y="17.7777778">1</tspan>
            </text>
        </g>
        <g id="Group-10-Copy" transform="translate(230.000000, 23.000000)">
            <circle id="Oval" fill="#FFBB11" cx="13" cy="13" r="13"></circle>
            <text id="2" font-family="Roboto-Black, Roboto" font-size="14" font-weight="800" fill="#FFFFFF">
                <tspan x="8.94628906" y="17.7777778">2</tspan>
            </text>
        </g>
        <g id="Group-10-Copy-2" transform="translate(354.000000, 23.000000)">
            <circle id="Oval" fill="#FFBB11" cx="13" cy="13" r="13"></circle>
            <text id="3" font-family="Roboto-Black, Roboto" font-size="14" font-weight="800" fill="#FFFFFF">
                <tspan x="8.94628906" y="17.7777778">3</tspan>
            </text>
        </g>
        <g id="Group-3" transform="translate(21.000000, 80.000000)">
            <rect id="Rectangle_1948" fill="#147AC2" fill-rule="nonzero" x="58" y="43" width="17" height="4" rx="2"></rect>
            <rect id="Rectangle_1961" fill="#147AC2" fill-rule="nonzero" x="58" y="51" width="32" height="4" rx="2"></rect>
            <rect id="Rectangle_1965" fill="#147AC2" fill-rule="nonzero" x="58" y="59" width="13" height="4" rx="2"></rect>
            <rect id="Rectangle_1951" fill="#BFBDBF" fill-rule="nonzero" x="0" y="43" width="35" height="4" rx="2"></rect>
            <rect id="Rectangle_1960" fill="#BFBDBF" fill-rule="nonzero" x="0" y="51" width="42" height="4" rx="2"></rect>
            <rect id="Rectangle_1964" fill="#BFBDBF" fill-rule="nonzero" x="0" y="59" width="47" height="4" rx="2"></rect>
            <rect id="Rectangle" x="0" y="0" width="4" height="5" rx="2"></rect>
            <rect id="Rectangle" stroke="#BFBDBF" x="1" y="0" width="3" height="4" rx="1.5"></rect>
            <rect id="Rectangle" x="6" y="0" width="4" height="5" rx="2"></rect>
            <rect id="Rectangle" stroke="#BFBDBF" x="6" y="0" width="3" height="4" rx="1.5"></rect>
            <rect id="Rectangle" x="12" y="0" width="4" height="5" rx="2"></rect>
            <rect id="Rectangle" stroke="#BFBDBF" x="12" y="0" width="3" height="4" rx="1.5"></rect>
            <rect id="Rectangle" x="58" y="0" width="4" height="5" rx="2"></rect>
            <rect id="Rectangle" stroke="#BFBDBF" x="59" y="0" width="3" height="4" rx="1.5"></rect>
            <rect id="Rectangle_1949" fill="#147AC2" fill-rule="nonzero" x="58" y="19" width="36" height="4" rx="2"></rect>
            <rect id="Rectangle_1967" fill="#147AC2" fill-rule="nonzero" x="58" y="11" width="19" height="4" rx="2"></rect>
            <rect id="Rectangle_1952" fill="#BFBDBF" fill-rule="nonzero" x="0" y="19" width="47" height="4" rx="2"></rect>
            <rect id="Rectangle_1966" fill="#BFBDBF" fill-rule="nonzero" x="0" y="11" width="35" height="4" rx="2"></rect>
        </g>
        <g id="Group-3-Copy" transform="translate(146.000000, 80.000000)">
            <rect id="Rectangle_1948" fill="#147AC2" fill-rule="nonzero" x="58" y="43" width="17" height="4" rx="2"></rect>
            <rect id="Rectangle_1961" fill="#147AC2" fill-rule="nonzero" x="58" y="51" width="32" height="4" rx="2"></rect>
            <rect id="Rectangle_1965" fill="#147AC2" fill-rule="nonzero" x="58" y="59" width="13" height="4" rx="2"></rect>
            <rect id="Rectangle_1951" fill="#BFBDBF" fill-rule="nonzero" x="0" y="43" width="35" height="4" rx="2"></rect>
            <rect id="Rectangle_1960" fill="#BFBDBF" fill-rule="nonzero" x="0" y="51" width="42" height="4" rx="2"></rect>
            <rect id="Rectangle_1964" fill="#BFBDBF" fill-rule="nonzero" x="0" y="59" width="47" height="4" rx="2"></rect>
            <rect id="Rectangle" x="0" y="0" width="4" height="5" rx="2"></rect>
            <rect id="Rectangle" stroke="#BFBDBF" x="1" y="0" width="3" height="4" rx="1.5"></rect>
            <rect id="Rectangle" x="6" y="0" width="4" height="5" rx="2"></rect>
            <rect id="Rectangle" stroke="#BFBDBF" x="6" y="0" width="3" height="4" rx="1.5"></rect>
            <rect id="Rectangle" x="12" y="0" width="4" height="5" rx="2"></rect>
            <rect id="Rectangle" stroke="#BFBDBF" x="12" y="0" width="3" height="4" rx="1.5"></rect>
            <rect id="Rectangle" x="58" y="0" width="4" height="5" rx="2"></rect>
            <rect id="Rectangle" stroke="#BFBDBF" x="59" y="0" width="3" height="4" rx="1.5"></rect>
            <rect id="Rectangle_1949" fill="#147AC2" fill-rule="nonzero" x="58" y="19" width="36" height="4" rx="2"></rect>
            <rect id="Rectangle_1967" fill="#147AC2" fill-rule="nonzero" x="58" y="11" width="19" height="4" rx="2"></rect>
            <rect id="Rectangle_1952" fill="#BFBDBF" fill-rule="nonzero" x="0" y="19" width="47" height="4" rx="2"></rect>
            <rect id="Rectangle_1966" fill="#BFBDBF" fill-rule="nonzero" x="0" y="11" width="35" height="4" rx="2"></rect>
        </g>
        <g id="Group-3-Copy-2" transform="translate(272.000000, 80.000000)">
            <rect id="Rectangle_1948" fill="#147AC2" fill-rule="nonzero" x="58" y="43" width="17" height="4" rx="2"></rect>
            <rect id="Rectangle_1961" fill="#147AC2" fill-rule="nonzero" x="58" y="51" width="32" height="4" rx="2"></rect>
            <rect id="Rectangle_1965" fill="#147AC2" fill-rule="nonzero" x="58" y="59" width="13" height="4" rx="2"></rect>
            <rect id="Rectangle_1951" fill="#BFBDBF" fill-rule="nonzero" x="0" y="43" width="35" height="4" rx="2"></rect>
            <rect id="Rectangle_1960" fill="#BFBDBF" fill-rule="nonzero" x="0" y="51" width="42" height="4" rx="2"></rect>
            <rect id="Rectangle_1964" fill="#BFBDBF" fill-rule="nonzero" x="0" y="59" width="47" height="4" rx="2"></rect>
            <rect id="Rectangle" x="0" y="0" width="4" height="5" rx="2"></rect>
            <rect id="Rectangle" stroke="#BFBDBF" x="1" y="0" width="3" height="4" rx="1.5"></rect>
            <rect id="Rectangle" x="6" y="0" width="4" height="5" rx="2"></rect>
            <rect id="Rectangle" stroke="#BFBDBF" x="6" y="0" width="3" height="4" rx="1.5"></rect>
            <rect id="Rectangle" x="12" y="0" width="4" height="5" rx="2"></rect>
            <rect id="Rectangle" stroke="#BFBDBF" x="12" y="0" width="3" height="4" rx="1.5"></rect>
            <rect id="Rectangle" x="58" y="0" width="4" height="5" rx="2"></rect>
            <rect id="Rectangle" stroke="#BFBDBF" x="59" y="0" width="3" height="4" rx="1.5"></rect>
            <rect id="Rectangle_1949" fill="#147AC2" fill-rule="nonzero" x="58" y="19" width="36" height="4" rx="2"></rect>
            <rect id="Rectangle_1967" fill="#147AC2" fill-rule="nonzero" x="58" y="11" width="19" height="4" rx="2"></rect>
            <rect id="Rectangle_1952" fill="#BFBDBF" fill-rule="nonzero" x="0" y="19" width="47" height="4" rx="2"></rect>
            <rect id="Rectangle_1966" fill="#BFBDBF" fill-rule="nonzero" x="0" y="11" width="35" height="4" rx="2"></rect>
        </g>
        <rect id="Rectangle-Copy-38" fill="#0077CC" x="20.8531409" y="165" width="36.1468591" height="12.9702806" rx="2.2"></rect>
        <rect id="Rectangle-Copy-39" fill="#0077CC" x="145.853141" y="165" width="36.1468591" height="12.9702806" rx="2.2"></rect>
        <rect id="Rectangle-Copy-40" fill="#0077CC" x="271.853141" y="165" width="36.1468591" height="12.9702806" rx="2.2"></rect>
        <g id="Group-13" transform="translate(232.000000, 56.000000)"></g>
    </g>
</svg>