<?xml version="1.0" encoding="UTF-8"?>
<svg width="223px" height="179px" viewBox="0 0 223 179" version="1.1" xmlns="http://www.w3.org/2000/svg" xmlns:xlink="http://www.w3.org/1999/xlink">
    <title>Artboard</title>
    <defs>
        <linearGradient x1="50%" y1="0%" x2="50%" y2="100%" id="linearGradient-1">
            <stop stop-color="#0077CC" stop-opacity="0.165315641" offset="0%"></stop>
            <stop stop-color="#0077CC" stop-opacity="0" offset="100%"></stop>
        </linearGradient>
        <linearGradient x1="50%" y1="0%" x2="50%" y2="100%" id="linearGradient-2">
            <stop stop-color="#0077CC" stop-opacity="0.165315641" offset="0%"></stop>
            <stop stop-color="#0077CC" stop-opacity="0" offset="100%"></stop>
        </linearGradient>
    </defs>
    <g id="Artboard" stroke="none" stroke-width="1" fill="none" fill-rule="evenodd">
        <g id="Group-21" transform="translate(1.000000, 1.000000)">
            <path d="M141.536467,158 L5.46099374,158 C2.44487997,158 0,155.556265 0,152.539027 L0,76.4609731 C0,73.4462723 2.44487997,71 5.46099374,71 L141.536467,71 C144.552581,71 147,73.4462723 147,76.4609731 L147,152.539027 C147,155.556265 144.552581,158 141.536467,158 Z" id="Stroke-22" stroke="#0077CC" fill="#FFFFFF"></path>
            <path d="M33,70.9995254 L33,122.778089 C33,127.233833 36.5462023,130.863332 40.9741995,130.99623 L41.2257647,131 L147,130.999525 L147,140.999525 L34.2257647,141 C29.6812837,141 26,137.317903 26,132.778089 L26,70.9995254 L33,70.9995254 Z" id="Combined-Shape" fill-opacity="0.696155041" fill="#ECF5FA"></path>
            <polygon id="Stroke-28" stroke="#0077CC" points="58.5 158 41 176 107 176 91 158"></polygon>
            <polygon id="Path" fill-opacity="0.57760428" fill="#0077CC" opacity="0.246033441" points="91 158 96.333 164 52.667 164 58.5 158"></polygon>
            <line x1="18" y1="176" x2="130" y2="176" id="Stroke-30" stroke="#0077CC"></line>
            <path d="M171.774235,131 L41.2257647,131 C36.6812837,131 33,127.317903 33,122.778089 L33,52.2219111 C33,47.6820966 36.6812837,44 41.2257647,44 L171.774235,44 C176.316178,44 180,47.6820966 180,52.2219111 L180,122.778089 C180,127.317903 176.316178,131 171.774235,131" id="Fill-24" fill="#FEFEFE" fill-rule="nonzero"></path>
            <path d="M171.774235,131 L41.2257647,131 C36.6812837,131 33,127.317903 33,122.778089 L33,52.2219111 C33,47.6820966 36.6812837,44 41.2257647,44 L171.774235,44 C176.316178,44 180,47.6820966 180,52.2219111 L180,122.778089 C180,127.317903 176.316178,131 171.774235,131 Z" id="Stroke-26" stroke="#0077CC" fill="#FFFFFF"></path>
            <line x1="33" y1="54" x2="180" y2="54" id="Stroke-32" stroke="#0077CC"></line>
            <line x1="48" y1="81" x2="84" y2="81" id="Stroke-34" stroke="#0077CC"></line>
            <line x1="48" y1="100" x2="84" y2="100" id="Stroke-36" stroke="#0077CC"></line>
            <line x1="48" y1="90" x2="69" y2="90" id="Stroke-38" stroke="#0077CC"></line>
            <path d="M180.000232,51.4432957 L180.000232,123.744925 C180.000232,127.751838 177.672982,131 174.802307,131 L93.0002319,131 C113.602831,79.5294691 142.602831,53.0108144 180.000232,51.4432957 Z" id="Path-Copy" fill="url(#linearGradient-1)"></path>
            <circle id="Oval" stroke="#0077CC" cx="140.5" cy="91.5" r="17"></circle>
            <g id="Group-20" transform="translate(91.000000, 0.000000)">
                <path d="M122.752993,87 L7.24700692,87 C3.24455017,87 0,83.7518376 0,79.7449246 L0,7.25507518 C0,3.2481624 3.24455017,0 7.24700692,0 L122.752993,0 C126.75545,0 130,3.2481624 130,7.25507518 L130,79.7449246 C130,83.7518376 126.75545,87 122.752993,87" id="Fill-42" fill="#FEFEFE" fill-rule="nonzero"></path>
                <path d="M122.752993,87 L7.24700692,87 C3.24455017,87 0,83.7518376 0,79.7449246 L0,7.25507518 C0,3.2481624 3.24455017,0 7.24700692,0 L122.752993,0 C126.75545,0 130,3.2481624 130,7.25507518 L130,79.7449246 C130,83.7518376 126.75545,87 122.752993,87 Z" id="Stroke-43" stroke="#0077CC"></path>
                <path d="M130.000232,7.44329567 L130.000232,79.7449246 C130.000232,83.7518376 126.75545,87 122.752993,87 L8.69994177,87 C37.4252437,35.5294691 77.8586738,9.01081439 130.000232,7.44329567 Z" id="Path" fill="url(#linearGradient-2)"></path>
                <polygon id="Stroke-44" stroke="#0077CC" points="18 61 24 61 24 18 18 18"></polygon>
                <polygon id="Stroke-45" stroke="#0077CC" points="29 61 35 61 35 37 29 37"></polygon>
                <polygon id="Stroke-46" stroke="#0077CC" points="42 61 48 61 48 26 42 26"></polygon>
                <path d="M70,61 C72.5209566,53.6993817 76.1729503,46.786961 80.7900959,40.5883227 C84.2309628,45.4746028 88.3806131,49.8649918 93.0731613,53.5766612 C97.7154419,45.3844407 102.357721,37.1922205 107,29" id="Stroke-47" stroke="#0077CC"></path>
                <path d="M101,32.5362695 C103.400976,31.3575129 105.799514,30.1787563 108.200487,29 C107.410726,31.6295337 107.708105,34.6062175 109,37" id="Stroke-48" stroke="#0077CC"></path>
            </g>
        </g>
    </g>
</svg>