<svg xmlns="http://www.w3.org/2000/svg" width="175.468" height="135.356" viewBox="0 0 175.468 135.356">
  <g id="Group_847" data-name="Group 847" transform="translate(0.468 0.689)">
    <path id="Path_2402" data-name="Path 2402" d="M1044.775,401.351l52.4-26.672a6.958,6.958,0,0,0,4.078-6.182V310.364c0-2.581-1.831-4.16-4.078-3.507l-52.4,22.091a6.706,6.706,0,0,0-4.69,6.237v62.628C1040.085,400.593,1042.2,402.183,1044.775,401.351Z" transform="translate(-956.882 -286.5)" fill="#7470b2"/>
    <path id="Path_2403" data-name="Path 2403" d="M986.556,401.351l-52.4-26.672a6.958,6.958,0,0,1-4.078-6.182V310.364c0-2.581,1.831-4.16,4.078-3.507l52.4,22.091a6.706,6.706,0,0,1,4.69,6.237v62.628C991.246,400.593,989.13,402.183,986.556,401.351Z" transform="translate(-901.176 -286.5)" fill="#6cccf2"/>
    <line id="Line_111" data-name="Line 111" x1="8.154" y1="4.15" transform="translate(103.448 75.395)" fill="#8ecfc8"/>
    <path id="Path_2404" data-name="Path 2404" d="M932.84,290.153l48.952,22.16c3.546,1.605,9.225,1.7,12.569.2l49.548-22.234c3.185-1.429,2.628-3.751-1.185-5.148L989.956,265.8a17.428,17.428,0,0,0-11.088.169l-45.731,19.406C930.058,286.679,929.908,288.825,932.84,290.153Z" transform="translate(-901.618 -264.975)" fill="#fafbfc" stroke="#5479bb" stroke-linecap="round" stroke-miterlimit="10" stroke-width="1"/>
    <path id="Path_2405" data-name="Path 2405" d="M1161.944,443.277c.034.632-.46,1.278-1.514,1.82l-11.6,5.964-25.871,13.3a13.626,13.626,0,0,1-9.533.436c-.075-.024-.141-.048-.212-.076l-10.671-4.367c-1.12-.436-1.694-1.048-1.728-1.694-.037-.7.554-1.427,1.763-2.019l37.3-17.952a13.521,13.521,0,0,1,8.585-.585l10.838,3.058C1160.994,441.68,1161.9,442.47,1161.944,443.277Z" transform="translate(-987.638 -352.442)" fill="#115a8f" stroke="#5479bb" stroke-linecap="round" stroke-miterlimit="10" stroke-width="1"/>
    <path id="Path_2406" data-name="Path 2406" d="M1042.346,290.871l-5.393,2.417L1013.977,303.6a10.047,10.047,0,0,1-7.195-.116l-24.406-9.609-4.607-2.084c-1.682-.758-1.594-1.987.166-2.735l27.174-12.1a10,10,0,0,1,6.349-.093l30.208,11.067C1043.852,288.722,1044.167,290.053,1042.346,290.871Z" transform="translate(-924.726 -270.728)" fill="#115a8f" stroke="#5479bb" stroke-linecap="round" stroke-miterlimit="10" stroke-width="1"/>
    <path id="Path_2407" data-name="Path 2407" d="M1042.87,300.321l-22.976,10.309a10.046,10.046,0,0,1-7.195-.116l-24.406-9.609,22.243-10.007a9.973,9.973,0,0,1,6.349-.1Z" transform="translate(-930.642 -277.761)" fill="#fafbfc" stroke="#5479bb" stroke-linecap="round" stroke-miterlimit="10" stroke-width="1"/>
    <path id="Path_2408" data-name="Path 2408" d="M1105.876,384.969l-2.1,2.761c-2.4,3.212-5.369,4.645-7.431,3.088l-6.761-5.111-2.275,3.763-5.794,9.582a10.277,10.277,0,0,1-1.056,1.378c-2.117,2.355-4.942,3.222-6.791,1.884l-3.609-2.622a3.183,3.183,0,0,1-.659-.635l1.036.754c1.849,1.343,4.68.471,6.8-1.879a10.381,10.381,0,0,0,1.051-1.383l2.091-3.456,3.7-6.122,2.281-3.763,6.761,5.111c2.058,1.557,5.046-.035,7.431-3.093l2.1-2.756c2-3.2,1.993-7.1-.015-8.68l-3.292-2.593-3.287-2.588.02-.025,6.529-10.266c1.844-2.89,1.977-6.429.411-8.249l2.806,2.087c2,1.641,2.013,5.532.015,8.665l-6.529,10.261-.02.03,3.287,2.588,3.291,2.593C1107.869,377.87,1107.879,381.766,1105.876,384.969Z" transform="translate(-971.658 -308.135)" fill="#115a8f"/>
    <path id="Path_2409" data-name="Path 2409" d="M987.826,393.288a16.981,16.981,0,0,1-16.2,7.643,19.762,19.762,0,0,1-2.611-.434c-11.46-2.68-18.72-14.755-17.62-25.933a19.791,19.791,0,0,1,7.116-13.623,16.952,16.952,0,0,1,10.476-3.775,19.543,19.543,0,0,1,9.63,2.514,24.708,24.708,0,0,1,12.38,18.7A22.034,22.034,0,0,1,987.826,393.288Z" transform="translate(-911.888 -311.706)" fill="#5befbd" stroke="#5479bb" stroke-linecap="round" stroke-miterlimit="10" stroke-width="1"/>
    <path id="Path_2410" data-name="Path 2410" d="M1101.611,380.437l-2.1,2.756c-2.385,3.059-5.373,4.65-7.431,3.093l-6.761-5.111-2.281,3.762-5.794,9.577a10.38,10.38,0,0,1-1.051,1.383c-2.117,2.35-4.947,3.222-6.8,1.879l-1.035-.753-.006,0c-.064-.074-.124-.159-.183-.243-1.308-1.938-1.026-5.329.838-8.2l7.059-10.851-3.256-2.464-.461-.347L1069,372.372a3.567,3.567,0,0,1-.411-.367c-.09-.094-.179-.2-.258-.3-1.507-1.933-1.284-5.478.659-8.407l1.18-1.775.015-.015,2.414-3.634c1.908-2.875,4.848-4.149,7.01-3.321.793.3,6.5,5.255,6.5,5.255l.035.025,4.784-7.366,1.949-2.989c2.052-3.153,5.393-4.357,7.426-2.692l1.452,1.081.213.164a.017.017,0,0,0,.01,0c1.566,1.819,1.433,5.359-.411,8.249l-6.529,10.266-.02.025,3.287,2.588,3.292,2.593C1103.6,373.339,1103.609,377.235,1101.611,380.437Z" transform="translate(-970.611 -306.089)" fill="#fafbfc" stroke="#5479bb" stroke-linecap="round" stroke-miterlimit="10" stroke-width="1"/>
    <path id="Path_2411" data-name="Path 2411" d="M962.838,460.248v10.083a3,3,0,0,1-1.876,1.354l-10.8,3.845-12.449-5.555,14.8-5.268,8.41-2.99A4.765,4.765,0,0,0,962.838,460.248Z" transform="translate(-905.006 -363.837)" fill="#ffe58f"/>
    <path id="Path_2412" data-name="Path 2412" d="M961.775,476.318" transform="translate(-917.16 -371.925)" fill="none" stroke="#1a1818" stroke-linecap="round" stroke-miterlimit="10" stroke-width="1"/>
    <path id="Path_2413" data-name="Path 2413" d="M928.627,491.34v10.222c-.176.591-.846,1.146-2.01,1.557l-10.157,3.59a14.2,14.2,0,0,1-9.376-.434l-25.157-11.959c-.18-.069-.356-.139-.523-.217l-8.354-3.974c-.984-.466-1.46-1.044-1.46-1.613v-9.667a4.1,4.1,0,0,0,1.419,1.312l8.054,3.831.3.143c.162.078.338.148.523.217l25.157,11.959a14.185,14.185,0,0,0,9.371.434l2.583-.915,7.579-2.675C927.9,492.68,928.585,492.029,928.627,491.34Z" transform="translate(-871.558 -373.305)" fill="#ffe58f" stroke="#ffe58f" stroke-linecap="round" stroke-miterlimit="10" stroke-width="1"/>
    <line id="Line_112" data-name="Line 112" transform="translate(2.244 110.033)" fill="none" stroke="#1a1818" stroke-linecap="round" stroke-miterlimit="10" stroke-width="1"/>
    <path id="Path_2414" data-name="Path 2414" d="M875.981,474.35" transform="translate(-873.772 -370.929)" fill="none" stroke="#1a1818" stroke-linecap="round" stroke-miterlimit="10" stroke-width="1"/>
    <path id="Path_2415" data-name="Path 2415" d="M1161.946,448.991l.692,13.05c.034.633-.459,1.278-1.514,1.82l-37.47,19.261a13.653,13.653,0,0,1-9.745.36l-10.671-4.367c-1.086-.424-1.659-1.009-1.725-1.634l-.7-13.11c.034.646.608,1.259,1.728,1.694l10.671,4.367c.071.028.137.053.212.076a13.626,13.626,0,0,0,9.533-.436l25.871-13.3,11.6-5.964C1161.486,450.269,1161.98,449.623,1161.946,448.991Z" transform="translate(-987.639 -358.25)" fill="#cad5ed"/>
    <path id="Path_2416" data-name="Path 2416" d="M929.463,453.1v.545c-.157.545-.8,1.072-1.917,1.469l-8.41,2.99-14.8,5.268,12.449,5.555,9.931,4.431c1.22.541,1.849,1.215,1.881,1.872v.129c-.042.689-.73,1.34-2.052,1.811l-7.578,2.675-2.583.915a14.184,14.184,0,0,1-9.371-.434l-25.157-11.959c-.185-.069-.36-.139-.522-.217l-.3-.143-8.054-3.831a2.406,2.406,0,0,1-1.419-1.312,1.422,1.422,0,0,1-.032-.139v-.342a1.223,1.223,0,0,1,.032-.129c.162-.582.827-1.141,1.973-1.548l9.316-3.332c.18-.064.37-.12.564-.175l26.363-9.418a14.279,14.279,0,0,1,8.771.134l9.159,3.724C928.728,452.057,929.315,452.575,929.463,453.1Z" transform="translate(-871.525 -357.326)" fill="#e99200"/>
    <path id="Path_2417" data-name="Path 2417" d="M991.667,393.288a17.025,17.025,0,0,1-12.426,3.517,19.7,19.7,0,0,1-2.61-.435c-11.46-2.68-18.72-14.755-17.62-25.933a20.558,20.558,0,0,1,3.341-9.5,16.952,16.952,0,0,1,10.476-3.775,19.543,19.543,0,0,1,9.63,2.514,24.708,24.708,0,0,1,12.38,18.7A22.034,22.034,0,0,1,991.667,393.288Z" transform="translate(-915.738 -311.696)" fill="#fafbfc" stroke="#5479bb" stroke-linecap="round" stroke-miterlimit="10" stroke-width="1"/>
  </g>
</svg>
